<?xml version="1.0" encoding="utf-8"?>
<!-- Generator: Adobe Illustrator 23.0.3, SVG Export Plug-In . SVG Version: 6.00 Build 0)  -->
<svg version="1.1" id="Layer_1" xmlns="http://www.w3.org/2000/svg" xmlns:xlink="http://www.w3.org/1999/xlink" x="0px" y="0px"
	 viewBox="0 0 397.72 162.25" enable-background="new 0 0 397.72 162.25" xml:space="preserve">
<g id="_4587بتثنتباثی-03-03" transform="translate(-180.557 -188.372)">
	<path id="Path_1035" fill="#D0EEEB" d="M200.33,346.05c-8.41-10.95-11.81-24.95-9.35-38.54c3.09-17.53,5.56-21.59,36.17-40.05
		c29.54-17.82,4.22-70.56,79.91-69.04c46.1,0.93,62.84-16.23,96.67,3.18c32.35,18.55,2.02,37.85,52.16,71.01
		c18.07,11.95,16.4,61.19-6.74,73.22L200.33,346.05z"/>
	<path id="Path_1036" opacity="0.4" fill="#2FC4B2" enable-background="new    " d="M398,223.84c-1.66-6.13-12.01-4.22-12.01-4.22
		s-7.03,10.73-9.08,10.99s4.22-10.35,4.22-10.35c-3.96-0.38-14.06,4.47-14.06,4.47s0.64,12.52-1.41,12.27
		c-2.05-0.25,0-11.12,0-11.12c-3.83,1.15-7.41,5.62-7.41,5.62c-4.47,7.28,5.11,12.65,5.11,12.65c-0.09,3.27-0.97,6.47-2.56,9.33l0,0
		c-0.48,0.79-0.89,1.62-1.22,2.49h1.05c0.09-0.28,0.18-0.55,0.29-0.81l0,0v-0.01c0.07-0.17,0.17-0.39,0.3-0.67l0,0
		c0.32-0.63,0.53-1.09,0.67-1.42l0,0c0.96-1.96,2.34-4.52,3.25-5.06c-0.1-0.15-0.17-0.31-0.22-0.48c0.07,0.15,0.14,0.31,0.22,0.48
		c1.79,3.84,10.73,4.47,15.72,3.45s2.81-2.43,0.13-4.71c-2.68-2.28-8.31-1.68-9.97-2.57c-1.66-0.89,0.77-1.79,4.09-1.53
		s4.98,3.58,10.35,4.09c5.37,0.51,9.46-9.58,9.46-9.58c-3.71,1.15-10.35-0.9-10.61-2.17s9.58-1.15,11.12-1.53
		C396.98,233.06,399.66,229.97,398,223.84z"/>
	<path id="Path_1037" opacity="0.4" fill="#2FC4B2" enable-background="new    " d="M269.15,326.88c-5.11-7.56,6.7-17.01,6.7-17.01
		s18.27,2.44,20.46,0.46c2.2-1.98-15.21-5.14-15.21-5.14c3.3-4.66,18.06-11.07,18.06-11.07s13.01,12.46,14.65,9.99
		c1.65-2.47-12.08-10.44-12.08-10.44c4.85-3.08,13.07-2.76,13.07-2.76c12.12,1.97,8.94,17.43,8.94,17.43
		c3.64,2.97,7.94,5.02,12.54,5.98l0,0c1.31,0.22,2.6,0.55,3.85,1.01l-0.98,1.14c-0.38-0.17-0.77-0.32-1.15-0.45h-0.02
		c-0.24-0.07-0.59-0.18-1.01-0.3l0,0c-0.98-0.24-1.68-0.44-2.18-0.6l0,0c-3.03-0.8-7.1-1.71-8.55-1.21
		c-0.07-0.24-0.18-0.48-0.31-0.69l0.31,0.69c2.49,5.55-5.22,15.87-11.01,20.32c-5.79,4.45-5.28,0.77-5.23-4.28
		c0.04-5.06,5.97-10.6,6.55-13.25c0.58-2.65-2.66-0.84-5.51,3c-2.84,3.84-0.79,8.78-5.28,15.09c-4.48,6.31-19.3,1.27-19.3,1.27
		c4.73-2.95,8.75-12.08,7.6-13.56s-10.25,9.33-12.1,10.64C280.13,334.43,274.25,334.44,269.15,326.88z"/>
	<path id="Path_1038" opacity="0.4" fill="#2FC4B2" enable-background="new    " d="M281.21,221.61c2.49-9.11,17.87-6.23,17.87-6.23
		s10.42,15.98,13.46,16.37c3.04,0.39-6.24-15.4-6.24-15.4c5.88-0.56,20.88,6.69,20.88,6.69s-0.98,18.61,2.06,18.24
		c3.04-0.37,0.03-16.53,0.03-16.53c5.7,1.72,11,8.38,11,8.38c6.62,10.84-7.64,18.78-7.64,18.78c0.13,4.86,1.42,9.62,3.77,13.88l0,0
		c0.72,1.17,1.32,2.41,1.81,3.7h-1.55c-0.13-0.42-0.27-0.82-0.42-1.21l0,0c0-0.01,0-0.01,0-0.02c-0.11-0.24-0.26-0.58-0.45-1.01l0,0
		c-0.48-0.93-0.79-1.62-0.99-2.11c-1.42-2.92-3.46-6.72-4.82-7.52c0.14-0.22,0.26-0.46,0.34-0.71c-0.11,0.22-0.22,0.46-0.34,0.71
		c-2.68,5.69-15.98,6.61-23.38,5.08c-7.39-1.53-4.17-3.62-0.18-7c4-3.39,12.35-2.47,14.82-3.8s-1.13-2.66-6.07-2.29
		s-7.42,5.3-15.4,6.05c-7.98,0.75-14.03-14.27-14.03-14.27c5.51,1.72,15.39-1.3,15.77-3.19c0.38-1.89-14.25-1.74-16.53-2.32
		C282.7,235.29,278.72,230.73,281.21,221.61z"/>
	<path id="Path_1039" opacity="0.4" fill="#2FC4B2" enable-background="new    " d="M269.49,268.3c0.71-6.96,12.29-6.71,12.29-6.71
		s9.54,10.41,11.8,10.32s-6.42-10.49-6.42-10.49c4.23-1.12,16.06,2.35,16.06,2.35s1.53,13.71,3.7,13.07s-1.97-12.07-1.97-12.07
		c4.37,0.57,9.05,4.79,9.05,4.79c6.15,7.12-3.31,14.64-3.31,14.64c0.68,3.53,2.2,6.85,4.43,9.68l0,0c0.67,0.77,1.26,1.6,1.77,2.48
		l-1.14,0.18c-0.14-0.29-0.29-0.57-0.45-0.83l0,0v-0.01c-0.11-0.17-0.26-0.39-0.45-0.67l0,0c-0.46-0.62-0.77-1.09-0.98-1.43l0,0
		c-1.39-1.96-3.34-4.49-4.43-4.91c0.08-0.18,0.13-0.37,0.16-0.56l-0.16,0.56c-1.26,4.48-10.86,6.76-16.46,6.54
		c-5.59-0.23-3.48-2.14-0.98-5.09c2.51-2.95,8.72-3.3,10.37-4.57c1.65-1.27-1.15-1.81-4.71-0.94c-3.56,0.87-4.78,4.77-10.51,6.28
		s-11.97-8.73-11.97-8.73c4.23,0.59,11.08-2.81,11.13-4.24c0.05-1.43-10.61,0.45-12.34,0.31
		C272.25,278.11,268.77,275.26,269.49,268.3z"/>
	<path id="Path_1040" fill="#E98C94" d="M404.02,290.93c-0.02-0.12-0.07-0.24-0.15-0.34c-0.11-0.33-0.18-0.67-0.22-1.02
		c0.01-0.26-0.3-0.17-0.44,0.04c-0.05,0.07,0.02,0.35,0.01,0.44c-0.7-0.35-1.45-0.58-2.23-0.67c0,0-0.84-0.17-0.35,0.6
		c0.32,0.5,0.64,0.54,1.11,1.25c0.37,0.67,1.09,1.06,1.85,1.02l0.7,0.14l0.55-1.08L404.02,290.93z"/>
	<path id="Path_1041" fill="#289C8E" d="M420.28,289.37c0,0,3.35,12.82-6.83,10.69c-2.75-0.57-10.06-7.87-10.06-7.87
		s0.7-1.11,1.57-0.99c0,0,7.07,2.3,8.2,3.13c0.63,0.46,1.34-6.8,3.51-6.7C418.04,287.75,419.33,288.37,420.28,289.37z"/>
	<path id="Path_1042" fill="#093830" d="M424.86,343.57c0,0-0.19,3.01-0.77,3.06h-2.96l-3.68-0.02c0.06-0.58,0.52-1.03,1.1-1.07
		c1.47-0.22,2.76-1.09,3.53-2.36C422.77,341.68,424.86,343.57,424.86,343.57z"/>
	<path id="Path_1043" fill="#0D5E52" d="M425.07,343.78c-0.64,0.21-1.31,0.34-1.99,0.37c-0.63-0.01-1.25-0.1-1.86-0.27
		c-0.31-2.2-0.77-4.38-1.37-6.52c-0.61-2.35-1.48-5.38-2.71-9.13c-1.92-5.56-3.44-11.25-4.54-17.02v-0.05h0.01l10.49-4.61
		c0,0-1.3,14.3,0.36,19.79c0.25,0.86,0.45,1.74,0.6,2.63C424.74,333.89,425.08,338.83,425.07,343.78z"/>
	<path id="Path_1044" fill="#0D5E52" d="M424.05,328.98l-4.2,8.38c-0.61-2.35-1.48-5.38-2.71-9.13c-1.92-5.56-3.44-11.25-4.54-17.02
		v-0.05l10.49-4.61c0,0-1.3,14.3,0.36,19.79C423.7,327.22,423.9,328.09,424.05,328.98z"/>
	<path id="Path_1045" fill="#093830" d="M416.67,343.57c0,0-0.19,3.01-0.77,3.06h-2.96l-3.68-0.02c0.06-0.58,0.52-1.03,1.1-1.07
		c1.47-0.23,2.76-1.09,3.53-2.36C414.58,341.68,416.67,343.57,416.67,343.57z"/>
	<path id="Path_1046" fill="#0D5E52" d="M410.73,306.9c0.01,6.91,0.5,13.81,1.47,20.65c1.61,11.38,1.06,16.21,1.06,16.21
		c0.51,0.17,1.02,0.3,1.55,0.39c0.77,0.04,1.55-0.05,2.3-0.27c0,0,2.29-11.38,1.64-17.08c-0.66-5.7,3.14-19.55,3.14-19.55
		L410.73,306.9z"/>
	<path id="Path_1047" fill="#FFFFFF" stroke="#000000" stroke-width="0.3" stroke-miterlimit="10" d="M418.37,284.84l-1.84,1.62
		l-3-0.13c0-0.24,0.06-1.25,0.11-2.16l0.01-0.16c0.04-0.78,0.08-1.44,0.08-1.44l2.57-1.59l0.96-0.59c0,0.02,0.04,0.85,0.05,0.97
		C417.34,282.58,417.71,283.79,418.37,284.84z"/>
	<path id="Path_1048" fill="#289C8E" d="M410.11,307.3c0.04,4.89,0.37,16.34,0.61,16.57c2.55,2.46,13.76-0.67,14.35-3.38
		c0.59-2.71-2.26-34.75-6.61-36.02c-0.9-0.27-5.73,1.3-5.73,1.3c-0.53,1.47-0.95,2.97-1.25,4.5c-0.18,0.94-0.78,7.61-1.13,12.07
		c-0.1,1.19-0.17,2.22-0.21,2.94C410.11,305.57,410.11,306.29,410.11,307.3z"/>
	<path id="Path_1049" fill="#FFFFFF" stroke="#000000" stroke-width="0.3" stroke-miterlimit="10" d="M412.78,282.67
		c0,0,4.64,0.43,4.87-2.46c0.23-2.89,0.97-4.79-1.98-5.19c-2.95-0.4-3.62,0.67-3.93,1.61C411.43,277.57,411.57,282.48,412.78,282.67
		z"/>
	<path id="Path_1050" fill="#093830" d="M411.85,276.33c0,0,0.95,3.11,1.58,2.83c0.63-0.28,1.2-0.5,1.31,0.47
		c0.11,0.98-0.57,2.27,1.49,2.02c2.06-0.26,3.85-6.09,3.09-6.95C417.1,272.18,408.8,273.35,411.85,276.33z"/>
	<path id="Path_1051" fill="#D0EEEB" d="M413.92,284.53c0.06-0.02,3.31-1.48,3.7-1.36c0.38,0.12,0.86,1.29,0.86,1.29l-5.73,1.3
		C412.99,285.23,413.41,284.81,413.92,284.53z"/>
	<path id="Path_1052" fill="#117C6F" d="M410.11,307.3c8.72-6.31,8.96-14.91,8.96-14.91c-4.15,2.34-7.45,5.68-8.74,9.93
		c-0.1,1.19-0.17,2.22-0.21,2.94C410.11,305.57,410.11,306.29,410.11,307.3z"/>
	<rect id="Rectangle_295" x="394.63" y="281.33" fill="#093830" width="1.45" height="64.51"/>
	<path id="Path_1053" fill="#ECF1F9" d="M399.39,283.62h4.65v6.18c0,1.27-1.03,2.29-2.29,2.29l0,0h-0.07
		c-1.27,0-2.29-1.03-2.29-2.29l0,0L399.39,283.62L399.39,283.62z"/>
	<path id="Path_1054" fill="#117C6F" d="M399.76,288.34h3.9v1.4c0,1.06-0.86,1.93-1.93,1.93l0,0h-0.06c-1.06,0-1.93-0.86-1.93-1.93
		c0,0,0,0,0,0L399.76,288.34L399.76,288.34z"/>
	<rect id="Rectangle_296" x="394.63" y="281.33" fill="#093830" width="10.41" height="1.16"/>
	<rect id="Rectangle_297" x="401.36" y="282.49" fill="#FFFFFF" width="0.8" height="1.4"/>
	<path id="Path_1055" fill="#FFFFFF" stroke="#000000" stroke-width="0.3" stroke-miterlimit="10" d="M397.34,302.39
		c-0.07-0.11-0.16-0.19-0.27-0.25c-0.24-0.23-0.45-0.49-0.63-0.76c-0.17-0.4-0.4-0.17-0.34,0.21c0.02,0.08,0.12,0.26,0.15,0.34
		c-0.78-0.03-1.56,0.08-2.3,0.33c0,0-0.83,0.2-0.07,0.69c0.5,0.33,0.81,0.22,1.53,0.67c0.61,0.45,1.43,0.51,2.1,0.15l0.69-0.17
		l0.05-1.21L397.34,302.39z"/>
	<path id="Path_1056" fill="#093830" d="M403.04,218.8c-1.66-6.13-12.01-4.22-12.01-4.22s-7.03,10.73-9.08,10.99
		c-2.05,0.26,4.22-10.35,4.22-10.35c-3.96-0.38-14.06,4.47-14.06,4.47s0.64,12.52-1.41,12.27c-2.05-0.25,0-11.12,0-11.12
		c-3.83,1.15-7.41,5.62-7.41,5.62c-4.47,7.28,5.11,12.65,5.11,12.65c-0.09,3.27-0.97,6.47-2.56,9.33l0,0
		c-0.48,0.79-0.89,1.62-1.22,2.49h1.05c0.09-0.28,0.18-0.55,0.29-0.81l0,0v-0.01c0.07-0.17,0.17-0.39,0.3-0.67l0,0
		c0.32-0.63,0.53-1.09,0.67-1.42l0,0c0.96-1.96,2.34-4.52,3.26-5.06c-0.1-0.15-0.17-0.31-0.22-0.48c0.07,0.15,0.14,0.31,0.22,0.48
		c1.79,3.84,10.73,4.47,15.72,3.45c4.98-1.02,2.81-2.43,0.13-4.71c-2.68-2.28-8.31-1.68-9.97-2.57c-1.66-0.89,0.77-1.79,4.09-1.53
		s4.98,3.58,10.35,4.09c5.37,0.51,9.46-9.58,9.46-9.58c-3.71,1.15-10.35-0.9-10.61-2.17c-0.26-1.28,9.58-1.15,11.12-1.53
		C402.02,228.02,404.7,224.93,403.04,218.8z"/>
	<path id="Path_1057" fill="#093830" d="M274.19,321.84c-5.11-7.56,6.7-17.01,6.7-17.01s18.27,2.44,20.46,0.46
		c2.2-1.98-15.21-5.14-15.21-5.14c3.3-4.66,18.06-11.07,18.06-11.07s13.01,12.46,14.65,9.99c1.65-2.47-12.08-10.44-12.08-10.44
		c4.85-3.08,13.07-2.76,13.07-2.76c12.11,1.98,8.94,17.43,8.94,17.43c3.64,2.97,7.94,5.02,12.54,5.98l0,0
		c1.31,0.22,2.6,0.55,3.85,1.01l-0.98,1.14c-0.38-0.17-0.77-0.32-1.15-0.45h-0.02c-0.24-0.07-0.59-0.18-1.01-0.3l0,0
		c-0.98-0.24-1.68-0.44-2.18-0.6l0,0c-3.03-0.8-7.1-1.71-8.55-1.21c-0.07-0.24-0.18-0.48-0.31-0.69l0.31,0.69
		c2.49,5.55-5.22,15.87-11.01,20.32c-5.79,4.45-5.28,0.77-5.23-4.28c0.04-5.06,5.97-10.6,6.55-13.25c0.58-2.65-2.66-0.84-5.51,3
		c-2.84,3.84-0.79,8.78-5.28,15.09c-4.48,6.31-19.3,1.27-19.3,1.27c4.73-2.95,8.75-12.08,7.6-13.56s-10.25,9.33-12.1,10.64
		C285.17,329.39,279.29,329.4,274.19,321.84z"/>
	<path id="Path_1058" fill="#093830" d="M253.87,302.41c0,0,4.85-5.47,4.97-7.93c0.12-2.46-1.14-3.34-1.14-3.34l-4.36,0.72
		l-2.74,1.98l1.08,7.06l2.2,2.4L253.87,302.41z"/>
	<path id="Path_1059" fill="#093830" d="M286.25,216.57c2.49-9.11,17.87-6.23,17.87-6.23s10.42,15.98,13.46,16.37
		c3.04,0.39-6.24-15.4-6.24-15.4c5.88-0.56,20.88,6.69,20.88,6.69s-0.98,18.61,2.06,18.24c3.04-0.37,0.03-16.53,0.03-16.53
		c5.7,1.72,11,8.38,11,8.38c6.62,10.84-7.64,18.78-7.64,18.78c0.13,4.86,1.42,9.62,3.77,13.88l0,0c0.72,1.17,1.32,2.41,1.81,3.7
		h-1.55c-0.13-0.42-0.27-0.82-0.42-1.21l0,0c0-0.01,0-0.01,0-0.02c-0.11-0.24-0.26-0.58-0.45-1.01l0,0
		c-0.48-0.93-0.79-1.62-0.99-2.11c-1.42-2.92-3.46-6.72-4.82-7.52c0.14-0.22,0.26-0.46,0.34-0.71c-0.11,0.22-0.22,0.46-0.34,0.71
		c-2.68,5.69-15.98,6.61-23.38,5.08c-7.39-1.53-4.17-3.62-0.18-7c4-3.39,12.35-2.47,14.82-3.8s-1.13-2.66-6.07-2.29
		s-7.42,5.3-15.4,6.05c-7.98,0.75-14.03-14.27-14.03-14.27c5.51,1.72,15.39-1.3,15.77-3.19c0.38-1.89-14.25-1.74-16.53-2.32
		C287.74,230.25,283.76,225.69,286.25,216.57z"/>
	<path id="Path_1060" fill="#093830" d="M274.53,263.26c0.71-6.96,12.29-6.71,12.29-6.71s9.54,10.41,11.8,10.32
		s-6.42-10.49-6.42-10.49c4.23-1.12,16.06,2.35,16.06,2.35s1.53,13.71,3.7,13.07c2.17-0.64-1.97-12.07-1.97-12.07
		c4.37,0.57,9.05,4.79,9.05,4.79c6.15,7.12-3.31,14.64-3.31,14.64c0.68,3.53,2.2,6.85,4.43,9.68l0,0c0.67,0.77,1.26,1.6,1.77,2.48
		l-1.14,0.18c-0.14-0.29-0.29-0.57-0.45-0.83l0,0v-0.01c-0.11-0.17-0.26-0.39-0.45-0.67l0,0c-0.46-0.62-0.77-1.09-0.98-1.43l0,0
		c-1.39-1.96-3.34-4.49-4.43-4.91c0.08-0.18,0.13-0.37,0.16-0.56l-0.16,0.56c-1.26,4.48-10.86,6.76-16.46,6.54
		c-5.59-0.23-3.48-2.14-0.97-5.09c2.51-2.95,8.72-3.3,10.37-4.57c1.65-1.27-1.15-1.81-4.71-0.94c-3.56,0.87-4.78,4.77-10.51,6.28
		c-5.74,1.51-11.97-8.73-11.97-8.73c4.23,0.59,11.08-2.81,11.13-4.24c0.05-1.43-10.61,0.45-12.34,0.31
		C277.28,273.07,273.81,270.22,274.53,263.26z"/>
	<path id="Path_1061" fill="#DFEBFA" d="M375.85,258.13c-6.68-5.28-16.29,5.04-16.29,5.04s0.99,17.16-1.01,19.06
		s-3.71-14.5-3.71-14.5c-4.57,2.74-11.57,16.02-11.57,16.02s10.67,12.97,8.27,14.33s-8.86-11.97-8.86-11.97
		c-3.21,4.29-3.5,11.96-3.5,11.96c0.99,11.41,15.59,9.55,15.59,9.55c2.51,3.59,4.12,7.74,4.68,12.08l0,0
		c0.11,1.23,0.34,2.46,0.67,3.65l1.12-0.84c-0.13-0.37-0.24-0.74-0.34-1.1l0,0c0-0.01,0-0.01,0-0.02c-0.05-0.23-0.12-0.56-0.21-0.96
		l0,0c-0.16-0.93-0.29-1.6-0.41-2.06l0,0c-0.53-2.87-1.09-6.72-0.53-8.04c-0.22-0.08-0.43-0.2-0.62-0.34l0.62,0.34
		c4.98,2.7,15.13-3.74,19.67-8.81c4.55-5.07,1.09-4.85-3.62-5.17c-4.71-0.32-10.28,4.81-12.78,5.17s-0.6-2.54,3.18-4.91
		c3.78-2.37,8.22-0.12,14.4-3.85c6.19-3.73,2.54-17.86,2.54-17.86c-3.07,4.2-11.86,7.29-13.15,6.12s9.41-8.88,10.75-10.51
		C382.1,268.87,382.53,263.41,375.85,258.13z"/>
	<path id="Path_1062" fill="#E98C94" d="M253.13,301.72c-0.4-1.31-1.79-2.05-3.1-1.64c-0.57,0.17-1.05,0.55-1.37,1.05
		c-0.21,0.34-0.33,0.73-0.34,1.13c-0.06,2.37,4.61,11.55,5.23,12.36c1.13,1.48,7.95,5.03,7.95,5.03l1.45-0.21
		c-0.6-0.4-1.16-0.85-1.67-1.36c-1.75-1.75-4.31-4.59-4.77-4.99C255.72,312.41,254.33,305.56,253.13,301.72z"/>
	<path id="Path_1063" fill="#093830" d="M255.11,290.12c-1.21,0.47-2.37,1.04-3.48,1.7c-1.57,1.74-1.12,4.01-0.22,4.03
		c0.58,0.01,0.46,0.97,0.46,0.97l6.42-2.71C258.29,294.11,257.51,289.61,255.11,290.12z"/>
	<path id="Path_1064" fill="#117C6F" d="M248.06,344.51l-1.39-0.21c-3.06-2.75-4.97-6.54-5.36-10.63c-0.07-0.71-0.08-1.43-0.03-2.14
		c0.01-0.08-0.01-0.17-0.05-0.24l0,0c-0.15-0.23-0.52-0.8-1.03-1.62c-0.5-0.81-1.34-2.32-2.28-4.03c-1.68-3.07-3.64-6.75-4.31-7.92
		c-2.14-3.73-1.11-6.24-1.11-6.24s5.97-0.59,7.61-2.02l0.59,0.91c0,0,1.29,5.73,1.24,5.76c0.06,0.19,0.13,0.39,0.19,0.6
		c1.13,3.38,2.08,6.82,2.84,10.3c0.34,1.46,0.5,2.95,0.45,4.45c-0.02,0.55,0.01,1.09,0.11,1.63
		C246.09,337.24,248.06,344.51,248.06,344.51z"/>
	<path id="Path_1065" fill="#093830" d="M250.97,346.27h-5.79c-0.08-0.52-0.02-1.06,0.17-1.55c0.29-0.64,0.7-0.67,0.05-1.67
		c0.72,0.42,1.57,0.57,2.39,0.42c0.27,0.55,0.61,1.06,1.01,1.53C249.17,345.27,250.85,345.17,250.97,346.27z"/>
	<path id="Path_1066" fill="#117C6F" d="M238.06,311.93l0.02-1.08c-2.16,0.27-7.44-2.58-7.44-2.58s-2.26,1.5-2.57,5.79
		c-0.15,2.09-1.11,10.95-1.21,13.59c-0.04,0.96-0.05,1.64-0.06,1.92l0,0c-0.01,0.08-0.04,0.16-0.1,0.22
		c-0.44,0.56-0.84,1.16-1.18,1.79c-3.29,6.13-1.57,14.45-1.57,14.45l0.76-0.19c0,0,2.78-8.63,4.61-12.37
		c0.22-0.5,0.5-0.97,0.82-1.41c0.88-1.21,1.59-2.54,2.12-3.94c1.39-3.51,2.58-7.09,3.58-10.73
		C235.93,317.4,238.06,311.93,238.06,311.93z"/>
	<path id="Path_1067" fill="#FFFFFF" stroke="#000000" stroke-width="0.3" stroke-miterlimit="10" d="M250.69,304.7
		c-3.53-0.81-1.27-5.77-1.07-5.68c0.49-0.1,1.56-0.96,2.52-2.63l0.13,0.11l2.17,1.9c0,0-0.5,0.74-0.92,1.46
		c-0.29,0.39-0.48,0.84-0.57,1.32C253.13,301.32,251.63,304.91,250.69,304.7z"/>
	<path id="Path_1068" fill="#117C6F" d="M254.24,305.29l1.82,6.15c0.15,0.52,0.42,0.99,0.78,1.4l2.8,3.14l-0.99,2.35l-3.88-2.45
		c-0.61-0.38-1.11-0.91-1.47-1.53l-3.27-5.71"/>
	<path id="Path_1069" fill="#117C6F" d="M252.92,301.01c0.37,0.74,0.69,1.5,0.95,2.28c0.34,1.06,1.16,4.43,1.16,4.43
		c-0.26,1.47-1.66,2.45-3.13,2.2c-1.47-0.26-2.45-1.66-2.2-3.13c0.07-0.37,0.21-0.72,0.42-1.04
		C250.57,303.96,252.92,301.01,252.92,301.01z"/>
	<path id="Path_1070" fill="#FFFFFF" stroke="#000000" stroke-width="0.3" stroke-miterlimit="10" d="M254.5,299.35
		c0,0-3.27-1.82-2.11-3.84s1.52-3.62,3.67-2.54c2.14,1.08,2.09,2.08,1.87,2.85S255.38,299.77,254.5,299.35z"/>
	<path id="Path_1071" fill="#093830" d="M258.49,294.64c-0.15-0.9-0.61-0.98-0.92-0.92c-0.61-1.14-1.97-1.65-3.18-1.22
		c-0.65,0.8-1.57,1.35-2.58,1.55c0.48,0.61,1.17,1.02,1.94,1.14c0.52,0.11,1.05,0.07,1.54-0.12c-0.7,0.38-1.45,0.66-2.22,0.84
		c2.06,0.19,4.02-1.7,4.23-1.9c0.16,0.43,0.22,0.89,0.17,1.34c-0.14,0.61-0.67,1.71-0.35,1.85
		C257.11,297.21,258.71,295.98,258.49,294.64z"/>
	<path id="Path_1072" fill="#093830" d="M228.58,346.27h-5.79c-0.07-0.52-0.02-1.06,0.17-1.55c0.29-0.64,0.74-0.93,0.64-1.71
		c0.45,0.51,1.13,0.77,1.81,0.69c0.28,0.48,0.62,0.92,1.01,1.3C226.77,345.27,228.46,345.17,228.58,346.27z"/>
	<path id="Path_1073" fill="#289C8E" d="M251.11,308.63c-0.93,0.27-1.89,0.44-2.85,0.52c-1.32,0.07-2.64,0.27-3.92,0.61
		c-0.39,0.16-0.76,0.36-1.1,0.6l0,0l-0.03,0.02c-0.16,0.12-0.31,0.25-0.45,0.39c-0.23,0.23-0.41,0.49-0.53,0.79
		c-0.3,0.75,0.1,2.82,0.35,3.95c0.1,0.46-0.11,0.93-0.53,1.14c-0.58,0.3-1.15,0.58-1.71,0.83l-0.09,0.04c0-0.11,0.01-0.23,0.01-0.34
		c0-0.48-0.03-0.95-0.1-1.43c-0.21,0.84-0.6,1.62-1.14,2.29c-7.77,3.12-13.2,1.76-13.11,0.21c0.31-5.39,3.94-9.98,3.94-9.98
		c6.79-7.89,20.5-9.97,20.5-9.97s0.66-0.08,1.45,0.87c1.14,1.37,1.2,1.73,1.2,1.73S253.3,307.86,251.11,308.63z"/>
	<path id="Path_1074" fill="#117C6F" d="M248.25,309.15c-1.32,0.07-2.64,0.27-3.92,0.61c-0.18-3.07,0.53-6.13,2.04-8.81
		C246.36,300.94,247.91,307.24,248.25,309.15z"/>
	<path id="Path_1075" fill="#D0EEEB" d="M250.35,298.3c0,0,0.6-0.76,1.01-0.73c0,0,1.63,2.28,1.65,3.34
		C253,300.9,250.96,298.19,250.35,298.3z"/>
	<path id="Path_1076" fill="#ED985F" d="M266.02,320.43c0,0-0.87,0.02-1.06-0.01c-0.22-0.05-0.45-0.09-0.67-0.11
		c-0.24,0.01-0.47,0.05-0.7,0.12c-0.03,0.01-0.07,0.01-0.1,0.01h-1.45c-0.13-0.08-0.23-0.19-0.3-0.32
		c-0.07-0.11-0.08-0.37-0.23-0.46c-0.87-0.49,1.45-0.21,1.45-0.21c0.53-0.02,1.06,0,1.59,0.07
		C265.06,319.78,265.55,320.09,266.02,320.43z"/>
	<path id="Path_1077" fill="#ED985F" d="M262.05,320.43c0.39,0.11,0.76,0.25,1.12,0.42l0.25,0.17c0,0,0.15-0.17-0.08-0.35
		c-0.24-0.16-0.41-0.41-0.47-0.7C262.86,319.65,261.86,319.92,262.05,320.43z"/>
	<path id="Path_1078" fill="#ECF1F9" d="M275.79,344.96L275.79,344.96c-2.08,0-3.77-1.69-3.77-3.77v-23.81h7.54v23.81
		C279.56,343.27,277.87,344.96,275.79,344.96L275.79,344.96z"/>
	<path id="Path_1079" fill="#0D5E52" d="M275.79,343.87L275.79,343.87c-1.55,0-2.8-1.25-2.8-2.8c0,0,0,0,0,0v-8.47h5.6v8.47
		C278.6,342.61,277.34,343.87,275.79,343.87C275.8,343.87,275.8,343.87,275.79,343.87z"/>
	<path id="Path_1080" fill="#ECF1F9" d="M283.28,317.38h7.54v23.87c0,2.05-1.66,3.72-3.72,3.72H287c-2.05,0-3.72-1.66-3.72-3.72
		L283.28,317.38L283.28,317.38z"/>
	<path id="Path_1081" fill="#0D5E52" d="M284.25,330.25h5.6v10.86c0,1.52-1.24,2.76-2.76,2.76h0h-0.08c-1.52,0-2.76-1.24-2.76-2.76
		v0L284.25,330.25L284.25,330.25z"/>
	<path id="Path_1082" fill="#ECF1F9" d="M258.9,327.42L258.9,327.42c-1.92-0.81-2.82-3.02-2.01-4.94l9.26-21.94l6.95,2.93
		l-9.26,21.94C263.03,327.32,260.82,328.22,258.9,327.42z"/>
	<path id="Path_1083" fill="#0D5E52" d="M259.6,326.52l-0.53-0.22c-1.28-0.54-1.88-2.01-1.34-3.29l6.69-15.83l6.02,0.14l-7.53,17.87
		C262.34,326.46,260.87,327.06,259.6,326.52z"/>
	<path id="Path_1084" fill="#FFFFFF" stroke="#000000" stroke-width="0.3" stroke-miterlimit="10" d="M256.13,320.33
		c0,0,1.01,2.59,3.18,3.37c0.47,0.17,1.03,1.5,1.11,1.69c0.09,0.2-0.46-0.09-0.67-0.42c-0.21-0.34-0.37-0.47-0.43-0.39
		c-0.02,0.53,0.12,1.05,0.4,1.5c0.36,0.51,0.58,0.96,0.32,0.93s-1.82-0.41-2.14-1.35c-0.82-1.64-1.79-3.19-2.89-4.65
		C254.27,320.03,256.13,320.33,256.13,320.33z"/>
	<path id="Path_1085" fill="#289C8E" d="M251.8,304.71c0,0,0.39-6.39-4.5-4.85c-4.9,1.53,0.76,12.55,0.76,12.55
		c1.68-0.11,3.17-1.13,3.89-2.65L251.8,304.71z"/>
	<rect id="Rectangle_298" x="259.73" y="341.71" fill="#D4E4F8" width="34.22" height="1.06"/>
	<rect id="Rectangle_299" x="259.73" y="342.51" fill="#D4E4F8" width="1.6" height="3.41"/>
	<rect id="Rectangle_300" x="292.13" y="341.71" fill="#D4E4F8" width="1.82" height="4.2"/>
	<path id="Path_1086" fill="#ECF1F9" d="M320.16,229.56h53.37c6.31,0,11.43,5.12,11.43,11.43v68.2c0,6.31-5.12,11.43-11.43,11.43
		h-53.37c-6.31,0-11.43-5.12-11.43-11.43v-68.2C308.73,234.67,313.85,229.56,320.16,229.56z"/>
	<rect id="Rectangle_301" x="338.76" y="223.58" fill="#ECF1F9" width="16.16" height="8.26"/>
	<path id="Rectangle_302" fill="#FFFFFF" d="M346.84,314.43L346.84,314.43c2.77,0,5.02,2.25,5.02,5.02v4.16
		c0,2.77-2.25,5.02-5.02,5.02h0c-2.77,0-5.02-2.25-5.02-5.02v-4.16C341.82,316.68,344.07,314.43,346.84,314.43z"/>
	<path id="Path_1087" fill="#117C6F" d="M382.4,238.21v73.43c0,3.52-2.85,6.37-6.37,6.37l0,0h-25.04c-0.7,0-1.26,0.57-1.26,1.26
		v4.76c0,1.51-1.23,2.74-2.74,2.74h-0.29c-1.51,0-2.74-1.23-2.74-2.74c0,0,0,0,0,0v-4.55c0-0.81-0.66-1.47-1.47-1.47c0,0,0,0,0,0
		h-24.82c-3.52,0-6.37-2.86-6.37-6.37v-73.43c0-3.52,2.85-6.37,6.37-6.37l0,0h58.36C379.55,231.84,382.4,234.7,382.4,238.21z"/>
	<path id="Path_1088" fill="#093830" d="M382.4,238.21v73.43c0,3.52-2.85,6.37-6.37,6.37l0,0h-25.04c-0.7,0-1.26,0.57-1.26,1.26
		v4.76c0,1.51-1.23,2.74-2.74,2.74h-0.29c-1.51,0-2.74-1.23-2.74-2.74c0,0,0,0,0,0v-4.55c0-0.81-0.66-1.47-1.47-1.47c0,0,0,0,0,0
		h-24.82c-3.52,0-6.37-2.86-6.37-6.37v-9.31C311.29,302.33,360.7,281.76,382.4,238.21z"/>
	<path id="Path_1089" fill="#ECF1F9" d="M347.1,296.48c-12.58,0-22.77-10.2-22.77-22.78c0-12.58,10.2-22.77,22.78-22.77
		c12.58,0,22.77,10.2,22.77,22.78c0,6.04-2.4,11.83-6.67,16.1C358.93,294.08,353.14,296.48,347.1,296.48z M347.1,253.02
		c-11.42,0-20.67,9.26-20.66,20.68c0,11.42,9.26,20.67,20.68,20.66c11.42,0,20.67-9.26,20.66-20.68c0-5.48-2.18-10.74-6.06-14.61
		C357.84,255.2,352.58,253.02,347.1,253.02L347.1,253.02z"/>
	<path id="Path_1090" fill="#ECF1F9" d="M361.81,269.99h-11v-11h-7.43v11h-11v7.43h11v11h7.43v-11h11V269.99z"/>
	<path id="Rectangle_303" fill="#093830" d="M193.15,345.83h264.76c0.22,0,0.41,0.18,0.41,0.41l0,0c0,0.22-0.18,0.41-0.41,0.41
		H193.15c-0.22,0-0.41-0.18-0.41-0.41l0,0C192.74,346.01,192.92,345.83,193.15,345.83z"/>
	<path id="Path_1091" fill="#2C2C2C" d="M305.34,346.68h4.26c-0.07-0.52-0.18-1.03-0.34-1.53c-0.07-0.21-0.15-0.42-0.24-0.61
		c-0.41-0.82-3.04-0.3-3.04-0.3c-0.23,0.29-0.38,0.64-0.43,1.01C305.43,345.72,305.37,346.2,305.34,346.68L305.34,346.68z"/>
	<path id="Path_1092" fill="#289C8E" d="M313.16,281.67c0,0,3.39,0.59,4.16,2.6c0.77,2,5.1,34.34,5.1,34.34s-2.14,1.7-6.75,1.09
		C311.06,319.08,313.16,281.67,313.16,281.67z"/>
	<path id="Path_1093" fill="#2C2C2C" d="M318.2,345.34c-0.04,0.47,0.06,0.94,0.29,1.34h8.43c-0.21-0.52-0.71-0.88-1.27-0.9
		c-1.27-0.18-2.45-0.72-3.41-1.58c-0.32-0.33-0.55-0.74-0.66-1.2c-0.4-1.76-3.28,0.54-3.28,0.54
		C318.24,344.15,318.2,344.74,318.2,345.34z"/>
	<path id="Path_1094" fill="#0D5E52" d="M321.83,344.48c-0.94,0.3-2.74,1.22-3.88,0.78c-0.74-0.28-4.87-12.21-5.13-17.43
		c-0.04-0.52-0.11-1.04-0.21-1.55c-0.24-1.34-0.67-3.19-1.16-5.24c-1.32-5.48-3.11-12.32-3.07-14.51c0.06-3.4,10.13-0.71,10.13-0.71
		c0.49,2.24,0.77,4.53,0.83,6.82c0.27,8.01,1.02,21.54,3.07,30.93C322.47,343.98,322.22,344.37,321.83,344.48z"/>
	<path id="Path_1095" fill="#0D5E52" d="M314.84,306.53l-5.32,38.56c-1.36,0.32-2.78,0.36-4.15,0.11c0,0-1.56-20.5-1.43-25.47
		s-1.12-13.28,0.29-14.18C305.63,304.65,314.84,306.53,314.84,306.53z"/>
	<path id="Path_1096" fill="#ECF1F9" d="M303.56,283.44c0,0,5.59-3.62,9.6-1.77c0.72,0.45,1.36,1.03,1.89,1.69
		c1.45,1.6,4.28,26.97,4.28,26.97s-8.04,2.72-15.77-0.92L303.56,283.44z"/>
	<path id="Path_1097" fill="#289C8E" d="M313.48,281.58c0,0,5.66,2.32,6.43,4.1c1.39,4.59,2.48,9.27,3.26,14.01
		c0,1.28-4.34,0.29-5.04-1.78c-0.58-1.72-2.54-7-3.57-10.34L313.48,281.58z"/>
	<path id="Path_1098" fill="#FFFFFF" stroke="#000000" stroke-width="0.3" stroke-miterlimit="10" d="M312.3,283.35
		c-1.52,0.24-3.07-0.07-4.38-0.89c0.46-1.05,0.77-2.16,0.93-3.3c0-0.04,0-0.08,0.01-0.11c0.03-0.25,0.04-0.5,0.02-0.76h3.19
		c0,0,0.87,0.4,0.87,0.67v0.42c0.01,0.37,0.02,0.69,0.04,0.96c0.02,0.44,0.08,0.88,0.17,1.32
		C313.16,281.67,313.54,283.1,312.3,283.35z"/>
	<path id="Path_1099" fill="#FFFFFF" stroke="#000000" stroke-width="0.3" stroke-miterlimit="10" d="M308.06,277.77
		c0.43,2.33,3.43,2.25,4.73,2.1c0.36-0.04,0.59-0.09,0.59-0.09c0.41-0.11,0.64-0.76,0.75-1.61c0.18-1.6,0.06-3.22-0.34-4.78
		c-0.43-0.95-1.24-1.98-4.26-1.24C306.52,272.9,307.51,274.78,308.06,277.77z"/>
	<path id="Path_1100" fill="#0D5E52" d="M313.91,272.09c-0.58-0.7-1.29-1.27-2.09-1.7c-1.25-0.51-2.66-0.5-3.91,0.03
		c-2.47,1.09-3.12,2.98-1.81,5.92c1.39,3.11,2.7,2.76,2.7,2.76s-0.28-0.17-0.25-1.14v-0.14c0.02-0.2-0.06-0.39-0.21-0.53
		c-0.31-0.27-0.46-1.1-0.2-1.33c0.31-0.28,0.75,0.06,0.89,0.32c0.11,0.18,0.34,0.24,0.52,0.13c0.01,0,0.01-0.01,0.02-0.01
		c0.77-0.49,0.27-1.46,1.01-2.05c0.74-0.6,2.23-0.1,3.33-0.57C315.36,273.24,314.22,272.53,313.91,272.09z"/>
	<path id="Path_1101" fill="#289C8E" d="M314.26,320.99c-0.49,0.13-0.97,0.23-1.45,0.31c-0.42,0.07-0.84,0.12-1.27,0.17
		c-2.57,0.17-5.15-0.15-7.61-0.93c-0.63-0.18-1.29-0.39-1.96-0.62c-0.07-0.02,0.18-7.45,0.48-15.13c0.03-0.79,0.06-1.59,0.1-2.37
		l0.04-1c0.27-6.78,0.53-12.9,0.59-13.23c0.13-0.74,0.25-1.38,0.38-1.93c0.17-1.29,0.86-2.46,1.89-3.24
		c0.1-0.08,0.93-0.49,1.66-0.86c0.61-0.3,1.14-0.56,1.14-0.56l0,0c0.4,0.4,0.69,0.9,0.84,1.45c0.62,1.72,1.14,3.47,1.57,5.25l0,0
		c0.27,1.06,0.46,1.88,0.52,2.11c0.1,0.4,0.22,1.18,0.36,2.21c0.2,1.42,0.43,3.35,0.67,5.55c0.03,0.23,0.05,0.45,0.08,0.68
		c0.03,0.26,0.06,0.53,0.09,0.8c0.01,0.09,0.02,0.17,0.03,0.26c0.1,0.87,0.19,1.76,0.29,2.67c0.08,0.75,1.22,1.3,1.3,2.06
		c0.05,0.45,0.14,4.59,0.26,5.92C314.35,311.49,314.29,320.54,314.26,320.99z"/>
	<path id="Path_1102" fill="#0D5E52" d="M306,290.92c0,0.02-0.19,6.85,4.95,7.68c5.14,0.83,1.73,1.05,1.73,1.05
		s-9.68-0.41-9.84-0.67C302.68,298.72,306,290.92,306,290.92z"/>
	<path id="Path_1103" fill="#0D5E52" d="M310.35,301.54c0,0-0.1,0.07-0.29,0.19h-0.01c-2.02,1.24-4.21,2.18-6.5,2.79
		c-0.36,0.1-0.72,0.19-1.1,0.27c0.03-0.79,0.06-1.59,0.1-2.37c-0.43-0.03-0.85-0.09-1.27-0.17l0.04-0.31
		c0.43-0.18,0.86-0.35,1.27-0.5c0.34-0.13,0.67-0.26,0.97-0.37c1.39-0.53,2.43-0.89,2.43-0.89l4.12,1.31L310.35,301.54z"/>
	<path id="Path_1104" fill="#289C8E" d="M311.44,301.42c0,0-0.53,0.13-1.37,0.3h-0.01c-2.14,0.45-4.32,0.7-6.5,0.73
		c-0.34,0-0.68-0.02-1.01-0.04c-0.43-0.03-0.85-0.09-1.27-0.17c-0.76-0.12-1.47-0.45-2.04-0.96c-3.47-3.54,1.9-16.24,3.03-17.48
		c1.32-1.44,3.72-1.95,5.05-2.12l0.17-0.02c0.47-0.06,0.77-0.07,0.78-0.07l0,0c0,0-0.1,0.34-0.28,0.9
		c-0.07,0.22-0.15,0.48-0.23,0.76c-0.82,2.67-2.39,7.92-3.09,10.89c-0.2,0.68-0.32,1.38-0.34,2.09c0.27,1.01,3.08,1.53,4.85,1.76
		c0.74,0.1,1.31,0.14,1.43,0.15h0.02l0.1,0.42l0.25,1.01l0.24,0.99L311.44,301.42z"/>
	<path id="Path_1105" fill="#0D5E52" d="M321.13,307.51l-11.93-0.5l2.42-14.87l11.93,0.5L321.13,307.51z"/>
	<path id="Path_1106" fill="#FFFFFF" stroke="#000000" stroke-width="0.3" stroke-miterlimit="10" d="M310.64,298.14
		c0,0,2.32-0.17,2.44,0.38c0.27,1.26-2,2.3-2.73,2.23C309.61,300.68,310.1,298.06,310.64,298.14z"/>
	<path id="Path_1107" fill="#FFFFFF" stroke="#000000" stroke-width="0.3" stroke-miterlimit="10" d="M322.9,295.66
		c0,0-2.22-0.69-2.46-0.19c-0.56,1.16,1.41,2.7,2.14,2.8C323.31,298.37,323.44,295.7,322.9,295.66z"/>
	<path id="Path_1108" fill="#D0EEEB" d="M308.49,280.84c-0.62,0.11-1.18,0.42-1.59,0.89c0,0,3.78,6.62,3.76,6.55
		C310.65,288.23,309.43,281.66,308.49,280.84z"/>
	<path id="Path_1109" fill="#D0EEEB" d="M313.04,280.93c0.46,0.26,0.83,0.64,1.08,1.1l0.43,5.54c0,0-0.93-4.06-1.4-5.9
		C313.09,281.43,313.05,281.18,313.04,280.93z"/>
	<path id="Path_1110" fill="#093830" d="M315.57,292.31c0.08-0.27,0.36-0.43,0.64-0.36c0.54,0.05,3.59,0.2,3.59,0.2
		s0.59-0.01,0.53,0.37L315.57,292.31z"/>
	<path id="Path_1111" fill="#289C8E" d="M246.27,307.18l2.88,8.4c0.14,0.41,0.36,0.79,0.65,1.11l6.11,6.77
		c0.51-0.9,1.38-1.55,2.38-1.8l-4.51-6.72c-0.17-0.25-0.31-0.51-0.42-0.78c-1.11-2.56-1.48-5.38-1.08-8.14"/>
	<path id="Path_1112" fill="#093830" d="M253.43,294.35c0,0-2.93,3.58-0.9,6.36s0.99-0.84,0.99-0.84s2.65,5.82-0.18,6.61
		c-2.83,0.79,0.78-7.6-4.38-7.08c-8.55,0.87,1.68-11.14,6.91-9.26c5.23,1.88,2.16,6.54,1.25,7.08s1.08-1.82,1.08-1.82l-0.16-1.18
		l-0.5-1.19l-1.08-0.41l-2,1.08l-1.1,1.08l-2.52,3.4"/>
	<path id="Path_1113" fill="none" stroke="#FFFFFF" stroke-width="4" stroke-miterlimit="10" d="M346.69,326.78v6.81
		c0,2.39,1.94,4.33,4.33,4.34h46.4c2.39,0,4.33-1.94,4.33-4.33c0,0,0,0,0,0V292.1"/>
	<path id="Path_1114" fill="#289C8E" d="M416.67,287.63c0,0,8.5,3.53-5.61,13.95c-2.26,1.67-13.13,2.47-13.13,2.47
		s-0.39-1.25,0.26-1.85c0,0,8.59-3.72,9.46-3.63c0.77,0.08,4.29-7.73,5.77-9.32C414.26,288.33,415.42,287.75,416.67,287.63z"/>
	<path id="Path_1115" fill="none" stroke="#117C6F" stroke-miterlimit="10" d="M346.69,326.78v6.81c0,2.39,1.94,4.33,4.33,4.34h46.4
		c2.39,0,4.33-1.94,4.33-4.33c0,0,0,0,0,0V292.1"/>
</g>
<line id="Line_29" fill="none" stroke="#0E655B" stroke-width="2" stroke-linecap="round" x1="12.25" y1="158.31" x2="388.08" y2="158.31"/>
</svg>
