<?xml version="1.0" encoding="utf-8"?>
<!-- Generator: Adobe Illustrator 23.0.3, SVG Export Plug-In . SVG Version: 6.00 Build 0)  -->
<svg version="1.1" id="Layer_1" xmlns="http://www.w3.org/2000/svg" xmlns:xlink="http://www.w3.org/1999/xlink" x="0px" y="0px"
	 viewBox="0 0 714 590" enable-background="new 0 0 714 590" xml:space="preserve">
<g id="_45876-01" transform="translate(-62.65 -226)">
	<path id="Path_691" fill="#E0F1EF" d="M188.09,811.84c0,0-117.92-30.83-103.23-206.32s191.71-100.89,296.51-207.15
		S484.7,196.04,643.12,268.39s17.12,256.03,32.94,296.44c15.82,40.41,100.59,90.99,96.07,144.26
		c-4.52,53.27-40.69,97.02-64.42,102.85l-519.6-0.08L188.09,811.84z"/>
	<path id="Path_692" fill="#FFFFFF" d="M612.84,338.8c1.49,4.93,1.74,10.15,0.72,15.2c8.24-16.95,14.22-27.82,14.38-28.11
		c0.15-0.26,0.48-0.36,0.75-0.22c0.26,0.15,0.36,0.49,0.22,0.75c-0.18,0.33-7.7,13.97-17.52,34.62c-0.11,0.26-0.2,0.42-0.21,0.46
		l-0.02,0.03c-5.06,10.67-10.71,23.18-16.27,36.67c4.52-6.48,13.09-17.67,19.87-20.64l2.33-1.02c4.02-1.75,9.59-4.19,14.66-6.54
		c11.87-24.49,28.15-53.67,11.32-66.72c-15.37-11.92-26.24,6.12-33.34,24.23C610.58,330.98,611.61,334.88,612.84,338.8z"/>
	<path id="Path_693" fill="#FFFFFF" d="M631,371.63c-4.12,1.88-8.76,3.94-13.43,5.98l-2.33,1.02c-8.72,3.82-21.05,22.61-22.41,24.72
		c-9.3,23.09-18.09,48.67-23.15,72.67c-0.06,0.26-0.29,0.45-0.55,0.45h-0.12c-0.31-0.06-0.5-0.36-0.44-0.67c0,0,0,0,0,0
		c5.05-23.98,13.82-49.51,23.1-72.57c0-0.1,0.03-0.2,0.09-0.28c0-0.03,0.04-0.06,0.07-0.12c6.28-15.57,12.78-30.02,18.51-42.08
		c2.92-6.82,3.43-14.44,1.43-21.59c-1.06-3.36-1.97-6.7-2.72-9.75c-4.1,10.82-6.85,21.3-8.41,25.03
		c-4.27,10.17-14.38,14.69-33.59,29.73c-19.21,15.03-10.17,72.39-10.17,72.39l-2.12,2.32c0,0,17.38,65.09,55.2,58.77
		c37.82-6.32,14.17-95.43,11.95-117.47C621.2,393.26,625.52,383,631,371.63z"/>
	<path id="Path_694" fill="#FFFFFF" d="M212.15,677.31c-19.19-37.25-36.7-66.03-36.88-66.31c-0.16-0.27-0.07-0.61,0.19-0.77
		c0,0,0,0,0.01,0c0.27-0.16,0.61-0.07,0.78,0.2c0.17,0.29,17.71,29.1,36.92,66.38c15.12,29.35,33.94,69.25,44.14,103.58
		l15.59-101.66c0,0-41.21-53.44-48.15-74.31c-6.94-20.86-69.56-20.35-69.56-20.35c8.89,23.26-12.58,70.57-12.58,70.57l7.08,22.2
		h-14.75c-8.85,26.28,5.06,62.73,5.06,62.73l15.19,9l-12.61,3.82c7.86,50.42,110.2,57.42,110.2,57.42l4.11-26.8
		C246.89,748.25,227.59,707.29,212.15,677.31z M216.7,709.01c-0.11,0.15-0.28,0.24-0.46,0.24c-0.12,0-0.23-0.03-0.32-0.1
		c-15.34-10.73-33.41-13.82-45.87-14.51c-7.88-0.48-15.8-0.12-23.6,1.07c-0.31,0.05-0.6-0.17-0.65-0.49
		c-0.04-0.3,0.15-0.58,0.45-0.64c7.9-1.2,15.9-1.57,23.87-1.09c12.61,0.7,30.89,3.83,46.45,14.72c0.26,0.18,0.33,0.53,0.15,0.79
		C216.71,709,216.71,709.01,216.7,709.01L216.7,709.01z"/>
	<path id="Path_695" fill="#FFFFFF" d="M705,704.22l-3.69,0.35c-39.61,3.66-54.19,10.14-59.53,14.08l-68.12,78.25
		c-0.21,0.24-0.57,0.26-0.8,0.05c-0.24-0.21-0.26-0.57-0.05-0.8l64.88-74.53c0.7-1.62,1.88-2.98,3.39-3.9l9.42-10.83
		c1.54-1.77,2.53-20.67-0.75-35.66c-0.48-2.29-0.68-4.62-0.59-6.96c-1.95,1.16-3.98,2.29-6.08,3.39
		c-24.7,12.72-31.81-9.24-43.21-5.94c-11.4,3.31-33.78,47.57-33.78,47.57s-41.44,85.49,5.82,100.11c0,0,100.08,12.9,113.35-24.32
		c6.54-18.34-14.03-29.66,1.68-51.28C693.88,724.54,699.93,714.64,705,704.22z"/>
	<path id="Path_696" fill="#FFFFFF" d="M701.48,650.09l-50.11,57.56l0,0l-6.99,8.02c7.5-4.04,23.36-9.14,56.82-12.23
		c1.48-0.14,2.93-0.28,4.33-0.41C713.65,684.98,716.74,664.93,701.48,650.09z"/>
	<path id="Path_697" fill="#FFFFFF" d="M650.87,671c2.6,11.87,2.68,27.32,1.47,33.81l48.32-55.5c-1.32-1.21-2.7-2.34-4.14-3.39
		c-13.15-9.55-25.83,5.32-46.16,17.66C650.2,666.07,650.37,668.56,650.87,671z"/>
	<path id="Path_698" fill="#117C6F" d="M608.48,588.38c-6.01,0.1-11.92-1.6-16.95-4.9c-16.73-11.12-19.28-37.3-7.58-77.85
		c9.14-31.66,24.87-65.2,36.43-87.78c3.01-5.99,8.43-10.42,14.91-12.17c5.44-1.51,11.27-0.59,15.98,2.51l9.17,6.1l-3.96,5.97
		l-9.18-6.1c-3.02-1.97-6.74-2.53-10.21-1.55c-4.5,1.24-8.26,4.33-10.34,8.51c-11.44,22.29-26.95,55.38-35.93,86.48
		c-5.01,17.35-7.33,31.98-6.9,43.47c0.48,12.75,4.37,21.64,11.57,26.43c7.2,4.79,16.9,4.94,28.84,0.45
		c10.77-4.05,23.36-11.85,37.42-23.18c25.21-20.3,49.73-47.41,65.87-66.57c3.05-3.54,4.46-8.2,3.86-12.84
		c-0.44-3.58-2.4-6.79-5.38-8.82l-8.03-5.34l3.96-5.96l8.03,5.34c4.69,3.14,7.79,8.16,8.51,13.76c0.89,6.65-1.1,13.36-5.46,18.46
		c-16.34,19.4-41.2,46.87-66.85,67.54C643.05,579,623.72,588.38,608.48,588.38z"/>
	<path id="Path_699" fill="#093830" d="M707.47,465.16l2.08,1.38c2.08,1.38,4.88,0.82,6.27-1.26c0,0,0,0,0,0l8.69-13.06
		c1.38-2.08,0.82-4.88-1.26-6.27c0,0,0,0,0,0l-2.09-1.38c-2.08-1.38-4.89-0.82-6.27,1.26c0,0,0,0,0,0l-8.69,13.06
		C704.83,460.97,705.39,463.77,707.47,465.16z"/>
	<path id="Path_700" fill="#093830" d="M654.87,430.18l2.09,1.38c2.08,1.38,4.88,0.82,6.27-1.26l8.69-13.06
		c1.37-2.08,0.8-4.88-1.26-6.27l-2.09-1.38c-2.08-1.38-4.89-0.82-6.27,1.26c0,0,0,0,0,0l-8.69,13.06
		C652.23,425.99,652.79,428.8,654.87,430.18C654.87,430.18,654.87,430.18,654.87,430.18z"/>
	<path id="Path_701" fill="#117C6F" d="M656.17,754.86c-2.41,0-4.37-1.95-4.37-4.36c0-1.32,0.59-2.57,1.62-3.4
		c0.22-0.18,22.18-18.31,22.44-42.26c0.16-14.28-7.42-28.04-22.53-40.89c-22.32-19.51-42.3-41.54-59.57-65.64
		c-1.29-2.04-0.68-4.73,1.36-6.02c1.91-1.21,4.43-0.75,5.8,1.04c0.25,0.35,25.07,35.9,58.05,63.96c17.2,14.64,25.81,30.68,25.6,47.7
		c-0.35,28.07-24.64,48.04-25.68,48.88C658.13,754.51,657.17,754.85,656.17,754.86z"/>
	<circle id="Ellipse_136" fill="#117C6F" cx="649.42" cy="779.48" r="32.45"/>
	<circle id="Ellipse_137" fill="#FFFFFF" cx="651.08" cy="782.14" r="22.62"/>
	<path id="Path_702" fill="#093830" d="M649.42,803.31c-12.77,0-23.12-10.35-23.12-23.12c0-12.77,10.35-23.12,23.12-23.12
		s23.12,10.35,23.12,23.12l0,0C672.54,792.96,662.19,803.31,649.42,803.31z M649.42,758.21c-12.15,0-21.99,9.85-21.99,21.99
		s9.85,21.99,21.99,21.99s21.99-9.85,21.99-21.99v0C671.42,768.05,661.57,758.2,649.42,758.21
		C649.42,758.2,649.42,758.2,649.42,758.21L649.42,758.21z"/>
	<path id="Path_703" fill="#093830" d="M527.92,293.19l-35.06-36.92l28.41-26.99l35.06,36.92L527.92,293.19z M494.45,256.31
		l33.51,35.28l26.75-25.43l-33.51-35.28L494.45,256.31z"/>
	<path id="Path_704" fill="#093830" d="M508.92,259.34c-1.75,0-3.18-1.42-3.18-3.18c0-1.75,1.42-3.18,3.18-3.18
		c0.87,0,1.7,0.36,2.3,0.99l0,0c1.21,1.26,1.18,3.26-0.08,4.48C510.54,259.03,509.75,259.35,508.92,259.34z M508.92,254.12
		c-1.13,0-2.04,0.92-2.04,2.05s0.92,2.04,2.05,2.04s2.04-0.92,2.04-2.05c0-0.52-0.2-1.02-0.56-1.4l0,0
		C510.02,254.35,509.48,254.12,508.92,254.12z"/>
	<path id="Path_705" fill="#093830" d="M518.89,269.84h-0.08c-1.62-0.02-2.92-1.36-2.9-2.98c0.02-1.62,1.36-2.92,2.98-2.9
		s2.92,1.36,2.9,2.98C521.77,268.53,520.48,269.81,518.89,269.84z M518.89,264.61c-1.13,0-2.05,0.92-2.05,2.05
		c0,1.13,0.92,2.05,2.05,2.05c1.13,0,2.05-0.92,2.05-2.05c0-0.52-0.2-1.03-0.56-1.41l0,0c-0.37-0.39-0.89-0.62-1.43-0.63
		L518.89,264.61z"/>
	<path id="Path_706" fill="#093830" d="M528.85,280.33h-0.08c-1.62-0.02-2.92-1.36-2.9-2.98c0.02-1.62,1.36-2.92,2.98-2.9
		c1.62,0.02,2.92,1.36,2.9,2.98C531.74,279.02,530.45,280.31,528.85,280.33L528.85,280.33z M528.85,275.1c-0.52,0-1.03,0.2-1.4,0.57
		c-0.82,0.78-0.85,2.07-0.08,2.89c0.78,0.82,2.07,0.85,2.89,0.08c0.82-0.78,0.85-2.07,0.08-2.89c0,0,0,0,0,0l0,0
		c-0.37-0.39-0.89-0.62-1.43-0.63L528.85,275.1z"/>
	<path id="Path_707" fill="#093830" d="M520.01,248.81c-1.75,0-3.17-1.43-3.17-3.18c0-1.75,1.43-3.17,3.18-3.17
		c0.87,0,1.7,0.36,2.3,0.99l0,0c1.21,1.27,1.16,3.28-0.11,4.49C521.62,248.49,520.83,248.81,520.01,248.81z M520.01,243.58
		c0-0.48,0.4-0.87,0.88-0.87c0.48,0,0.87,0.4,0.87,0.88c0,0.48-0.4,0.87-0.88,0.87c-0.48,0-0.86-0.39-0.87-0.87V243.58z"/>
	<path id="Path_708" fill="#093830" d="M529.98,259.3c-1.75,0-3.17-1.43-3.17-3.18c0-1.75,1.43-3.17,3.18-3.17
		c0.87,0,1.7,0.36,2.3,0.99l0,0c1.21,1.27,1.15,3.29-0.12,4.49C531.57,258.98,530.79,259.3,529.98,259.3z M529.98,254.08
		c-1.13,0-2.05,0.92-2.05,2.05c0,1.13,0.92,2.05,2.05,2.05c1.13,0,2.05-0.92,2.05-2.05c0-0.52-0.2-1.03-0.56-1.41
		C531.08,254.31,530.54,254.08,529.98,254.08z"/>
	<path id="Path_709" fill="#093830" d="M539.95,269.79c-1.75,0-3.17-1.42-3.17-3.18c0-1.75,1.42-3.17,3.18-3.17
		c0.87,0,1.7,0.36,2.3,0.99l0,0c1.21,1.27,1.15,3.29-0.12,4.49C541.54,269.48,540.76,269.79,539.95,269.79z M539.95,264.57
		c-1.13,0-2.05,0.91-2.05,2.04c0,1.13,0.91,2.05,2.04,2.05c1.13,0,2.05-0.91,2.05-2.04c0-0.17-0.02-0.35-0.07-0.51
		C541.69,265.2,540.88,264.57,539.95,264.57z"/>
	<path id="Path_710" fill="#093830" d="M101.69,705.74l-35.69-16.16l20.99-46.39l35.69,16.17L101.69,705.74z M67.49,689.02
		l33.63,15.23l20.06-44.33L87.55,644.7L67.49,689.02z"/>
	<path id="Path_711" fill="#093830" d="M93.13,661.22c-1.75,0-3.17-1.42-3.17-3.18c0-1.75,1.42-3.17,3.18-3.17
		c1.75,0,3.17,1.42,3.17,3.18c0,0.45-0.1,0.89-0.28,1.3l0,0C95.51,660.49,94.38,661.22,93.13,661.22z M93.13,655.99
		c-0.25,0-0.49,0.05-0.72,0.13c-1.06,0.41-1.58,1.59-1.18,2.65c0.41,1.06,1.59,1.58,2.65,1.18c0.5-0.19,0.91-0.58,1.13-1.06l0,0
		c0.46-1.03,0.01-2.24-1.02-2.7C93.72,656.06,93.43,655.99,93.13,655.99L93.13,655.99z"/>
	<path id="Path_712" fill="#093830" d="M87.17,674.4c-1.75,0-3.18-1.42-3.18-3.17c0-1.75,1.42-3.18,3.17-3.18
		c1.75,0,3.18,1.42,3.18,3.17c0,0.45-0.09,0.89-0.27,1.3l0,0C89.55,673.66,88.42,674.4,87.17,674.4z M87.17,669.18
		c-0.25,0-0.49,0.04-0.72,0.13c-1.06,0.4-1.59,1.58-1.19,2.64c0.4,1.06,1.58,1.59,2.64,1.19c1.06-0.4,1.59-1.58,1.19-2.64
		c-0.19-0.51-0.58-0.92-1.07-1.14C87.74,669.24,87.46,669.18,87.17,669.18L87.17,669.18z"/>
	<path id="Path_713" fill="#093830" d="M81.2,687.58c-1.75,0-3.17-1.43-3.17-3.18c0-1.75,1.43-3.17,3.18-3.17
		c1.75,0,3.17,1.43,3.17,3.18c0,0.15-0.01,0.3-0.03,0.45C84.12,686.43,82.78,687.59,81.2,687.58z M81.2,682.36
		c-1.13,0-2.05,0.91-2.06,2.04c0,1.13,0.91,2.05,2.04,2.06c1.13,0,2.05-0.91,2.06-2.04c0-0.4-0.11-0.78-0.33-1.12
		C82.53,682.72,81.89,682.37,81.2,682.36z"/>
	<path id="Path_714" fill="#093830" d="M107.07,667.52c-0.45,0-0.89-0.1-1.3-0.28c-1.6-0.72-2.31-2.61-1.58-4.2
		c0.35-0.77,0.99-1.37,1.78-1.66c0.79-0.3,1.66-0.27,2.43,0.08c1.6,0.72,2.3,2.6,1.58,4.2l0,0
		C109.46,666.8,108.32,667.53,107.07,667.52z M107.07,662.3c-0.25,0-0.49,0.05-0.72,0.14c-1.06,0.4-1.59,1.58-1.19,2.63
		c0.4,1.06,1.58,1.59,2.63,1.19c0.51-0.19,0.92-0.58,1.14-1.07l0,0c0.46-1.03,0-2.25-1.03-2.71
		C107.64,662.36,107.36,662.3,107.07,662.3L107.07,662.3z"/>
	<path id="Path_715" fill="#093830" d="M101.1,680.71c-0.45,0-0.89-0.1-1.3-0.28c-1.6-0.72-2.31-2.61-1.58-4.2
		c0.72-1.6,2.61-2.31,4.21-1.58c1.6,0.72,2.31,2.61,1.58,4.21C103.49,679.98,102.35,680.71,101.1,680.71z M101.1,675.49
		c-0.25,0-0.49,0.05-0.72,0.13c-0.5,0.19-0.91,0.58-1.13,1.07c-0.49,1.02-0.07,2.24,0.94,2.73s2.24,0.07,2.73-0.94
		c0.02-0.03,0.03-0.07,0.05-0.1l0,0c0.47-1.03,0.01-2.24-1.02-2.71C101.69,675.55,101.4,675.49,101.1,675.49L101.1,675.49z"/>
	<path id="Path_716" fill="#093830" d="M95.13,693.89c-0.45,0-0.89-0.1-1.3-0.28c-1.6-0.72-2.31-2.61-1.58-4.2
		c0.72-1.6,2.61-2.31,4.2-1.58c1.6,0.72,2.31,2.6,1.58,4.2C97.52,693.17,96.38,693.9,95.13,693.89z M95.13,688.67
		c-1.13-0.01-2.05,0.91-2.06,2.04c-0.01,1.13,0.91,2.05,2.04,2.06c0.25,0,0.5-0.04,0.74-0.13c0.5-0.19,0.91-0.58,1.13-1.07
		c0.47-1.03,0.01-2.24-1.01-2.7c0,0-0.01,0-0.01,0C95.7,688.73,95.42,688.67,95.13,688.67L95.13,688.67z"/>
	<path id="Path_717" fill="#093830" d="M185.14,468.56c-3.84-0.67-7.5,1.9-8.18,5.74l-2.37,13.44c-0.67,3.84,1.9,7.51,5.74,8.19
		c0.41,0.07,0.82,0.11,1.23,0.1c3.43-0.01,6.36-2.47,6.96-5.84l2.37-13.45C191.54,472.9,188.98,469.24,185.14,468.56z
		 M180.51,494.82c-3.23-0.57-5.38-3.65-4.82-6.88l1.08-6.17l11.67,2.06l-1.07,6.16C186.82,493.22,183.75,495.38,180.51,494.82
		L180.51,494.82z M189.76,476.55l-1.08,6.17L177,480.66l1.08-6.17c0.74-3.19,3.93-5.18,7.13-4.44
		C188.16,470.74,190.12,473.54,189.76,476.55z"/>
	<path id="Path_718" fill="#093830" d="M746.51,656.43c-0.19-2.55-1.39-4.92-3.34-6.57l-2.59-2.2c-4.05-3.45-10.13-2.96-13.59,1.09
		l-16.89,19.82c-3.45,4.05-2.96,10.13,1.08,13.59l2.59,2.2c4.05,3.45,10.13,2.96,13.59-1.08l16.89-19.82
		C745.91,661.51,746.72,658.98,746.51,656.43z M726.5,682.52c-3.05,3.57-8.41,4-11.99,0.96l-2.58-2.21c-3.58-3.05-4-8.42-0.96-11.99
		l8.08-9.48l15.53,13.24L726.5,682.52z M743.39,662.7l-8.08,9.48l-15.54-13.24l8.08-9.48c3.05-3.57,8.41-4,11.99-0.96l2.59,2.2
		C745.99,653.76,746.42,659.12,743.39,662.7z"/>
	<path id="Path_719" fill="#093830" d="M702.72,605.42l-1.8-15.07c-0.54-4.26-4.44-7.28-8.7-6.73c-4.22,0.54-7.22,4.36-6.75,8.58
		l0.9,7.54l0,0l0.9,7.53c0.48,3.9,3.79,6.84,7.72,6.85c0.31,0,0.62-0.02,0.93-0.05c4.27-0.52,7.3-4.4,6.8-8.67L702.72,605.42z
		 M692.41,584.69c0.26-0.03,0.53-0.05,0.79-0.05c3.36,0.01,6.19,2.52,6.6,5.86l0.83,6.97l-13.19,1.58l-0.83-6.97
		C686.17,588.44,688.76,585.14,692.41,584.69L692.41,584.69z M700.22,610.45c-2.27,2.88-6.45,3.38-9.34,1.11
		c-1.38-1.09-2.27-2.68-2.48-4.42l-0.83-6.96l13.19-1.58l0.83,6.97c0.21,1.75-0.29,3.51-1.38,4.89L700.22,610.45z"/>
	<rect id="Rectangle_287" x="251.36" y="340.55" fill="#289C8E" width="330.35" height="471.36"/>
	<rect id="Rectangle_288" x="282.59" y="372.38" fill="#FFFFFF" width="265.06" height="408.68"/>
	<path id="Path_720" fill="#093830" d="M548.21,781.62H282.01V371.81H548.2L548.21,781.62z M283.15,780.5h263.93V372.94H283.14
		L283.15,780.5z"/>
	<path id="Path_721" fill="none" stroke="#093830" stroke-miterlimit="10" d="M353.79,455.04c-0.2-0.24-0.55-0.27-0.79-0.08
		c0,0,0,0,0,0l-12.46,10.28c-7.78-9.76-22-11.37-31.77-3.59c-1.68,1.34-3.16,2.91-4.4,4.67l-1.6-1.72c-0.24-0.19-0.6-0.15-0.8,0.09
		c-0.15,0.19-0.16,0.46-0.03,0.66l1.78,1.91c-6.7,10.57-3.55,24.56,7.01,31.26c10.57,6.7,24.56,3.55,31.26-7.01
		c4.95-7.82,4.65-17.87-0.76-25.37l12.5-10.31C353.97,455.63,354,455.28,353.79,455.04C353.79,455.04,353.79,455.04,353.79,455.04z
		 M322.85,457.86c6.54,0,12.73,2.99,16.8,8.11l-20.15,16.62l-14.37-15.41C309.14,461.34,315.77,457.86,322.85,457.86z
		 M344.37,479.38c0.01,11.89-9.62,21.53-21.51,21.54c-11.89,0.01-21.53-9.62-21.54-21.51c0-3.98,1.1-7.88,3.18-11.27l14.9,15.99
		l20.94-17.27C342.96,470.51,344.37,474.89,344.37,479.38L344.37,479.38z"/>
	<path id="Path_722" fill="none" stroke="#093830" stroke-miterlimit="10" d="M350.6,534c-0.2-0.24-0.55-0.27-0.79-0.08
		l-12.46,10.28c-7.78-9.76-22-11.37-31.77-3.59c-1.68,1.34-3.16,2.91-4.4,4.67l-1.6-1.71c-0.17-0.26-0.52-0.33-0.78-0.16
		c-0.26,0.17-0.33,0.52-0.16,0.78c0.03,0.05,0.07,0.09,0.12,0.13l1.78,1.91c-6.69,10.57-3.55,24.56,7.02,31.26
		c10.57,6.69,24.57,3.55,31.26-7.02c4.95-7.82,4.65-17.86-0.76-25.37l12.5-10.31C350.78,534.59,350.81,534.23,350.6,534
		C350.61,534,350.61,534,350.6,534z M319.65,536.81c6.55,0,12.74,2.99,16.82,8.11l-20.16,16.62l-14.37-15.4
		C305.95,540.31,312.58,536.82,319.65,536.81L319.65,536.81z M341.18,558.34c0.01,11.89-9.62,21.53-21.51,21.54
		c-11.89,0.01-21.53-9.62-21.54-21.51c0-3.98,1.1-7.88,3.18-11.26l14.9,15.99l20.94-17.26
		C339.77,549.47,341.18,553.85,341.18,558.34L341.18,558.34z"/>
	<path id="Path_723" fill="none" stroke="#093830" stroke-miterlimit="10" d="M349.58,612.95c-0.2-0.24-0.55-0.27-0.79-0.08
		l-12.46,10.29c-7.78-9.76-22-11.37-31.77-3.59c-1.68,1.34-3.16,2.91-4.4,4.67l-1.6-1.72c-0.24-0.2-0.6-0.17-0.8,0.07
		c-0.16,0.19-0.17,0.47-0.03,0.68l1.78,1.91c-6.69,10.57-3.55,24.56,7.02,31.26c10.57,6.69,24.56,3.55,31.26-7.02
		c4.95-7.82,4.65-17.87-0.77-25.37l12.5-10.31C349.76,613.55,349.79,613.19,349.58,612.95
		C349.58,612.96,349.58,612.95,349.58,612.95z M318.63,615.77c6.55,0,12.74,2.98,16.82,8.11l-20.16,16.62l-14.37-15.41
		C304.94,619.26,311.56,615.77,318.63,615.77L318.63,615.77z M340.16,637.31c0.01,11.89-9.62,21.53-21.51,21.54
		c-11.89,0.01-21.53-9.62-21.54-21.51c0-3.98,1.1-7.88,3.18-11.27l14.9,15.99l20.94-17.26
		C338.75,628.44,340.16,632.82,340.16,637.31L340.16,637.31z"/>
	<path id="Path_724" fill="none" stroke="#093830" stroke-miterlimit="10" d="M527.33,461.41H366.54c-0.31-0.02-0.55-0.29-0.53-0.6
		c0.02-0.29,0.25-0.51,0.53-0.53h160.79c0.31-0.02,0.58,0.22,0.6,0.53c0.02,0.31-0.22,0.58-0.53,0.6
		C527.38,461.41,527.36,461.41,527.33,461.41z"/>
	<path id="Path_725" fill="none" stroke="#093830" stroke-miterlimit="10" d="M483.46,487.44H365.19c-0.31,0.02-0.58-0.22-0.6-0.53
		c-0.02-0.31,0.22-0.58,0.53-0.6c0.02,0,0.04,0,0.07,0h118.28c0.31-0.02,0.58,0.22,0.6,0.53c0.02,0.31-0.22,0.58-0.53,0.6
		C483.51,487.44,483.49,487.44,483.46,487.44z"/>
	<path id="Path_726" fill="none" stroke="#093830" stroke-miterlimit="10" d="M525.69,543.37H363.15c-0.31-0.02-0.55-0.29-0.53-0.6
		c0.02-0.29,0.25-0.52,0.53-0.53h162.54c0.31,0.02,0.55,0.29,0.53,0.6C526.21,543.12,525.98,543.35,525.69,543.37z"/>
	<path id="Path_727" fill="none" stroke="#093830" stroke-miterlimit="10" d="M439.47,569.39H361.8c-0.31,0.02-0.58-0.22-0.6-0.53
		c-0.02-0.31,0.22-0.58,0.53-0.6c0.02,0,0.04,0,0.07,0h77.67c0.31,0.02,0.55,0.29,0.53,0.6
		C439.98,569.15,439.75,569.38,439.47,569.39L439.47,569.39z"/>
	<path id="Path_728" fill="none" stroke="#093830" stroke-miterlimit="10" d="M527.33,625.32h-167.2c-0.31-0.02-0.55-0.29-0.53-0.6
		c0.02-0.29,0.25-0.52,0.53-0.53h167.2c0.31-0.02,0.58,0.22,0.6,0.53c0.02,0.31-0.22,0.58-0.53,0.6
		C527.38,625.33,527.36,625.33,527.33,625.32z"/>
	<path id="Path_729" fill="none" stroke="#093830" stroke-miterlimit="10" d="M489.97,651.36H358.78c-0.31,0-0.57-0.25-0.57-0.57
		c0-0.31,0.25-0.57,0.57-0.57h131.19c0.31,0,0.57,0.25,0.57,0.57C490.54,651.1,490.29,651.36,489.97,651.36L489.97,651.36z"/>
	<path id="Path_730" fill="none" stroke="#093830" stroke-miterlimit="10" d="M464.21,686.61H307.55c-0.31,0-0.57-0.25-0.57-0.57
		c0-0.31,0.25-0.57,0.57-0.57h156.66c0.31,0,0.57,0.25,0.57,0.57C464.77,686.36,464.52,686.61,464.21,686.61L464.21,686.61z"/>
	<path id="Path_731" fill="none" stroke="#093830" stroke-miterlimit="10" d="M462.85,713.29H306.18c-0.31,0.02-0.58-0.22-0.6-0.53
		c-0.02-0.31,0.22-0.58,0.53-0.6c0.02,0,0.04,0,0.07,0h156.67c0.31-0.02,0.58,0.22,0.6,0.53c0.02,0.31-0.22,0.58-0.53,0.6
		C462.89,713.29,462.87,713.29,462.85,713.29L462.85,713.29z"/>
	<path id="Path_732" fill="#8DE5DB" d="M352.31,343.24c0,57.06-26.56,103.32-59.34,103.32s-59.33-46.26-59.33-103.32
		c0,0,21.85-7.34,28.8-10.52c8.13-3.72,31.54-17.06,31.54-17.06s22.88,13.44,30.52,17.06C331.44,336.01,352.31,343.24,352.31,343.24
		z"/>
	<path id="Path_733" fill="#0E2549" d="M292.98,447.13c-16.06,0-31.13-10.85-42.44-30.54c-11.26-19.59-17.46-45.65-17.46-73.34
		v-0.41l0.38-0.13c0.22-0.07,21.9-7.37,28.75-10.5c8.02-3.66,31.27-16.9,31.5-17.03l0.28-0.16l0.28,0.17
		c0.23,0.13,22.95,13.47,30.47,17.03c6.84,3.23,27.54,10.42,27.76,10.5l0.38,0.13v0.4c0,27.7-6.2,53.74-17.46,73.34
		C324.11,436.28,309.04,447.13,292.98,447.13z M234.2,343.66c0.13,56.48,26.44,102.35,58.77,102.35s58.64-45.88,58.77-102.35
		c-2.87-1-21.1-7.4-27.5-10.41c-7.1-3.36-27.61-15.36-30.27-16.92c-2.7,1.53-23.74,13.45-31.3,16.92
		C256.29,336.17,237.17,342.66,234.2,343.66L234.2,343.66z"/>
	<path id="Path_734" fill="#FFFFFF" d="M341.51,351.17c0,46.67-21.73,84.51-48.53,84.51s-48.53-37.84-48.53-84.51
		c0,0,19.37-6.25,25.5-9.04c6.27-2.87,24.07-13.68,24.07-13.68s17.62,11.32,23.91,14.34C323.52,345.44,341.51,351.17,341.51,351.17z
		"/>
	<path id="Path_735" fill="#0E2549" d="M292.98,436.25c-13.19,0-25.53-8.89-34.81-25.04c-9.21-16.05-14.29-37.37-14.29-60.04v-0.41
		l0.38-0.13c0.2-0.06,19.41-6.27,25.44-9.04c6.17-2.83,23.84-13.56,24.01-13.65l0.3-0.18l0.3,0.2c0.18,0.11,17.67,11.34,23.84,14.32
		c5.49,2.64,23.33,8.32,23.51,8.38l0.38,0.13v0.41c0,22.67-5.07,43.99-14.29,60.04C318.51,427.35,306.15,436.25,292.98,436.25z
		 M245.01,351.57c0.13,46.1,21.59,83.53,47.96,83.53c26.37,0,47.85-37.43,47.96-83.53c-2.73-0.88-18.09-5.84-23.26-8.31
		c-5.87-2.81-21.26-12.63-23.67-14.18c-2.37,1.44-18.05,10.88-23.83,13.54C264.5,345.24,247.87,350.66,245.01,351.57z"/>
	<path id="Path_736" fill="#093830" d="M324.5,371.31h-21.72V349.6h-19.61v21.72h-21.72v19.61h21.72v21.71h19.61v-21.71h21.72
		L324.5,371.31z"/>
	<path id="Path_737" fill="#093830" d="M698,396.08l-7.68-1.63l1.54-7.28l-7.28-1.54l1.63-7.68l7.28,1.54l1.54-7.28l7.68,1.63
		l-1.55,7.28l7.28,1.54l-1.63,7.68l-7.28-1.54L698,396.08z M691.67,393.58l5.46,1.16l1.55-7.28l7.28,1.54l1.16-5.47l-7.27-1.54
		l1.54-7.28l-5.47-1.16l-1.54,7.28l-7.28-1.54l-1.16,5.46l7.28,1.55L691.67,393.58z"/>
	<path id="Path_738" fill="#093830" d="M691.09,411.34l-0.28-0.32c-1.06-1.19-25.97-29.27-24.07-48.78
		c0.35-4.72,2.75-9.06,6.55-11.87c2.06-1.6,4.72-2.23,7.28-1.7c9.11,1.67,18.27,15.02,20.04,17.73c2.93-1.67,18.22-10.02,26.75-7.46
		c2.06,0.56,3.77,1.98,4.7,3.9c1.98,4.04,2.19,8.73,0.59,12.93c-6.44,18.53-39.77,34.71-41.18,35.38L691.09,411.34z M678.77,349.62
		c-1.73,0-3.42,0.58-4.79,1.64c-3.55,2.63-5.78,6.67-6.11,11.08c-1.74,17.93,20.72,44.38,23.5,47.6
		c3.79-1.88,34.28-17.51,40.22-34.55c1.49-3.92,1.3-8.28-0.53-12.06c-0.78-1.64-2.25-2.85-4.01-3.32
		c-8.8-2.64-26.15,7.53-26.32,7.63l-0.47,0.28l-0.29-0.46c-0.1-0.16-10.14-15.96-19.59-17.69
		C679.85,349.67,679.31,349.62,678.77,349.62L678.77,349.62z"/>
	<path id="Path_739" fill="#093830" d="M598.43,279.96c-0.71-4.24-4.72-7.1-8.95-6.39c-2.03,0.34-3.84,1.47-5.04,3.14l-8.82,12.33
		c-2.49,3.5-1.68,8.35,1.8,10.85c1.31,0.94,2.88,1.45,4.49,1.45c0.44,0,0.87-0.04,1.3-0.11c2.04-0.33,3.85-1.46,5.05-3.14
		l8.82-12.33C598.3,284.08,598.78,282,598.43,279.96L598.43,279.96z M587.35,297.43c-2.14,2.99-6.29,3.68-9.27,1.54
		c-2.99-2.14-3.68-6.29-1.54-9.27l4.08-5.71l10.82,7.74L587.35,297.43z M596.17,285.1l-4.08,5.71l-10.81-7.73l4.08-5.7
		c2.13-2.99,6.29-3.68,9.27-1.54C597.61,277.96,598.3,282.12,596.17,285.1L596.17,285.1z"/>
	<path id="Path_740" fill="#D2EBFC" d="M137.38,527.09l2.19,43.51l29.01-10.06l-24.23-35.79c-1.19-1.74-3.56-2.2-5.31-1.01
		C137.94,524.48,137.31,525.76,137.38,527.09z"/>
	<path id="Path_741" fill="#0D5E52" d="M139.04,571.38l-2.23-44.26c-0.13-2.42,1.73-4.48,4.15-4.61c1.54-0.08,3,0.65,3.86,1.92
		l24.65,36.4L139.04,571.38z M141.23,523.63c-0.36,0-0.73,0.06-1.07,0.17c-1.4,0.45-2.32,1.79-2.22,3.26l2.16,42.75l27.62-9.58
		l-23.82-35.17C143.31,524.17,142.3,523.63,141.23,523.63L141.23,523.63z"/>
	<path id="Path_742" fill="#8DE5DB" d="M238.78,809.78L238.78,809.78c-9.56,3.32-19.99-1.74-23.31-11.3l-75.78-218.5
		c-3.32-9.56,1.74-19.99,11.3-23.31l0,0c9.56-3.32,19.99,1.74,23.31,11.3l75.78,218.5C253.39,796.03,248.33,806.46,238.78,809.78z"
		/>
	<path id="Path_743" fill="#0D5E52" d="M232.76,811.37c-8.03-0.03-15.17-5.12-17.81-12.71l-75.8-218.49
		c-3.42-9.85,1.8-20.61,11.65-24.03c9.85-3.42,20.61,1.8,24.03,11.65l75.78,218.49c3.42,9.85-1.8,20.61-11.65,24.03l0,0
		C236.97,811.01,234.87,811.36,232.76,811.37z M156.98,556.22c-9.81,0.01-17.75,7.98-17.74,17.79c0,1.97,0.33,3.93,0.98,5.79
		L216,798.29c3.21,9.27,13.33,14.17,22.59,10.96c0,0,0.01,0,0.01,0l0,0c9.27-3.22,14.17-13.33,10.96-22.6c0,0,0,0,0-0.01
		l-75.79-218.48C171.29,561.01,164.55,556.22,156.98,556.22L156.98,556.22z"/>
	<path id="Path_744" fill="#0D5E52" d="M201.12,671.59c-0.1-0.29-0.43-0.45-0.72-0.35l-6.59,2.28l-2.84-8.19l2.59-0.9
		c0.3-0.09,0.47-0.41,0.38-0.71c-0.09-0.3-0.41-0.47-0.71-0.38c-0.02,0-0.03,0.01-0.05,0.02l-2.59,0.9l-2.84-8.19l6.59-2.28
		c0.29-0.12,0.43-0.45,0.31-0.74c-0.11-0.27-0.41-0.42-0.69-0.33l-6.58,2.28l-2.84-8.19l2.59-0.9c0.29-0.12,0.43-0.45,0.31-0.74
		c-0.11-0.27-0.41-0.42-0.69-0.33l-2.59,0.9l-2.84-8.19l6.59-2.29c0.29-0.12,0.43-0.45,0.31-0.74c-0.11-0.27-0.41-0.42-0.69-0.33
		l-6.59,2.28l-2.84-8.19l2.6-0.9c0.29-0.12,0.43-0.45,0.31-0.74c-0.11-0.27-0.41-0.42-0.69-0.33l-2.6,0.9l-2.84-8.19l6.6-2.29
		c0.29-0.12,0.43-0.45,0.31-0.74c-0.11-0.27-0.41-0.42-0.69-0.33l-6.6,2.29l-2.82-8.19l2.6-0.9c0.3-0.09,0.47-0.41,0.38-0.71
		c-0.09-0.3-0.41-0.47-0.71-0.38c-0.02,0-0.03,0.01-0.05,0.02l-2.6,0.9l-2.84-8.19l6.59-2.29c0.3-0.09,0.47-0.41,0.38-0.71
		c-0.09-0.3-0.41-0.47-0.71-0.38c-0.02,0.01-0.03,0.01-0.05,0.02l-6.59,2.29l-2.84-8.19l2.6-0.9c0.29-0.12,0.43-0.45,0.31-0.74
		c-0.11-0.27-0.41-0.42-0.69-0.33l-2.6,0.9l-2.84-8.19l6.6-2.29c0.3-0.09,0.47-0.41,0.38-0.71c-0.09-0.3-0.41-0.47-0.71-0.38
		c-0.02,0-0.03,0.01-0.05,0.02l-6.6,2.29l-2.84-8.19l2.6-0.9c0.29-0.12,0.43-0.45,0.31-0.74c-0.11-0.27-0.41-0.42-0.69-0.33
		l-2.6,0.9l-5.23-15.07c1.33-1.33,1.77-3.3,1.15-5.07l-4.9-14.18c-0.89-2.57-3.7-3.93-6.27-3.04l0,0c-2.57,0.89-3.93,3.7-3.04,6.27
		l4.95,14.18c0.61,1.76,2.17,3.03,4.02,3.27l5.23,15.07l-2.57,0.89c-0.29,0.1-0.45,0.42-0.35,0.72c0.08,0.23,0.29,0.38,0.53,0.38
		c0.06,0,0.13-0.01,0.18-0.03l2.57-0.89l2.84,8.19l-6.59,2.29c-0.29,0.11-0.44,0.43-0.33,0.73c0.08,0.22,0.29,0.36,0.52,0.37
		c0.06,0,0.12-0.01,0.18-0.03l6.59-2.28l2.84,8.19l-2.57,0.89c-0.29,0.11-0.44,0.44-0.33,0.73c0.08,0.22,0.29,0.37,0.53,0.37
		c0.06,0,0.12-0.01,0.18-0.03l2.57-0.89l2.84,8.19l-6.59,2.29c-0.3,0.1-0.46,0.41-0.36,0.71c0.08,0.24,0.3,0.39,0.55,0.39
		c0.06,0,0.12-0.01,0.18-0.03l6.59-2.29l2.84,8.19l-2.57,0.89c-0.3,0.1-0.45,0.43-0.35,0.72c0.08,0.23,0.3,0.38,0.55,0.38
		c0.06,0,0.13-0.01,0.18-0.03l2.57-0.89l2.84,8.19l-6.59,2.29c-0.29,0.1-0.46,0.41-0.36,0.71c0.08,0.23,0.3,0.39,0.54,0.39
		c0.06,0,0.12-0.01,0.18-0.03l6.59-2.28l2.84,8.19l-2.57,0.89c-0.3,0.1-0.45,0.43-0.35,0.72c0.08,0.23,0.29,0.38,0.53,0.38
		c0.07,0,0.13-0.01,0.2-0.03l2.57-0.89l2.84,8.19l-6.59,2.29c-0.3,0.1-0.45,0.43-0.35,0.72c0.08,0.23,0.29,0.38,0.53,0.38
		c0.06,0,0.12-0.01,0.18-0.03l6.6-2.29l2.84,8.19l-2.57,0.89c-0.3,0.1-0.45,0.43-0.35,0.72c0.08,0.23,0.29,0.38,0.53,0.38
		c0.06,0,0.12-0.01,0.18-0.03l2.58-0.9l2.84,8.19l-6.64,2.28c-0.29,0.1-0.45,0.43-0.35,0.72c0.1,0.29,0.43,0.45,0.72,0.35l6.59-2.29
		l2.84,8.19l-2.57,0.9c-0.3,0.1-0.45,0.43-0.35,0.72c0.08,0.23,0.29,0.38,0.53,0.38c0.06,0,0.13-0.01,0.18-0.03l2.57-0.89l2.86,8.19
		l-6.62,2.3c-0.29,0.11-0.44,0.43-0.33,0.73c0.08,0.22,0.29,0.36,0.52,0.37c0.07,0,0.13-0.01,0.2-0.03l6.6-2.29l2.84,8.19
		l-2.57,0.89c-0.29,0.11-0.44,0.43-0.33,0.73c0.08,0.22,0.29,0.36,0.52,0.37c0.07,0,0.13-0.01,0.2-0.03l2.56-0.89l2.12,6.11
		l4.14-1.44l-2.12-6.11l2.61-0.9c0.29-0.12,0.43-0.45,0.31-0.74c-0.11-0.27-0.41-0.42-0.69-0.33l-2.61,0.91l-2.84-8.19l6.59-2.28
		C201.07,672.19,201.22,671.88,201.12,671.59z"/>
	<path id="Path_745" fill="#0D5E52" d="M239.67,782.63c-0.1-0.3-0.42-0.45-0.72-0.35c0,0,0,0,0,0l-6.83,2.37l-2.85-8.19l2.84-0.99
		c0.3-0.09,0.47-0.41,0.38-0.71c-0.09-0.3-0.41-0.47-0.71-0.38c-0.02,0.01-0.03,0.01-0.05,0.02l-2.84,0.99l-2.84-8.19l6.84-2.37
		c0.3-0.09,0.47-0.41,0.38-0.71c-0.09-0.3-0.41-0.47-0.71-0.38c-0.02,0.01-0.03,0.01-0.05,0.02l-6.84,2.37l-2.82-8.19l2.84-0.99
		c0.29-0.12,0.43-0.45,0.31-0.74c-0.11-0.27-0.41-0.42-0.69-0.33l-2.84,0.99l-2.84-8.19l6.83-2.37c0.29-0.12,0.43-0.45,0.31-0.74
		c-0.11-0.27-0.41-0.42-0.69-0.33l-6.83,2.37l-2.82-8.19l2.84-0.99c0.29-0.12,0.43-0.45,0.31-0.74c-0.11-0.27-0.41-0.42-0.69-0.33
		l-2.84,0.99l-2.84-8.19l6.84-2.37c0.29-0.12,0.43-0.45,0.31-0.74c-0.11-0.27-0.41-0.42-0.69-0.33l-6.84,2.37l-2.85-8.16l2.84-0.99
		c0.3-0.09,0.47-0.41,0.38-0.71c-0.09-0.3-0.41-0.47-0.71-0.38c-0.02,0.01-0.03,0.01-0.05,0.02l-2.84,0.99l-2.84-8.19l6.83-2.37
		c0.29-0.12,0.43-0.45,0.31-0.74c-0.11-0.27-0.41-0.42-0.69-0.33l-6.82,2.37l-2.84-8.19l2.83-0.98c0.3-0.09,0.47-0.41,0.38-0.71
		c-0.09-0.3-0.41-0.47-0.71-0.38c-0.02,0.01-0.03,0.01-0.05,0.02l-2.81,0.97l-2.84-8.19l6.83-2.36c0.3-0.09,0.47-0.41,0.38-0.71
		c-0.09-0.3-0.41-0.47-0.71-0.38c-0.02,0-0.03,0.01-0.05,0.02l-6.83,2.37l-13.85-39.96l-0.18-0.53l-3.68,1.27l14.05,40.49
		l-6.83,2.35c-0.3,0.1-0.45,0.43-0.35,0.72c0.08,0.23,0.3,0.38,0.55,0.38c0.06,0,0.12-0.01,0.18-0.03l6.81-2.37l2.84,8.19l-2.8,0.99
		c-0.29,0.11-0.44,0.43-0.33,0.73c0.08,0.22,0.29,0.36,0.52,0.37c0.06,0,0.12-0.01,0.18-0.03l2.8-0.97l2.84,8.19l-6.82,2.37
		c-0.3,0.1-0.45,0.43-0.35,0.72c0.08,0.23,0.29,0.38,0.53,0.38c0.07,0,0.13-0.01,0.2-0.03l6.82-2.37l2.84,8.19l-2.8,0.97
		c-0.29,0.11-0.44,0.43-0.33,0.73c0.08,0.22,0.29,0.36,0.52,0.37c0.07,0,0.13-0.01,0.2-0.03l2.79-0.97l2.84,8.19l-6.8,2.36
		c-0.3,0.1-0.45,0.43-0.35,0.72c0.08,0.23,0.29,0.38,0.53,0.38c0.06,0,0.12-0.01,0.18-0.03l6.8-2.36l2.84,8.19l-2.8,0.97
		c-0.29,0.11-0.44,0.43-0.33,0.73c0.08,0.22,0.29,0.36,0.52,0.37c0.06,0,0.13-0.01,0.18-0.03l2.8-0.97l2.84,8.19l-6.82,2.36
		c-0.3,0.1-0.45,0.43-0.35,0.72c0.08,0.23,0.3,0.38,0.55,0.38c0.06,0,0.13-0.01,0.18-0.03l6.81-2.36l2.84,8.19l-2.79,0.97
		c-0.3,0.1-0.45,0.43-0.35,0.72c0.08,0.23,0.29,0.38,0.53,0.38c0.06,0,0.12-0.01,0.18-0.03l2.8-0.97l2.84,8.19l-6.8,2.36
		c-0.3,0.1-0.45,0.43-0.35,0.72c0.08,0.23,0.29,0.38,0.53,0.38c0.07,0,0.13-0.01,0.2-0.03l6.8-2.36l2.84,8.19l-2.79,0.97
		c-0.3,0.1-0.45,0.43-0.35,0.72c0.08,0.23,0.29,0.38,0.53,0.38c0.06,0,0.12-0.01,0.18-0.03l2.8-0.97l2.84,8.19l-6.81,2.36
		c-0.29,0.11-0.44,0.43-0.33,0.73c0.08,0.22,0.29,0.36,0.52,0.37c0.06,0,0.12-0.01,0.18-0.03l6.82-2.36l0.72,2.08l0.18,0.54
		l3.68-1.28l-0.9-2.61l6.83-2.37c0.3-0.1,0.46-0.42,0.36-0.72c0-0.01,0-0.01-0.01-0.02L239.67,782.63z M183.73,653.58l1.55-0.54
		l13.67,39.42l-1.55,0.53L183.73,653.58z M197.78,694.07l1.54-0.53l2.84,8.19l-1.55,0.54L197.78,694.07z M200.99,703.33l1.54-0.53
		l2.84,8.19l-1.55,0.54L200.99,703.33z M204.2,712.58l1.54-0.53l2.84,8.19l-1.55,0.54L204.2,712.58z M207.41,721.84l1.54-0.53
		l2.84,8.19l-1.55,0.54L207.41,721.84z M210.61,731.09l1.55-0.54l2.84,8.19l-1.54,0.53L210.61,731.09z M213.82,740.34l1.55-0.54
		l2.84,8.19l-1.54,0.53L213.82,740.34z M217.03,749.6l1.55-0.54l2.84,8.19l-1.54,0.54L217.03,749.6z M220.24,758.85l1.55-0.53
		l2.84,8.19l-1.54,0.54L220.24,758.85z M223.45,768.11l1.55-0.53l2.84,8.19l-1.54,0.53L223.45,768.11z M226.66,777.36l1.55-0.54
		l2.84,8.19l-1.54,0.53L226.66,777.36z M231.93,787.63l-1.54,0.54l-0.53-1.54l1.54-0.54L231.93,787.63z"/>
	<path id="Path_746" fill="#B2F0EB" d="M438.89,809.77L438.89,809.77c-6.54-4.01-8.62-12.55-4.64-19.11l15.21-24.96
		c4.01-6.54,12.55-8.61,19.11-4.64l0,0c6.54,4.01,8.61,12.55,4.64,19.11L458,805.13C454,811.67,445.45,813.75,438.89,809.77z"/>
	<path id="Path_747" fill="#0D5E52" d="M459.53,802.62c0,0-3.81,7.32-8.44,8.24c-4.64,0.92-11.26,1.94-16.85-5.79
		c-5.59-7.73,1.92-17.55,1.92-17.55l5.7-9.35l23.74,14.47L459.53,802.62z"/>
	<path id="Path_748" fill="#8DE5DB" d="M496.27,708.35v-31.36h72.41v31.36c11.41,1.2,20.34,11.43,20.34,23.87v79.65H475.94v-79.64
		C475.94,719.78,484.91,709.41,496.27,708.35z"/>
	<path id="Path_749" fill="#FFFFFF" d="M475.94,791.12h61.52l0.69-49.17h-62.21V791.12z"/>
	<path id="Path_750" fill="#E0F1EF" d="M569.24,707.85v-31.42h-73.54v31.42c-11.44,1.35-20.34,11.95-20.34,24.38v80.2h114.19v-80.2
		C589.89,720.14,581.19,709.69,569.24,707.85z M544.07,677.56h6.12v30.23h-6.12V677.56z M537.29,677.56h5.65v30.23h-5.65V677.56z
		 M529.86,677.56h6.3v30.23h-6.3V677.56z M521.82,677.56h6.91v30.23h-6.91V677.56z M513.54,677.56h7.16v30.23h-7.17L513.54,677.56z
		 M504.87,677.56h7.53v30.23h-7.53V677.56z M496.86,677.56h6.88v30.23h-6.88V677.56z M476.51,742.51h61.07l-0.67,48.04h-60.39
		V742.51z M588.44,811.3H476.51v-19.61h61.51l0.7-50.3h-62.21v-9.16c0-12.02,8.69-22.26,19.78-23.3h57.55v-1.13h-2.53v-30.24h16.8
		v31.31l0.5,0.05c11.3,1.19,19.82,11.21,19.82,23.31L588.44,811.3z"/>
	<path id="Path_751" fill="#FFFFFF" d="M547.65,785.42l0.02,11.83h16.4l1.37-11.23L547.65,785.42z"/>
	<path id="Path_752" fill="#093830" d="M564.57,797.8h-17.47l-0.03-12.98l18.99,0.65L564.57,797.8z M548.24,796.67h15.33l1.23-10.12
		l-16.58-0.57L548.24,796.67z"/>
	<path id="Path_753" fill="#8DAEC4" d="M605.36,648.23v23.08l-20.16-1.23l2.91-20.91L605.36,648.23z"/>
	<path id="Path_754" fill="#289C8E" d="M546.77,796.53c0,0-23.7,7.54-24.52,13.72h42.49v-13.72H546.77z"/>
	<path id="Path_755" fill="#FFFFFF" d="M613.74,785.67l0.45,11.97h16.4l0.78-12.23L613.74,785.67z"/>
	<path id="Path_756" fill="#093830" d="M631.11,798.21h-17.47l-0.49-13.09l18.81-0.28L631.11,798.21z M614.73,797.08h15.32
		l0.7-11.09l-16.42,0.24L614.73,797.08z"/>
	<path id="Path_757" fill="#289C8E" d="M613.29,796.93c0,0-23.7,7.53-24.52,13.72h42.48v-13.72H613.29z"/>
	<path id="Path_758" fill="#0D5E52" d="M587.23,808.3v3.56h45.14v-4.08L587.23,808.3z"/>
	<path id="Path_759" fill="#0D5E52" d="M566.07,807.66v3.8h-45.14v-4.07L566.07,807.66z"/>
	<path id="Path_760" fill="#093830" d="M615.58,506.64l-1.02-0.49c0.08-0.17,8.13-17.13,3.9-25.57c-1.21-2.37-3.5-4.02-6.13-4.42
		h-16.95c-0.1,0-12.89,0.82-13.06,8.49c0.01,5.28,0.51,10.54,1.51,15.72l-1.11,0.23c-1.01-5.27-1.52-10.61-1.53-15.97
		c0.2-8.71,13.59-9.56,14.16-9.59h17.17c3,0.44,5.6,2.32,6.97,5.03C623.96,489.02,615.93,505.93,615.58,506.64z"/>
	<path id="Path_761" fill="#093830" d="M636.62,578.7l-0.65,61.57l-0.4,36.69l-1.19,110.89h-26.09l-11.67-113.1l-1.75-17.01
		l-3.38,16.74L568.6,787.86h-25.13l10.35-113.38l0,0l4.77-52.33l2.78-30.45l35.25-6.09l13.65-2.36L636.62,578.7z"/>
	<path id="Path_762" fill="#FFFFFF" d="M592,463.65c0,0,1.85,19.39,0.29,21.53s-10.5,6.09-10.5,6.09l15.01,44.12l32.05-3.1
		l2.08-32.81c0,0-14.62-11.92-15.51-14.36c-1.22-3.39-1.22-21.47-1.22-21.47L592,463.65z"/>
	<path id="Path_763" fill="#093830" d="M596.41,536l-15.32-45.04l0.47-0.21c2.45-1.08,9.08-4.25,10.27-5.91
		c1.04-1.43,0.3-13.73-0.4-21.14c-0.02-0.31,0.22-0.58,0.53-0.6c0.3-0.02,0.56,0.2,0.6,0.49c0.31,3.27,1.78,19.71,0.2,21.92
		c-1.44,1.98-8.25,5.16-10.26,6.07l14.69,43.21l31.12-3.01l2.03-32.02c-2.29-1.88-14.59-12-15.45-14.43
		c-1.24-3.44-1.26-20.93-1.26-21.67c-0.02-0.31,0.22-0.58,0.53-0.6c0.31-0.02,0.58,0.22,0.6,0.53c0,0.02,0,0.04,0,0.07
		c0,0.18,0,18.03,1.19,21.29c0.61,1.69,9.5,9.37,15.34,14.12l0.23,0.18l-2.13,33.58L596.41,536z"/>
	<path id="Path_764" fill="#FFFFFF" d="M504.01,501.73c4.9,2.77,24.36,23.36,24.36,23.36l-13.97,6.67c0,0-11.33-21.17-13.34-21.43
		c-3.76-0.51-15.17-0.17-18.84-2.64c-5.56-3.73-8.44-8.47-7.77-9.95c0.38-0.79,10,4.99,12.12,5.04
		C492.56,502.93,500.52,499.75,504.01,501.73z"/>
	<path id="Path_765" fill="#093830" d="M514.17,532.49l-0.26-0.47c-5.36-10.01-11.67-20.66-12.95-21.15
		c-0.99-0.13-2.59-0.2-4.45-0.29c-4.98-0.23-11.8-0.55-14.6-2.42c-5.61-3.76-8.84-8.73-7.98-10.65c0.07-0.16,0.21-0.29,0.38-0.36
		c0.59-0.22,1.7,0.26,5.73,2.26c2.07,1.17,4.26,2.11,6.53,2.8c2.59-0.05,5.18-0.35,7.72-0.88c3.97-0.7,7.73-1.36,9.98-0.09l0,0
		c4.9,2.78,23.7,22.61,24.49,23.46l0.54,0.56L514.17,532.49z M474.92,498.29c0.03,1.41,2.48,5.49,7.63,8.93
		c2.53,1.7,9.17,2.01,14.02,2.23c1.88,0.09,3.52,0.16,4.58,0.3c0.5,0.07,1.53,0.2,7.83,11.1c2.52,4.35,4.9,8.74,5.65,10.17
		l12.78-6.1c-3.17-3.32-19.38-20.24-23.7-22.68c-1.88-1.07-5.46-0.45-9.23,0.22c-2.61,0.55-5.27,0.86-7.94,0.9
		c-2.46-0.64-4.82-1.62-7-2.92C478.05,499.63,476.51,498.91,474.92,498.29z"/>
	<path id="Path_766" fill="#2FC4B2" d="M576.92,489.54c-9.69,3.53-7.35,55.27-7.35,55.27c-1.58,6.08-5.31,38.66-5.31,38.66
		l67.9,13.54l8-40.65c0,0,5.02-68.45-21.59-72.45c-2.55-0.38-10.35,3.26-18.69,2.46c-3.62-0.35-5.46,3.97-7.26-2.37
		C592.63,483.97,579.02,488.77,576.92,489.54z"/>
	<path id="Path_767" fill="#B2F0EB" d="M592.69,551.54l-6.45-66.44c-4.44,0-23.42,11.94-23.42,11.94
		c-0.3-0.61-16.2,28.41-20.58,39.22c-0.5,1.25-23.46-23.94-23.32-22.45c0,0-13.54,4.13-13.45,6.49
		c0.09,2.37,21.04,42.68,36.46,49.95c2.86,1.35,19.14-9.04,19.97-24.53l-2.1,38.16l-6.97,84.65l34.04,0.05l4.95-78.87L592.69,551.54
		z"/>
	<path id="Path_768" fill="#B2F0EB" d="M616.91,482.6l-24.71,70.35c-0.06,5.61-1.3,28.13,0,51.95c1.77,32.36,6.24,67.13,6.24,65.18
		c0-0.79,41.55,1.83,41.55,1.83l2-66.42c0,0,15.74-10.88,15.74-41.72c0-34.55-1.88-46.3-6.48-63.62
		C650.58,497.68,625.95,482.6,616.91,482.6z"/>
	<path id="Path_769" fill="#093830" d="M603.04,426.15c-4.03-0.09-13.83-0.43-14.74,6.7c-0.83,8.08-1.13,16.21-0.9,24.34
		c0.04,2.21,1.69,4.05,3.88,4.34l24.53,3.15c2.25,0.29,4.36-1.16,4.9-3.36c1.83-7.42,5.55-23.15,4.97-25.66
		C623.68,427.08,609.43,426.28,603.04,426.15z"/>
	<path id="Path_770" fill="#FFFFFF" d="M613.22,469.72c1.51-1.2,2.73-6.58,3.68-12.77c0.03-0.18,0.15-0.32,0.31-0.4
		c2.44-0.9,4.21-3.03,4.65-5.6c0.28-2.67-1.72-2.36-3.34-1.7c-0.21,0.08-0.45-0.02-0.53-0.23c-0.03-0.07-0.03-0.14-0.02-0.21
		c0.84-7.5,1.27-14.12,1.27-14.12l-29.14-3.74c0,0-0.79,6.68-1.48,14.21c-0.03,0.34-1.1,18.35-0.59,20.06
		c0.33,0.99,0.96,1.86,1.81,2.48c0,0,1.67,1.77,12.27,3.13L613.22,469.72z"/>
	<path id="Path_771" fill="#093830" d="M602.09,471.4h-0.07c-10-1.28-12.22-2.94-12.57-3.26c-0.93-0.69-1.62-1.64-1.98-2.74
		c-0.54-1.85,0.57-20.1,0.59-20.27c0.67-7.44,1.47-14.15,1.48-14.22l0.07-0.57l30.23,3.88l-0.03,0.53c0,0.07-0.43,6.57-1.25,13.91
		c0.97-0.54,2.16-0.55,3.14-0.03c0.66,0.61,0.95,1.53,0.75,2.4c-0.46,2.75-2.35,5.05-4.97,6.03c-1.18,7.66-2.44,11.95-3.88,13.1
		c-0.26,0.18-0.61,0.11-0.79-0.14c-0.16-0.23-0.13-0.55,0.08-0.74c0.67-0.54,2.01-2.87,3.47-12.41c0.06-0.37,0.3-0.68,0.64-0.83
		c2.24-0.83,3.88-2.79,4.32-5.14c0.05-0.49,0.04-1.13-0.29-1.38c-0.33-0.26-1.19-0.18-2.26,0.27c-0.32,0.13-0.68,0.08-0.95-0.12
		c-0.28-0.21-0.42-0.56-0.38-0.91c0.69-6.2,1.13-11.85,1.23-13.56l-28.08-3.58c-0.2,1.78-0.85,7.44-1.41,13.63
		c-0.06,0.7-1.07,18.31-0.63,19.85c0.3,0.88,0.86,1.64,1.62,2.19l0.06,0.06c0,0,1.88,1.67,11.92,2.95c0.31,0.02,0.55,0.29,0.53,0.6
		c-0.02,0.31-0.29,0.55-0.6,0.53L602.09,471.4z"/>
	<path id="Path_772" fill="#093830" d="M606.34,450.49h-0.08c-0.52-0.04-0.9-0.49-0.87-1c0,0,0,0,0-0.01l0.05-0.61
		c0.02-0.52,0.45-0.93,0.97-0.92c0.52,0.02,0.93,0.45,0.92,0.97c0,0.03,0,0.06-0.01,0.09l-0.05,0.61
		C607.25,450.12,606.84,450.49,606.34,450.49z"/>
	<path id="Path_773" fill="#093830" d="M593.54,449.25h-0.11c-0.52-0.06-0.88-0.53-0.83-1.05l0.09-0.71
		c0.06-0.52,0.53-0.89,1.05-0.83c0.52,0.06,0.89,0.53,0.83,1.05l-0.08,0.71C594.43,448.9,594.02,449.25,593.54,449.25z"/>
	<path id="Path_774" fill="#093830" d="M609.95,445.99c-0.1,0-0.19-0.02-0.28-0.07c-1.42-0.74-3.06-0.93-4.62-0.53
		c-0.3,0.09-0.61-0.08-0.71-0.38c-0.09-0.3,0.08-0.61,0.38-0.7c1.85-0.49,3.81-0.27,5.5,0.62c0.27,0.15,0.37,0.5,0.21,0.77
		C610.34,445.88,610.15,445.98,609.95,445.99L609.95,445.99z"/>
	<path id="Path_775" fill="#093830" d="M598.05,457.11c-0.07,0-0.13-0.01-0.2-0.03c-0.42-0.15-2.54-0.96-2.61-2.26
		c-0.05-0.96,0.08-1.2,1.64-4.07c0.34-0.62,0.75-1.37,1.24-2.28c0.43-0.94,0.67-1.94,0.72-2.97c0-0.04-0.1-0.24-0.55-0.5
		c-1.83-0.97-3.98-1.16-5.95-0.55c-0.28,0.14-0.62,0.03-0.76-0.25c-0.14-0.28-0.03-0.62,0.25-0.76c0.02-0.01,0.04-0.02,0.06-0.03
		c2.32-0.76,4.85-0.53,7,0.62c0.57,0.26,0.97,0.77,1.07,1.38c-0.04,1.22-0.32,2.42-0.83,3.54v0.04c-0.5,0.92-0.91,1.68-1.25,2.3
		c-1.51,2.75-1.55,2.85-1.51,3.47c0,0.34,1.01,0.95,1.86,1.25c0.3,0.1,0.45,0.43,0.35,0.72
		C598.51,456.96,598.29,457.11,598.05,457.11L598.05,457.11z"/>
	<path id="Path_776" fill="#093830" d="M627.52,609.43c-0.12,0-0.24-0.04-0.34-0.12l-18.74-14.24c-0.26-0.17-0.34-0.52-0.17-0.78
		c0.17-0.26,0.52-0.34,0.78-0.17c0.03,0.02,0.05,0.04,0.08,0.06l18.74,14.23c0.25,0.19,0.3,0.54,0.11,0.79
		C627.86,609.34,627.7,609.42,627.52,609.43L627.52,609.43z"/>
	<path id="Path_777" fill="#093830" d="M561.56,606.09c-0.31,0-0.57-0.25-0.57-0.56c0-0.21,0.12-0.41,0.31-0.51l20.16-10.23
		c0.27-0.16,0.61-0.08,0.78,0.19c0.16,0.27,0.08,0.61-0.19,0.78c-0.02,0.02-0.05,0.03-0.08,0.04l-20.18,10.25
		C561.72,606.07,561.64,606.09,561.56,606.09z"/>
	<path id="Path_778" fill="#FFFFFF" d="M586.8,483.14l-13.56,14.96l10.98,4.41l-6.31,16.58l14.5,30.47
		c0.02,0.06,0.09,0.08,0.15,0.06c0.05-0.02,0.08-0.07,0.07-0.12L586.8,483.14z"/>
	<path id="Path_779" fill="#093830" d="M592.51,550.17c-0.26,0-0.49-0.14-0.61-0.38l-14.61-30.68l6.2-16.27l-11.21-4.5l14.95-16.52
		l5.96,67.63c0.03,0.33-0.18,0.63-0.49,0.71C592.64,550.17,592.58,550.17,592.51,550.17z M578.51,519.05l13.32,27.98l-5.51-62.54
		l-12.13,13.4l10.74,4.31L578.51,519.05z"/>
	<path id="Path_780" fill="#FFFFFF" d="M616.91,482.6L630,502.43l-14.77,1.28l3.32,17.56l-25.05,27.91
		c-0.09,0.09-0.23,0.09-0.32,0.01c-0.06-0.06-0.09-0.15-0.06-0.24L616.91,482.6z"/>
	<path id="Path_781" fill="#093830" d="M593.33,549.85c-0.15,0-0.29-0.04-0.41-0.12c-0.33-0.2-0.46-0.6-0.33-0.96l24.17-67.44
		l14.23,21.58l-15.07,1.31l3.25,17.22l-25.24,28.12C593.78,549.74,593.56,549.85,593.33,549.85z M617.06,483.86l-22.83,63.67
		l23.71-26.41l-3.39-17.9l14.44-1.26L617.06,483.86z"/>
	<path id="Path_782" fill="#093830" d="M638.3,672.5h-0.03l-40.2-1.85l-0.14-0.32c-3.52-7.91-6.57-72.44-6.7-75.18l0.82-45.68
		c-0.01-0.31,0.23-0.57,0.55-0.59c0.31-0.01,0.57,0.23,0.59,0.55c0,0.02,0,0.04,0,0.06l-0.82,45.65c0.03,0.63,3.09,65.36,6.47,74.42
		l39.49,1.82c0.31,0.02,0.55,0.3,0.52,0.61C638.83,672.27,638.59,672.49,638.3,672.5L638.3,672.5z"/>
	<path id="Path_783" fill="#FFFFFF" d="M596.45,576.75c0,0.92,0.74,1.66,1.66,1.66c0.92,0,1.66-0.74,1.66-1.66
		c0-0.92-0.74-1.66-1.66-1.66c-0.44,0-0.86,0.17-1.18,0.48C596.63,575.89,596.45,576.31,596.45,576.75z"/>
	<path id="Path_784" fill="#093830" d="M598.1,578.98c-1.23,0-2.23-1-2.23-2.23s1-2.23,2.23-2.23c1.23,0,2.23,1,2.23,2.23l0,0
		C600.33,577.98,599.33,578.98,598.1,578.98z M598.1,575.66c-0.61,0-1.1,0.49-1.1,1.1s0.49,1.1,1.1,1.1c0.61,0,1.1-0.49,1.1-1.1
		c0,0,0,0,0,0C599.2,576.15,598.71,575.66,598.1,575.66z"/>
	<path id="Path_785" fill="#093830" d="M585.42,669.1h-33.16l0.05-0.61l10.17-136.21c0.02-0.31,0.3-0.55,0.61-0.52
		s0.55,0.3,0.52,0.61l-10.14,135.6h31.96c0.31-0.02,0.58,0.22,0.6,0.53c0.02,0.31-0.22,0.58-0.53,0.6
		C585.47,669.1,585.45,669.1,585.42,669.1L585.42,669.1z"/>
	<path id="Path_786" fill="#2FC4B2" d="M624.03,485.86l-7.87-6.13l-16.27,6.62l5.22,6.23L624.03,485.86z"/>
	<path id="Path_787" fill="#093830" d="M604.92,493.24l-5.97-7.12l17.29-7.03l8.94,6.97L604.92,493.24z M600.81,486.58l4.47,5.33
		l17.58-6.24l-6.78-5.3L600.81,486.58z"/>
	<path id="Path_788" fill="#2FC4B2" d="M581.91,486.56l5.49-5.82l12.49,5.6l-4.7,5.74L581.91,486.56z"/>
	<path id="Path_789" fill="#093830" d="M595.35,492.77l-14.41-6l6.33-6.7l13.52,6.07L595.35,492.77z M582.88,486.36l12.12,5.05
		l3.97-4.85l-11.45-5.13L582.88,486.36z"/>
	<path id="Path_790" fill="#0D5E52" d="M605.1,492.57l-5.22-6.23l-5.19,6.23l2.27,2.67l-6.07,33.2l2.22,20.53l8.41-23.46
		l-0.22-29.76L605.1,492.57z"/>
	<rect id="Rectangle_289" x="541.3" y="781.06" fill="#0D5E52" width="28.52" height="8.1"/>
	<rect id="Rectangle_290" x="607.6" y="779.75" fill="#0D5E52" width="28.52" height="8.1"/>
	<path id="Path_791" fill="#093830" d="M619.64,436.85c0,0-29.3,2.28-38.87-5.39c-5.47-4.38,1.31-14.41,6.33-15.04
		c3.76-0.47,7.72,5.2,11.67,5.65c3.05,0.35,10.23,1.82,14.17,2.64C620.94,426.33,623.78,433.27,619.64,436.85z"/>
	<path id="Path_792" fill="#FFFFFF" d="M641.34,592.23l-35.28,15.63l12.02,24.56l34.69-15.72L641.34,592.23z"/>
	<path id="Path_793" fill="#093830" d="M617.82,633.16l-12.52-25.58l36.32-16.08l11.91,25.47L617.82,633.16z M606.83,608.14
		l11.52,23.54l33.67-15.26l-10.96-23.43L606.83,608.14z"/>
	<path id="Path_794" fill="#FFFFFF" d="M637.01,597c-1.35,7.33-4.07,14.33-8.02,20.64c-2.71,3.83-5.1,7.87-7.16,12.09
		c-0.33,1.22,5.8-1.78,6.08-1.85l0.38,2.3c0,0,1.22,1.18,2.3,0.72c0.92-0.38,1.38-1.85,2.26-2.07c0.79,0.11,1.58,0.15,2.37,0.1
		c0.75-0.18,1.33-1.7,1.88-2.16c0.4-0.34,1.86,0.26,2.5-0.17c1.04-0.68,0.64-2.13,1.37-2.64c0.73-0.5,1.73,0.52,2.89-0.38
		s-3.61-7.62-3.52-9.15c0.32-5.37,22.04-35.31,11.3-55.88C646.8,549.36,639.29,577.19,637.01,597z"/>
	<path id="Path_795" fill="#093830" d="M630.05,631.57c-0.81-0.08-1.57-0.42-2.16-0.99l-0.13-0.13l-0.29-1.78l0,0
		c-4.42,1.98-5.45,2.13-5.96,1.69c-0.22-0.2-0.31-0.51-0.22-0.79c0.59-2.18,5.94-10.4,7.25-12.27c3.9-6.23,6.59-13.15,7.91-20.38
		l0.56,0.06l-0.56-0.06c1.84-16.01,7.43-39.72,12.71-40.69c1.13-0.21,2.13,0.49,2.97,2.09c8.19,15.67-2.26,36.88-7.86,48.27
		c-1.44,2.49-2.57,5.15-3.36,7.91c0.39,1.29,0.94,2.53,1.64,3.68c1.71,3.26,2.64,5.14,1.65,5.89c-0.66,0.47-1.49,0.61-2.26,0.4
		c-0.27-0.05-0.53-0.1-0.63-0.03c-0.16,0.23-0.26,0.48-0.3,0.75c-0.09,0.75-0.48,1.43-1.07,1.88c-0.56,0.27-1.2,0.34-1.81,0.2
		c-0.22-0.03-0.45-0.04-0.67-0.04c-0.19,0.22-0.36,0.46-0.51,0.72c-0.41,0.64-0.88,1.37-1.56,1.54c-0.73,0.09-1.48,0.07-2.21-0.06
		l-0.23-0.03c-0.32,0.2-0.59,0.47-0.79,0.79c-0.33,0.52-0.79,0.94-1.34,1.22C630.57,631.52,630.31,631.57,630.05,631.57z
		 M628.81,629.88c0.29,0.23,0.99,0.73,1.55,0.49c0.36-0.22,0.66-0.52,0.88-0.87c0.34-0.56,0.86-0.99,1.47-1.22
		c0.19-0.03,0.38-0.02,0.57,0.02c0.6,0.09,1.2,0.12,1.81,0.09c0.25-0.06,0.64-0.68,0.88-1.05c0.2-0.36,0.46-0.7,0.75-0.99
		c0.46-0.26,1-0.33,1.51-0.2c0.35,0.07,0.72,0.07,1.07-0.02c0.34-0.3,0.56-0.72,0.59-1.18c0.06-0.56,0.33-1.08,0.75-1.45
		c0.45-0.26,0.98-0.31,1.47-0.16c0.45,0.15,0.95,0.1,1.35-0.15c-0.41-1.59-1.06-3.1-1.92-4.49c-0.86-1.3-1.47-2.75-1.77-4.28
		c0.78-2.92,1.94-5.73,3.47-8.34c5.52-11.21,15.8-32.08,7.87-47.25c-0.58-1.1-1.16-1.61-1.75-1.51c-1.83,0.34-4.34,5.47-6.7,13.73
		c-2.37,8.52-4.07,17.21-5.1,26c-1.37,7.42-4.12,14.51-8.12,20.9c-2.55,3.66-4.87,7.48-6.92,11.45c1.53-0.46,3.02-1.04,4.46-1.74
		c0.24-0.12,0.5-0.23,0.75-0.33l0.59-0.15L628.81,629.88z"/>
	<path id="Path_796" fill="#B2F0EB" d="M643.1,612.7c10.8-8.02,17.79-20.16,19.28-33.53c2.77-22.84-7.16-61.07-7.16-61.07
		l-19.95,19.64c0,0,4.52,31,3.01,38.1c-1.51,7.09-12.22,36.87-12.22,36.87L643.1,612.7z"/>
	<path id="Path_797" fill="#093830" d="M643.1,613.26h-17.78l0.19-0.71c1.72-6.14,3.82-12.16,6.29-18.04
		c3.01-7.63,5.65-14.21,6.18-21.23c0.87-13.28-1.02-26.6-5.57-39.11c-0.14-0.28-0.03-0.62,0.25-0.76c0.28-0.14,0.62-0.03,0.76,0.25
		c0.01,0.03,0.03,0.06,0.04,0.09c4.61,12.67,6.53,26.17,5.65,39.62c-0.54,7.2-3.32,14.17-6.26,21.57
		c-2.35,5.61-4.37,11.35-6.06,17.19h16.31c0.31,0.02,0.55,0.29,0.53,0.6C643.61,613.02,643.38,613.24,643.1,613.26L643.1,613.26z"/>
	<path id="Path_798" fill="#FFFFFF" d="M611.55,533.06v11.31l17.4,0.03v-11.35H611.55z"/>
	<path id="Path_799" fill="#093830" d="M629.51,544.98l-18.52-0.04v-12.43h18.52V544.98z M612.12,543.81l16.26,0.03v-10.21h-16.26
		V543.81z"/>
	<path id="Path_800" fill="#FFFFFF" d="M623.96,533.06h-7.11c0-1.52,1.23-2.75,2.75-2.75l0,0h1.6
		C622.72,530.31,623.96,531.54,623.96,533.06C623.96,533.06,623.96,533.06,623.96,533.06z"/>
	<path id="Path_801" fill="#093830" d="M624.52,533.63h-8.24v-0.57c0-1.83,1.49-3.31,3.32-3.32h1.6c1.83,0,3.31,1.49,3.32,3.32
		L624.52,533.63z M617.49,532.5h5.83c-0.26-0.95-1.12-1.62-2.11-1.62h-1.6C618.61,530.88,617.75,531.54,617.49,532.5L617.49,532.5z"
		/>
	<path id="Path_802" fill="#093830" d="M625.93,537.14h-10.93c-0.31-0.02-0.55-0.29-0.53-0.6c0.02-0.29,0.25-0.52,0.53-0.53h10.93
		c0.31,0.02,0.55,0.29,0.53,0.6C626.45,536.9,626.22,537.13,625.93,537.14z"/>
	<path id="Path_803" fill="#093830" d="M623.96,540.16h-7.32c-0.31,0.02-0.58-0.22-0.6-0.53c-0.02-0.31,0.22-0.58,0.53-0.6
		c0.02,0,0.04,0,0.07,0h7.32c0.31-0.02,0.58,0.22,0.6,0.53c0.02,0.31-0.22,0.58-0.53,0.6C624,540.16,623.98,540.16,623.96,540.16z"
		/>
	<path id="Path_804" fill="#EBF4FE" d="M619.23,510.55c0,2.29-1.86,4.14-4.14,4.14s-4.14-1.86-4.14-4.14c0-2.29,1.86-4.14,4.14-4.14
		l0,0C617.37,506.41,619.23,508.26,619.23,510.55z"/>
	<path id="Path_805" fill="#093830" d="M615.08,515.27c-2.6,0-4.72-2.11-4.72-4.72c0-2.6,2.11-4.72,4.72-4.72
		c2.6,0,4.72,2.11,4.72,4.72S617.68,515.27,615.08,515.27L615.08,515.27z M615.08,506.98c0.01,0.82,0.68,1.48,1.5,1.47
		c0.82-0.01,1.48-0.68,1.47-1.5c-0.01-0.82-0.68-1.48-1.5-1.47c-0.81,0.01-1.47,0.66-1.47,1.47V506.98z"/>
	<path id="Path_806" fill="#093830" d="M587.39,527.01l-1.09-0.29c0.59-2.21,0.38-18.46-4.02-23.93c-0.75-1.11-2.02-1.76-3.35-1.72
		c-1.13,0.07-2.18,0.62-2.89,1.51c-4.47,5.05-3.47,20.58-3.46,20.72l-1.13,0.08c-0.05-0.65-1.04-16.16,3.74-21.57
		c0.91-1.11,2.24-1.79,3.68-1.88c1.7-0.06,3.32,0.75,4.3,2.14C587.87,507.9,588.03,524.64,587.39,527.01z"/>
	<path id="Path_807" fill="#0D5E52" d="M586.65,528.4c-0.7,0-1.27-0.56-1.27-1.27c0-0.7,0.56-1.27,1.27-1.27
		c0.7,0,1.27,0.56,1.27,1.27c0,0,0,0,0,0C587.92,527.83,587.35,528.4,586.65,528.4z M586.65,527c-0.08,0-0.14,0.06-0.14,0.14
		c0,0.08,0.06,0.14,0.14,0.14c0.07,0,0.13-0.06,0.13-0.14C586.79,527.06,586.73,527,586.65,527
		C586.65,526.99,586.65,526.99,586.65,527L586.65,527z"/>
	<path id="Path_808" fill="#0D5E52" d="M571.89,525.15c-0.7,0-1.27-0.56-1.27-1.27c0-0.7,0.56-1.27,1.27-1.27
		c0.7,0,1.27,0.56,1.27,1.27c0,0,0,0.01,0,0.01C573.15,524.59,572.59,525.15,571.89,525.15z M571.89,523.75
		c-0.08,0-0.14,0.06-0.14,0.14c0,0.08,0.07,0.13,0.14,0.13c0.07,0,0.14-0.06,0.14-0.13C572.02,523.81,571.96,523.75,571.89,523.75z"
		/>
	<path id="Path_809" fill="#093830" d="M579.43,500.67l-1.08-0.35c1.59-5.09,2.54-10.36,2.83-15.68c0.08-3.33,1.95-7.62,10.49-9.04
		l0.2,1.13c-6.23,1.05-9.44,3.74-9.54,7.97C582.03,490.12,581.05,495.49,579.43,500.67z"/>
	<path id="Path_810" fill="#093830" d="M615.58,506.64l-1.02-0.49c0.1-0.23,10.72-22.61,1.09-28.71l0.59-0.95
		C626.74,483.11,616.05,505.68,615.58,506.64z"/>
	<path id="Path_811" fill="#093830" d="M587.55,452.16c0,0-2.97,12.32,0.55,15.49c3.51,3.18,18.51,4.9,21.2,3.72
		c2.69-1.18,7.43-15.11,7.43-15.11c-2.99,1.16-6.11,1.91-9.3,2.24c-3.32-0.02-11.54,0.1-15.29-2.22
		C590.42,455.14,588.87,453.76,587.55,452.16z"/>
	<path id="Path_812" fill="#FFFFFF" d="M601.38,459.95c0.2,0.89-2.44,3.58-4.7,3.18c-3.69-0.66-3.99-4.61-3.15-4.23
		c1.04,0.91,2.3,1.53,3.66,1.78C599.59,461.03,601.25,459.35,601.38,459.95z"/>
	<path id="Path_813" fill="#093830" d="M757.47,812.5H100.69c-0.31,0.02-0.58-0.22-0.6-0.53c-0.02-0.31,0.22-0.58,0.53-0.6
		c0.02,0,0.04,0,0.07,0h656.79c0.31,0.02,0.55,0.29,0.53,0.6C757.99,812.25,757.76,812.48,757.47,812.5z"/>
	<path id="Path_814" fill="#FFFFFF" d="M240.02,528.04l0.85-15.53h16.83l4.94,18.08L240.02,528.04z"/>
	<path id="Path_815" fill="#093830" d="M190.16,736.7l-12.72,54.9l-17.61,16.11l29.27-4.9l-1.32-12l29.27-55.04L190.16,736.7z"/>
	<path id="Path_816" fill="#0D5E52" d="M158.05,808.59l18.88-17.29l12.78-55.15l28.29-0.99l-29.64,55.75l1.36,12.36L158.05,808.59z
		 M190.62,737.25l-12.66,54.63l-16.33,14.97l26.86-4.52l-1.27-11.65l0.08-0.15l28.79-54.17L190.62,737.25z"/>
	<path id="Path_817" fill="#093830" d="M271.77,735.76l-2.86,55.84l17.6,16.11l-29.27-4.9l1.32-12l-7.46-55.04H271.77z"/>
	<path id="Path_818" fill="#0D5E52" d="M288.3,808.59l-31.68-5.31l1.37-12.46l-7.54-55.62h21.91l-2.88,56.16L288.3,808.59z
		 M257.86,802.33l26.86,4.52l-16.39-15l2.85-55.51h-19.42l7.38,54.47L257.86,802.33z"/>
	<path id="Path_819" fill="#0D5E52" d="M256.55,794.72c-0.96,5.76-0.38,11.67,1.7,17.13h2.68l0.79-7.78l10.08,7.84l21.64-0.06v-2.45
		c0,0-7.54-5.19-8.36-3.53C282.59,810.99,257.35,788.81,256.55,794.72z"/>
	<path id="Path_820" fill="#0D5E52" d="M291.05,747.35l-126.92-1.88c0,0,51.08-115.32,57.54-141.29c1.3-5.58,3.08-11.03,5.34-16.3
		c4.35-9.61,7.8-9.57,7.8-9.57l40.34,0.38c0,0,7.37,3.94,11.08,22.41c0.12,0.59,0.23,1.19,0.34,1.8
		C290.17,622.95,291.05,747.35,291.05,747.35z"/>
	<path id="Path_821" fill="#0D5E52" d="M189.79,794.72c0.96,5.76,0.38,11.67-1.7,17.13h-2.68l-0.79-7.78l-9.91,7.84l-21.81-0.06
		v-2.45c0,0,7.54-5.19,8.36-3.53C163.75,810.99,188.99,788.81,189.79,794.72z"/>
	<path id="Path_822" fill="#093830" d="M253.75,452.51c0,0,6.83,0.38,12.67,10.64c4.8,8.43,2.77,20.23,1.3,24.87
		c-0.87,2.73-0.87,21.22-1.36,24.04c-2.78,15.92,2.99-0.04,3.01,0c2.05,3.13-1.41,3.58-3.19,5.47c-2.54,2.72-0.97-2.69-0.25,0.38
		c2.59,11.04,9.98,14.69,9.98,14.69l-62.44,0.07c0,0-2.95-41.07,6.84-60.74c1.6-3.22-3.6,27.5-2.4,23.54
		c0.81-2.71-1.83-10.49,0.49-13.49c4.24-5.49,7.26-4.99,7.21-11.72C225.6,466.66,231.35,446.97,253.75,452.51z"/>
	<path id="Path_823" fill="#FFFFFF" d="M267.49,505.99c0,0-15.56-5.86-20.34-6.1c-4.78-0.24,0.16,6.1,0.16,6.1l17.21,7.7
		L267.49,505.99z"/>
	<path id="Path_824" fill="#093830" d="M264.83,514.45l-17.89-8.01l-0.09-0.11c-0.53-0.68-3.1-4.14-2.14-5.99
		c0.38-0.75,1.21-1.09,2.46-1.02c4.82,0.24,19.88,5.89,20.52,6.12l0.53,0.2L264.83,514.45z M247.66,505.53l16.54,7.4l2.55-6.62
		c-2.77-1.02-15.49-5.65-19.64-5.87c-0.52-0.03-1.2,0.03-1.4,0.41C245.26,501.74,246.55,504.08,247.66,505.53z"/>
	<path id="Path_825" fill="#FFFFFF" d="M238.26,486.06c0,0,0.79,19.69,0.05,20.72c-2.57,3.55-10.2,6.67-11.94,7.14
		c-1.74,0.47,28.46,11.99,28.46,11.99l14.5-7.1l-5.59-5.03c-2.44-1.21-4.72-2.72-6.78-4.49c-2.08-2.13-3.07-22.17-3.07-22.17
		L238.26,486.06z"/>
	<path id="Path_826" fill="#093830" d="M254.86,526.54l-0.23-0.09c-0.07-0.03-7.23-2.77-14.29-5.58c-14.65-5.85-14.63-6.32-14.6-6.9
		c0.02-0.28,0.22-0.51,0.49-0.58c1.98-0.53,9.2-3.61,11.61-6.89c0.46-1.19,0.16-13.12-0.13-20.4l-0.03-0.63l16.78,1.13l0.03,0.5
		c0.38,7.66,1.51,20.34,2.91,21.8c2.01,1.73,4.23,3.2,6.61,4.39l0.07,0.03l6.26,5.65L254.86,526.54z M227.48,514.17
		c3.47,1.84,17.93,7.56,27.32,11.14l13.52-6.63l-4.9-4.43c-2.47-1.22-4.77-2.76-6.84-4.57c-1.99-2.06-3.01-18.46-3.2-22.03
		l-14.52-0.97c0.25,6.28,0.67,19.42-0.08,20.46c-2.36,3.22-8.57,6.04-11.3,7.02L227.48,514.17z"/>
	<path id="Path_827" fill="#FFFFFF" d="M238.93,488.25c-2.05-1.88-5.58-5.57-5.22-8.58c0.36-3.01,3.72-2.13,4.69-1.51
		c0.64,0.43,2.26-14.66,2.26-14.66l23.36,2.38c0,0,1.42,13.42-0.7,21.57c-2.12,8.15-6.28,9.72-12.36,9.04
		c-2.51-0.23-4.92-1.13-6.98-2.59L238.93,488.25z"/>
	<path id="Path_828" fill="#093830" d="M253.37,497.22c-0.82-0.01-1.64-0.06-2.46-0.15c-2.61-0.25-5.11-1.18-7.25-2.7
		c-0.26-0.17-0.33-0.52-0.16-0.78c0.17-0.26,0.52-0.33,0.78-0.16c0.01,0.01,0.03,0.02,0.04,0.03c1.98,1.4,4.29,2.26,6.71,2.49
		c5.7,0.63,9.66-0.59,11.75-8.63c1.86-7.12,0.95-18.49,0.75-20.9l-22.36-2.28c-1.55,14.11-2.16,14.4-2.49,14.56
		c-0.19,0.09-0.42,0.07-0.59-0.04c-0.88-0.54-1.95-0.67-2.93-0.38c-0.54,0.28-0.88,0.84-0.89,1.45c-0.24,2,1.6,4.95,5.04,8.1
		c0.26,0.18,0.32,0.53,0.14,0.79c-0.18,0.26-0.53,0.32-0.79,0.14c-0.04-0.03-0.07-0.06-0.1-0.09c-2.67-2.44-5.77-5.99-5.4-9.07
		c0.04-1,0.63-1.9,1.53-2.34c1.14-0.41,2.39-0.35,3.49,0.16c0.47-1.75,1.32-8.18,1.95-13.97l0.06-0.56l24.39,2.49l0.05,0.46
		c0.06,0.55,1.4,13.61-0.72,21.76C261.84,495.46,257.79,497.22,253.37,497.22z"/>
	<path id="Path_829" fill="#B2F0EB" d="M277.76,515.21c8.53,6.76,31.13,39.67,30.54,42.61c-3.01,15.04-29.32,22.04-29.32,22.04
		l-6.71-10.6l13.34-7.74l-8.88-12.2l-1.57,29.39l-15.67,0.27c0,0-30.94,1.55-38.56-4.45c-11.35-8.95-16.52-45.17-4.37-57.64
		c2.42-2.89,5.97-4.6,9.74-4.67c6.03,0,32.46,24.49,39.94,0.3C267.29,509.03,275.46,513.39,277.76,515.21z"/>
	<path id="Path_830" fill="#093830" d="M259.4,480.9h-0.02c-0.52-0.01-0.93-0.44-0.92-0.96c0,0,0,0,0,0v-0.75
		c0.01-0.51,0.43-0.92,0.94-0.92h0.02c0.52,0.01,0.93,0.44,0.92,0.96c0,0,0,0,0,0v0.75C260.33,480.49,259.91,480.9,259.4,480.9z"/>
	<path id="Path_831" fill="#093830" d="M249.01,479.74h-0.02c-0.52-0.01-0.93-0.44-0.92-0.96c0,0,0,0,0,0l0.02-0.75
		c0.01-0.51,0.42-0.92,0.94-0.92c0.01,0,0.02,0,0.03,0c0.52,0.01,0.93,0.43,0.93,0.95l-0.02,0.75
		C249.96,479.32,249.53,479.74,249.01,479.74C249.02,479.74,249.01,479.74,249.01,479.74L249.01,479.74z"/>
	<path id="Path_832" fill="#093830" d="M246.05,475.76c-0.31,0-0.57-0.25-0.57-0.56c0-0.23,0.14-0.44,0.35-0.53
		c1.54-0.61,3.26-0.62,4.8-0.02c0.28,0.15,0.38,0.49,0.24,0.76c-0.13,0.25-0.42,0.36-0.68,0.27l0,0c-1.27-0.47-2.66-0.46-3.92,0.03
		C246.2,475.74,246.12,475.76,246.05,475.76z"/>
	<path id="Path_833" fill="#093830" d="M255.98,485.53c-0.39,0.02-0.78-0.07-1.13-0.26l-0.28-0.22l0.06-0.38
		c0.07-0.3,0.37-0.5,0.67-0.43c0.09,0.02,0.17,0.05,0.23,0.11c0.4,0.1,0.83,0.06,1.2-0.13c0.23-0.18,0.34-0.47,0.29-0.75
		c-0.06-0.63-0.18-1.25-0.35-1.85c-0.12-0.5-0.26-1.06-0.38-1.71c-0.4-1.98-0.4-3.05,0.03-3.67c0.3-0.4,0.77-0.64,1.27-0.67
		l0.2-0.04c1.51-0.07,3.01,0.2,4.4,0.79c0.3,0.1,0.45,0.42,0.35,0.72c-0.1,0.3-0.42,0.45-0.72,0.35c-0.02-0.01-0.03-0.01-0.05-0.02
		c-1.19-0.51-2.47-0.77-3.76-0.75l-0.22,0.04c-0.32,0.06-0.46,0.09-0.53,0.2c-0.12,0.18-0.26,0.79,0.15,2.81
		c0.13,0.63,0.26,1.19,0.38,1.67c0.19,0.68,0.32,1.38,0.38,2.08c0.08,0.76-0.31,1.5-0.99,1.86
		C256.8,485.45,256.39,485.54,255.98,485.53z M255.72,484.85L255.72,484.85z"/>
	<path id="Path_834" fill="#FFFFFF" d="M262.45,591.67l19.65,3.05L262.45,591.67z"/>
	<path id="Path_835" fill="#0E2549" d="M282.1,595.29h-0.09l-19.65-3.05c-0.31-0.04-0.54-0.33-0.5-0.64
		c0.04-0.31,0.33-0.54,0.64-0.5c0.01,0,0.02,0,0.03,0l19.65,3.05c0.31,0.03,0.54,0.31,0.5,0.63
		C282.65,595.08,282.4,595.3,282.1,595.29L282.1,595.29z"/>
	<path id="Path_836" fill="#093830" d="M258.94,560.78h-0.09c-0.31-0.05-0.51-0.34-0.46-0.65c0,0,0,0,0,0
		c3.71-22.33-4.2-35.65-4.28-35.79c-0.16-0.27-0.08-0.62,0.19-0.78c0.26-0.16,0.61-0.08,0.77,0.18c0.08,0.13,8.21,13.82,4.43,36.54
		C259.46,560.57,259.22,560.78,258.94,560.78z"/>
	<path id="Path_837" fill="#093830" d="M267.25,466.05c0,0-23.33,2.54-28.84,12.64c-0.53-0.31-1.13-0.49-1.74-0.52
		c-0.64-0.06-1.29,0.05-1.88,0.31l3.56-17.65L267.25,466.05z"/>
	<path id="Path_838" fill="#E2474B" d="M249.53,487.54c0,0,4.52,5.27,7.76,0.69c-0.85-0.64-1.97-0.79-2.97-0.41
		C252.79,487.24,251.12,487.15,249.53,487.54z"/>
	<path id="Path_839" fill="#FFFFFF" d="M238.78,500.81c0,0,4.5,5.61,3.01,5.27c-0.77-0.19-1.51-0.45-2.22-0.79
		c-0.09-0.07-0.21-0.06-0.28,0.03c-0.07,0.09-0.06,0.21,0.03,0.28l0,0c0.99,1.37,2.82,4.3,1.28,5.24c-2.02,1.24-6.76-1.41-6.89-4.1
		C233.6,504.32,233.52,501.68,238.78,500.81z"/>
	<path id="Path_840" fill="#093830" d="M239.33,511.75c-1.01-0.04-2-0.31-2.87-0.81c-1.71-0.76-2.95-2.31-3.3-4.14
		c-0.12-2.35-0.27-5.58,5.54-6.54l0.33-0.05l0.2,0.26c3.93,4.9,3.52,5.56,3.33,5.88c-0.19,0.29-0.54,0.41-0.87,0.31
		c-0.42-0.1-0.83-0.22-1.23-0.38c0.86,1.11,1.31,2.48,1.27,3.88c-0.09,0.49-0.39,0.92-0.81,1.18
		C240.43,511.61,239.88,511.76,239.33,511.75z M238.55,501.43c-4.49,0.84-4.38,3.01-4.27,5.31c0.33,1.44,1.34,2.63,2.7,3.19
		c0.98,0.67,2.21,0.83,3.33,0.45c0.16-0.09,0.27-0.25,0.3-0.43c-0.13-1.49-0.75-2.89-1.75-4c-0.25-0.35-0.17-0.83,0.18-1.08
		c0.23-0.16,0.52-0.19,0.78-0.07c0.49,0.23,0.99,0.43,1.51,0.59C240.5,504.01,239.57,502.68,238.55,501.43L238.55,501.43z"/>
	<path id="Path_841" fill="#093830" d="M286.24,601.12c-1.65,1-2.92,2.51-3.62,4.3c-3.65,7.49-7.61,4.14-7.61,4.14l0.15-8.02h-2.87
		c-2.39-0.95-5.11,0.07-6.29,2.35c-1.58,2.73-4.46,4.45-7.61,4.55c-1.13,0.02,1.85-25.26,1.85-25.26l-30.86,0.2
		c2.87-5.07,5.45-5.07,5.45-5.07l40.34,0.38C275.15,578.69,282.52,582.65,286.24,601.12z"/>
	<path id="Path_842" fill="#B2F0EB" d="M301.73,544.56c0,0,6.4,10.79,3.98,14.78c-5.04,8.01-13.05,13.71-22.27,15.85
		c0,0-4.28-15.87-3.7-16.42C280.31,558.21,301.73,544.56,301.73,544.56z"/>
	<path id="Path_843" fill="#289C8E" d="M275,595.7c0,0-4.25,12.53,0,13.88s7.61-13.88,7.61-13.88H275z"/>
	<path id="Path_844" fill="#289C8E" d="M258.37,594.58c0,0-4.25,12.54,0,13.88c4.25,1.34,7.61-13.88,7.61-13.88H258.37z"/>
	<path id="Path_845" fill="#289C8E" d="M273.94,545.11c0,0-17.69,10.07-17.46,19.03c0.23,8.96,0.89,32.02,0.89,32.02h11.87v1.78
		h17.01c0,0-3.13-22.61,0-28.2c3.13-5.6,12.29-10.25,12.29-11.14c0-0.89,0.63-14.03,0.63-14.03L273.94,545.11z"/>
	<path id="Path_846" fill="#093830" d="M288.81,477c-2.86-0.28-9.8-1.05-10.84,3.96c-1.03,5.7-1.68,11.45-1.95,17.24
		c-0.09,1.57,0.98,2.97,2.52,3.29l17.24,3.56c1.58,0.33,3.16-0.58,3.66-2.12c1.7-5.17,5.2-16.13,4.92-17.95
		C303.42,478.78,293.34,477.45,288.81,477z"/>
	<path id="Path_847" fill="#FFFFFF" d="M284.42,500.1c0,0-0.65,9.37-3.27,11.61c-1.93,1.51-4.15,2.59-6.53,3.17
		c-0.67,0.22,3.24,7.16,3.24,7.16l21.38-4.48c0,0-6.27-4.25-6.03-6.6c0.99-3.71,2.25-7.34,3.76-10.87L284.42,500.1z"/>
	<path id="Path_848" fill="#093830" d="M277.57,522.69l-0.2-0.38c-3.72-6.59-3.44-7.34-3.34-7.58c0.07-0.19,0.22-0.33,0.41-0.4
		l0.4-0.12c2.17-0.54,4.2-1.55,5.95-2.95c2-1.71,2.9-8.67,3.07-11.22l0.04-0.52h13.94l-0.33,0.79c-1.5,3.47-2.75,7.05-3.73,10.7
		c-0.13,1.38,3.31,4.39,5.8,6.08l1.1,0.75L277.57,522.69z M275.15,515.31c0.85,2.1,1.86,4.14,3.01,6.1l19.71-4.14
		c-1.94-1.43-5.42-4.31-5.23-6.37c0.88-3.51,2.05-6.94,3.5-10.25h-11.2c-0.18,2.06-0.99,9.42-3.43,11.48
		C279.64,513.62,277.47,514.71,275.15,515.31L275.15,515.31z"/>
	<path id="Path_849" fill="#8DE5DB" d="M292.8,514.08c-2.69,2.77-10.55,5.65-13.26,0.27c-2.71-5.38-13.6-10.3-13.6-10.3l-4.75,8.13
		l4.69,4.28c0,0,2.02,29.1,6.83,31.34s28,1.34,28,1.34l-1.03-17.71l9.42-0.18c0,0-3.56-16.69-6.84-18.72
		C296.7,509.08,294.09,512.76,292.8,514.08z"/>
	<path id="Path_850" fill="#FFFFFF" d="M297.45,530.04c1.47,4.59,2.29,9.36,2.44,14.18c-0.31,6.05-2.88,9.1-4.1,10.1
		c-1.55,1.28-8.2,2.26-7.69,4.1s2.68-0.16,3.52,0.11c0.41,0.13-7.59,4.22-3.54,6.01c4.05,1.79,12.61-6.44,13.36-8.08
		c2.99-2.84,5.12-6.46,6.17-10.45c1.48-6.82,0-17.01,0-17.01L297.45,530.04z"/>
	<path id="Path_851" fill="#093830" d="M289.33,565.35c-0.52,0.01-1.03-0.09-1.51-0.29c-0.77-0.23-1.35-0.89-1.48-1.69
		c-0.11-1.22,1.13-2.45,2.62-3.59c-0.22,0-0.44-0.05-0.63-0.14c-0.41-0.22-0.7-0.61-0.79-1.06c-0.46-1.67,2.07-2.51,4.75-3.39
		c1.1-0.29,2.15-0.72,3.13-1.29c0.59-0.49,3.56-3.25,3.9-9.69c-0.16-4.75-0.97-9.45-2.41-13.98l-0.2-0.66l11.38-1.17l0.08,0.54
		c0.84,5.71,0.84,11.51,0,17.21c-0.86,3.74-2.79,7.15-5.54,9.82c-0.24,0.24-0.46,0.49-0.67,0.75
		C301.24,558.23,294.03,565.35,289.33,565.35z M291.44,557.94c0.12,0,0.24,0.02,0.35,0.05l0.34,0.11l0.06,0.38
		c0.06,0.41-0.16,0.56-1.07,1.18c-1.02,0.7-3.73,2.54-3.63,3.63c0.02,0.28,0.3,0.53,0.81,0.75c3.56,1.58,11.88-6.19,12.61-7.8
		c0.24-0.39,0.54-0.75,0.88-1.06c2.6-2.53,4.43-5.75,5.25-9.28c0.8-5.39,0.82-10.87,0.06-16.27l-8.9,0.9
		c1.4,4.44,2.16,9.06,2.26,13.72c-0.35,6.75-3.39,9.75-4.3,10.51c-1.09,0.67-2.26,1.17-3.49,1.51c-1.36,0.45-4.19,1.38-4.01,2.02
		c0.02,0.14,0.09,0.26,0.2,0.35c0.25,0.12,0.85-0.14,1.3-0.32c0.39-0.2,0.82-0.33,1.26-0.38L291.44,557.94z"/>
	<path id="Path_852" fill="#093830" d="M269.24,598.5c-0.31,0-0.56-0.25-0.57-0.56l0,0c0-0.22-0.33-22.39,0.09-32.09
		c0.43-10.05,9.92-13.9,10.01-13.94c0.28-0.13,0.62-0.01,0.75,0.27c0.13,0.28,0.01,0.62-0.27,0.75c-0.02,0.01-0.05,0.02-0.07,0.03
		c-0.09,0.03-8.9,3.63-9.3,12.93c-0.42,9.67-0.09,31.81-0.08,32.02c0.01,0.31-0.24,0.57-0.55,0.57
		C269.25,598.49,269.25,598.49,269.24,598.5L269.24,598.5z"/>
	<path id="Path_853" fill="#FFFFFF" d="M270.16,565.87c0,0,6.78,1.76,10.55,0c3.77-1.76,3.27-4.92,4.9-4.35
		c1.62,0.57,0.22,4.04,0.22,4.04s2.29,0.35,8.08-4.5c0.75-0.63,1.75,5.08-0.14,7.32c-2.44,3.26-6.22,5.24-10.29,5.4
		c-5.27,0.12-15.2,0.75-15.2,0.75L270.16,565.87z"/>
	<path id="Path_854" fill="#093830" d="M267.56,575.14l2.18-9.97l0.57,0.15c0.06,0,6.63,1.68,10.17,0.03
		c1.36-0.63,2.47-1.71,3.13-3.05c0.47-0.81,1.01-1.74,2.19-1.32c0.43,0.15,0.77,0.47,0.95,0.89c0.28,0.99,0.25,2.04-0.09,3.01
		c2.57-0.93,4.91-2.38,6.89-4.26c0.31-0.26,0.77-0.23,1.04,0.07c1.22,2.58,1.08,5.6-0.38,8.05c-2.55,3.38-6.49,5.44-10.72,5.6
		c-5.2,0.12-15.07,0.75-15.17,0.75L267.56,575.14z M270.57,566.55l-1.6,7.37c2.41-0.15,10.09-0.59,14.47-0.71
		c3.91-0.16,7.54-2.07,9.88-5.2c1.02-1.92,1.24-4.16,0.59-6.24c-5.57,4.59-7.91,4.39-8.19,4.35l-0.7-0.11l0.27-0.66
		c0.44-0.94,0.58-1.99,0.41-3.01c-0.05-0.13-0.16-0.24-0.3-0.29c-0.24-0.08-0.3-0.1-0.84,0.82c-0.78,1.55-2.06,2.78-3.64,3.51
		c-3.28,1.55-8.6,0.57-10.35,0.18L270.57,566.55z"/>
	<path id="Path_855" fill="#B2F0EB" d="M252.13,561.47l-0.81,17.11l23.82-0.44V563L252.13,561.47z"/>
	<path id="Path_856" fill="#093830" d="M275.15,563.61h-0.04c-3.81-0.27-37.3-2.67-40.36-5.49s-2.57-14.9-2.5-16.27
		c0.02-0.31,0.28-0.54,0.59-0.53c0.31,0.02,0.55,0.28,0.53,0.59c-0.2,3.56-0.18,13.26,2.14,15.38c2.1,1.93,24.87,4.14,39.68,5.19
		c0.31,0,0.57,0.25,0.57,0.56c0,0.31-0.25,0.57-0.56,0.57C275.19,563.62,275.17,563.62,275.15,563.61L275.15,563.61z"/>
	<path id="Path_857" fill="#8DE5DB" d="M295.4,521.55c0.25,0.87,0,9.04,0,9.04l13.69,0.64l-3.21-11.82L295.4,521.55z"/>
	<path id="Path_858" fill="#093830" d="M309.09,531.8h-0.03l-15.33-0.67l1.86-11.18c0.05-0.31,0.34-0.52,0.66-0.47
		c0.31,0.05,0.52,0.34,0.47,0.66l-1.65,9.92l14.05,0.61c0.31,0.02,0.54,0.3,0.52,0.61C309.62,531.56,309.38,531.79,309.09,531.8
		L309.09,531.8z"/>
	<path id="Path_859" fill="#FFFFFF" d="M294.55,561.87c-1.54,3.16-4.53,5.36-8,5.91L294.55,561.87z"/>
	<path id="Path_860" fill="#093830" d="M286.55,568.36c-0.31,0.02-0.58-0.21-0.6-0.52c-0.02-0.31,0.21-0.58,0.52-0.6
		c0.01,0,0.01,0,0.02,0c3.27-0.52,6.08-2.6,7.53-5.58c0.13-0.29,0.46-0.41,0.75-0.28c0.29,0.13,0.41,0.46,0.28,0.75
		c-1.61,3.35-4.77,5.69-8.45,6.24L286.55,568.36z"/>
	<path id="Path_861" fill="#FFFFFF" d="M294.85,564.46c0,0-2.9,5.04-7.95,5.51L294.85,564.46z"/>
	<path id="Path_862" fill="#093830" d="M286.9,570.54c-0.31,0-0.57-0.25-0.57-0.56c0-0.3,0.22-0.54,0.52-0.57
		c3.14-0.58,5.87-2.49,7.5-5.23c0.16-0.27,0.5-0.37,0.78-0.21c0.27,0.16,0.37,0.5,0.21,0.78c-1.8,3.07-4.87,5.19-8.39,5.79
		L286.9,570.54z"/>
	<path id="Path_863" fill="#FFFFFF" d="M295.8,502.88c2.12-1.05,5.87-3.24,6.29-5.79c0.41-2.54-2.54-2.62-3.49-2.32
		c-0.63,0.2,1.58-12.52,1.58-12.52l-19.67-3.56c0,0-4.32,10.63-4.5,17.78c-0.18,7.15,2.84,9.42,7.98,10.31
		c2.1,0.4,4.27,0.24,6.3-0.47L295.8,502.88z"/>
	<path id="Path_864" fill="#093830" d="M286.32,507.56c-0.81,0-1.63-0.07-2.43-0.21c-4.52-0.75-8.67-2.64-8.44-10.88
		c0.18-7.16,4.35-17.55,4.52-17.98l0.17-0.43l20.69,3.73l-0.09,0.55c-0.84,4.83-1.63,10.15-1.7,11.77c1.01-0.14,2.04,0.12,2.86,0.73
		c0.66,0.59,0.94,1.49,0.73,2.35c-0.43,2.64-3.82,4.83-6.59,6.2c-0.29,0.12-0.62-0.01-0.74-0.3c-0.11-0.27-0.01-0.57,0.24-0.71
		c3.53-1.75,5.71-3.71,5.98-5.37c0.13-0.47-0.01-0.97-0.36-1.31c-0.71-0.45-1.58-0.59-2.4-0.38c-0.21,0.07-0.43,0.02-0.59-0.12
		c-0.26-0.23-0.7-0.61,1.35-12.48l-18.66-3.36c-0.79,2.05-4.14,10.99-4.29,17.16c-0.17,7,2.74,8.92,7.5,9.74
		c2.01,0.38,4.09,0.22,6.03-0.45c0.3-0.08,0.61,0.11,0.69,0.41c0.07,0.26-0.06,0.54-0.31,0.65
		C289.14,507.33,287.73,507.57,286.32,507.56z"/>
	<path id="Path_865" fill="#093830" d="M280.95,483.4c-2.58-0.69-7.31-2.72-5.72-7.77c1.59-5.05,2.21-2.97,2.21-2.97
		s0.83,1.37,1.23,1.51c0.4,0.14-0.5,0.24,1.78-3.74c0,0,4.03,0.09,5.18,2.88c1.15,2.79,2.64,1.68,3.53,0.59
		c0.75-0.92,2.1,0.75,2.19,1.88c0.35,1.32,6.42,1.96,7.99,3.22c2.49,1.99,3.32,2.79,2.47,6.46c-0.17,0.7-2.73,7.37-2.73,7.37
		l-0.71-7.72C292.52,484.92,286.71,484.34,280.95,483.4z"/>
	<circle id="Ellipse_138" fill="#FFFFFF" cx="252.51" cy="536.55" r="2.07"/>
	<path id="Path_866" fill="#093830" d="M252.51,539.19c-1.46,0-2.64-1.18-2.64-2.64c0-1.46,1.18-2.64,2.64-2.64s2.64,1.18,2.64,2.64
		C255.15,538.01,253.97,539.19,252.51,539.19L252.51,539.19z M252.51,535.04c-0.83,0-1.51,0.68-1.51,1.51
		c0,0.83,0.68,1.51,1.51,1.51s1.51-0.68,1.51-1.51l0,0C254.02,535.72,253.35,535.04,252.51,535.04z"/>
	<circle id="Ellipse_139" fill="#FFFFFF" cx="253.73" cy="547.99" r="2.07"/>
	<path id="Path_867" fill="#093830" d="M253.75,550.64c-1.46,0-2.64-1.18-2.64-2.64s1.18-2.64,2.64-2.64s2.64,1.18,2.64,2.64
		S255.21,550.64,253.75,550.64L253.75,550.64z M253.75,546.49c-0.83,0-1.51,0.67-1.51,1.51c0,0.83,0.68,1.51,1.51,1.51
		s1.51-0.68,1.51-1.51l0,0C255.26,547.17,254.59,546.49,253.75,546.49C253.76,546.48,253.75,546.48,253.75,546.49L253.75,546.49z"/>
	<path id="Path_868" fill="#093830" d="M280.18,493.16c-0.42,0-0.75-0.34-0.75-0.76c0-0.07,0.01-0.14,0.03-0.21l0.2-0.64
		c0.11-0.4,0.52-0.64,0.92-0.54c0.4,0.11,0.64,0.52,0.54,0.92c0,0.02-0.01,0.04-0.02,0.06l-0.2,0.64
		C280.8,492.94,280.51,493.16,280.18,493.16z"/>
	<path id="Path_869" fill="#093830" d="M289.01,495.05c-0.42,0-0.75-0.34-0.75-0.75c0-0.08,0.01-0.15,0.03-0.22l0.2-0.63
		c0.16-0.38,0.6-0.57,0.99-0.41c0.33,0.14,0.52,0.49,0.45,0.85l-0.2,0.64C289.62,494.83,289.34,495.04,289.01,495.05z"/>
	<path id="Path_870" fill="#093830" d="M292.43,492.1c-0.14,0-0.27-0.05-0.38-0.14c-0.88-0.74-2-1.12-3.15-1.07
		c-0.31,0.02-0.58-0.21-0.61-0.52c-0.03-0.31,0.2-0.58,0.51-0.61c0,0,0,0,0.01,0c1.45-0.07,2.88,0.42,3.99,1.36
		c0.23,0.21,0.26,0.56,0.05,0.8c-0.11,0.12-0.26,0.19-0.43,0.19V492.1z"/>
	<path id="Path_871" fill="#093830" d="M283.28,497.91c-0.65,0-1.65-0.98-1.66-0.99c-0.47-0.37-0.66-0.99-0.48-1.56
		c0.16-0.4,0.48-0.7,0.89-0.84c0.4-0.16,0.73-0.46,0.93-0.85c0.16-0.27,0.5-0.37,0.78-0.21c0.27,0.16,0.37,0.5,0.21,0.78
		c-0.31,0.59-0.82,1.05-1.43,1.31c-0.26,0.12-0.28,0.14-0.31,0.22c0,0.23,0.73,0.84,1.13,1.01h0.03c0.31,0.03,0.53,0.31,0.5,0.62
		c0,0,0,0,0,0c-0.02,0.22-0.17,0.41-0.38,0.48C283.42,497.9,283.35,497.91,283.28,497.91z"/>
	<path id="Path_872" fill="#093830" d="M283.45,489.66c-0.1,0-0.2-0.03-0.29-0.08c-0.92-0.63-2.03-0.92-3.14-0.82
		c-0.3,0.07-0.61-0.12-0.68-0.42c-0.07-0.3,0.12-0.61,0.42-0.68l0,0c1.4-0.17,2.8,0.17,3.97,0.95c0.27,0.16,0.35,0.51,0.19,0.78
		C283.83,489.55,283.64,489.66,283.45,489.66L283.45,489.66z"/>
	<path id="Path_873" fill="#093830" d="M285.2,500.11c0.13,0.59-1.92,2.02-3.63,1.51c-2.8-0.86-2.95-3.43-2.32-3.1
		c0.79,0.72,1.73,1.26,2.75,1.57C283.82,500.59,285.11,499.71,285.2,500.11z"/>
	<path id="Path_874" fill="#093830" d="M475.38,769.55c-1.86-7.76-9.67-12.54-17.43-10.68c-3.74,0.9-6.97,3.25-8.97,6.54
		l-15.21,24.96c-4.08,6.87-1.82,15.75,5.05,19.84c6.76,4.02,15.49,1.9,19.66-4.77l15.21-24.96
		C475.69,777.2,476.3,773.27,475.38,769.55z M457.52,804.86c-3.88,6.26-12.1,8.19-18.37,4.31c-6.2-3.84-8.17-11.95-4.42-18.2
		l7.31-12l22.78,13.89L457.52,804.86z M472.72,779.9l-7.31,12l-22.78-13.89l7.32-12c3.77-6.33,11.96-8.4,18.29-4.63
		c6.33,3.77,8.4,11.96,4.63,18.29C472.83,779.75,472.78,779.83,472.72,779.9L472.72,779.9z"/>
	<path id="Path_875" fill="#093830" d="M261.86,466.91c0,0-30.13,4.25-21.29,25.5c3.33,7.42,9.34,13.31,16.83,16.47
		c0,0,16.6-43.57,5.27,27.93c-2.9,18.28-26.97-27.39-39.63-23.88c-12.66,3.52-12.42-53.45,18.28-60.86"/>
	<path id="Path_876" fill="#093830" d="M257,462.94c0,0,9.15,8.63,8.29,18.75c-0.86,10.12,1.45-14.84,1.45-14.84l-7.7-4.48
		L257,462.94z"/>
	<path id="Path_877" fill="#093830" d="M256.76,497.91c0,0-10.47,15.72-20.15,13.82c-7.27-1.43,6.12,12.59,11.61,17.21
		c1.94,1.63,0.79,3.99,2.85,2.51c9.78-7.25,15.63-18.63,15.83-30.81"/>
</g>
</svg>
