<svg xmlns="http://www.w3.org/2000/svg" width="721" height="400.484" viewBox="0 0 721 400.484">
  <g id="_4587بتثنتباثی-03-03" data-name="4587بتثنتباثی-03-03" transform="translate(-180.557 -188.372)">
    <path id="Path_966" data-name="Path 966" d="M206.809,587.213s-34.827-40.072-24.254-99.982c8.027-45.487,14.418-56,93.843-103.893,76.634-46.215,10.952-183.051,207.293-179.1,119.606,2.407,163.009-42.091,250.792,8.236,83.915,48.116,5.232,98.2,135.31,184.22,46.869,30.995,42.553,158.745-17.5,189.94Z" transform="translate(0)" fill="#d0eeeb"/>
    <path id="Path_967" data-name="Path 967" d="M1279.52,360.9c-4.312-15.914-31.165-10.939-31.165-10.939s-18.238,27.847-23.544,28.514,10.939-26.857,10.939-26.857c-10.276-.994-36.471,11.606-36.471,11.606s1.661,32.49-3.645,31.827,0-28.845,0-28.845c-9.945,2.982-19.227,14.588-19.227,14.588-11.606,18.9,13.259,32.822,13.259,32.822s.331,11.275-6.631,24.2h0a38.457,38.457,0,0,0-3.165,6.448h2.708q.331-1.09.737-2.106h0v-.031c.188-.436.436-1.016.785-1.744h0c.828-1.622,1.386-2.817,1.744-3.684h0c2.485-5.088,6.06-11.719,8.445-13.115a5.124,5.124,0,0,1-.58-1.243c.183.4.375.811.58,1.243,4.639,9.949,27.847,11.606,40.778,8.955s7.294-6.3.331-12.208-21.551-4.36-25.859-6.679,1.988-4.643,10.608-3.976,12.932,9.282,26.857,10.608,24.533-24.852,24.533-24.852c-9.614,2.982-26.857-2.324-27.52-5.637s24.852-2.982,28.845-3.981S1283.827,376.789,1279.52,360.9Z" transform="translate(-559.926 -90.72)" fill="#2fc4b2" opacity="0.4"/>
    <path id="Path_968" data-name="Path 968" d="M645.93,868.3c-13.245-19.62,17.374-44.135,17.374-44.135s47.384,6.339,53.086,1.2-39.453-13.337-39.453-13.337c8.572-12.1,46.856-28.728,46.856-28.728s33.741,32.311,38.005,25.924-31.339-27.084-31.339-27.084c12.6-8,33.907-7.172,33.907-7.172,31.444,5.119,23.208,45.212,23.208,45.212S799.513,831.129,820.1,835.7h0a55.154,55.154,0,0,1,9.98,2.616l-2.546,2.947q-1.5-.667-2.978-1.177h-.044c-.628-.192-1.526-.462-2.616-.78h0c-2.542-.623-4.36-1.138-5.642-1.565h0c-7.848-2.084-18.429-4.43-22.179-3.144a7.584,7.584,0,0,0-.807-1.8l.807,1.8c6.448,14.388-13.546,41.158-28.571,52.716s-13.69,2.006-13.586-11.118,15.5-27.507,17-34.369-6.91-2.18-14.283,7.791-2.058,22.768-13.69,39.143-50.056,3.3-50.056,3.3c12.269-7.643,22.7-31.357,19.716-35.189s-26.6,24.215-31.391,27.6S659.172,887.925,645.93,868.3Z" transform="translate(-260.6 -330.831)" fill="#2fc4b2" opacity="0.4"/>
    <path id="Path_969" data-name="Path 969" d="M719.342,340.361c6.453-23.644,46.359-16.171,46.359-16.171s27.032,41.445,34.906,42.448-16.184-39.95-16.184-39.95c15.26-1.448,54.172,17.352,54.172,17.352s-2.555,48.291,5.332,47.323.083-42.875.083-42.875c14.776,4.465,28.54,21.739,28.54,21.739,17.178,28.126-19.82,48.731-19.82,48.731s-.528,16.755,9.784,36h0a56.867,56.867,0,0,1,4.687,9.592h-4.029c-.327-1.081-.689-2.128-1.09-3.13h0a.306.306,0,0,1,0-.044c-.275-.623-.672-1.513-1.164-2.616h0c-1.225-2.411-2.053-4.194-2.577-5.48-3.675-7.573-8.973-17.44-12.513-19.519a7.888,7.888,0,0,0,.872-1.844q-.436.872-.872,1.844c-6.954,14.763-41.467,17.161-60.651,13.18s-10.821-9.383-.458-18.163,32.045-6.413,38.459-9.853-2.943-6.9-15.757-5.943-19.249,13.76-39.95,15.7-36.4-37.029-36.4-37.029C745.358,396.1,771,388.268,772,383.358s-36.959-4.513-42.88-6.017S712.881,364.022,719.342,340.361Z" transform="translate(-302.72 -75.97)" fill="#2fc4b2" opacity="0.4"/>
    <path id="Path_970" data-name="Path 970" d="M651.929,616.714c1.853-18.046,31.893-17.409,31.893-17.409s24.743,27,30.62,26.779S697.8,598.864,697.8,598.864c10.983-2.9,41.659,6.1,41.659,6.1s3.968,35.573,9.592,33.911-5.119-31.317-5.119-31.317c11.336,1.474,23.469,12.426,23.469,12.426,15.953,18.46-8.576,37.992-8.576,37.992s1.644,12.3,11.5,25.1h0a41.959,41.959,0,0,1,4.587,6.435l-2.947.48c-.371-.75-.759-1.469-1.173-2.154h0v-.031c-.275-.436-.671-1.02-1.16-1.744h0c-1.186-1.613-2.01-2.817-2.546-3.693h0c-3.6-5.084-8.659-11.654-11.5-12.74a5.665,5.665,0,0,0,.41-1.452l-.41,1.452c-3.274,11.624-28.178,17.544-42.688,16.96s-9.038-5.546-2.529-13.211,22.624-8.559,26.892-11.842-2.982-4.687-12.208-2.437-12.391,12.373-27.276,16.289-31.051-22.646-31.051-22.646c10.97,1.535,28.745-7.285,28.876-11s-27.524,1.173-32.024.8S650.076,634.759,651.929,616.714Z" transform="translate(-265.718 -231.195)" fill="#2fc4b2" opacity="0.4"/>
    <path id="Path_971" data-name="Path 971" d="M1440.921,769.928a1.769,1.769,0,0,0-.379-.872,13.284,13.284,0,0,1-.562-2.642c.035-.671-.785-.436-1.138.1-.118.179.057.916.031,1.142a17.193,17.193,0,0,0-5.781-1.744s-2.18-.436-.907,1.548c.842,1.308,1.661,1.4,2.882,3.235s3.183,2.969,4.8,2.646l1.8.371,1.43-2.8Z" transform="translate(-705.702 -325.717)" fill="#e98c94"/>
    <path id="Path_972" data-name="Path 972" d="M1492.787,760.049s8.681,33.253-17.71,27.725c-7.124-1.491-26.107-20.409-26.107-20.409s1.827-2.882,4.077-2.577c0,0,18.338,5.964,21.272,8.123,1.626,1.195,3.488-17.64,9.095-17.374A14.712,14.712,0,0,1,1492.787,760.049Z" transform="translate(-715.394 -319.883)" fill="#289c8e"/>
    <path id="Path_973" data-name="Path 973" d="M1551.9,1085.116s-.484,7.817-2,7.931h-7.674l-9.539-.057a3.1,3.1,0,0,1,2.851-2.786c2.79-.488,7.455-2.446,9.156-6.13C1546.463,1080.216,1551.9,1085.116,1551.9,1085.116Z" transform="translate(-762.613 -504.347)" fill="#093830"/>
    <path id="Path_974" data-name="Path 974" d="M1536.173,964.737a19.842,19.842,0,0,1-5.162.972,18.917,18.917,0,0,1-4.822-.689s-.545-5.28-3.549-16.912c-1.578-6.1-3.828-13.952-7.028-23.679-8.846-26.923-11.536-42.675-11.772-44.166v-.118h.031l27.2-11.946s-3.361,37.107.929,51.351a59.785,59.785,0,0,1,1.556,6.823C1536.239,941.835,1536.173,964.737,1536.173,964.737Z" transform="translate(-746.342 -383.428)" fill="#0d5e52"/>
    <path id="Path_975" data-name="Path 975" d="M1533.52,926.344l-10.9,21.747c-1.578-6.1-3.828-13.952-7.028-23.679-8.846-26.922-11.536-42.675-11.772-44.166v-.131l27.2-11.946s-3.361,37.107.929,51.351A59.78,59.78,0,0,1,1533.52,926.344Z" transform="translate(-746.33 -383.411)" fill="#0d5e52"/>
    <path id="Path_976" data-name="Path 976" d="M1503.144,1085.116s-.488,7.817-2,7.931h-7.674l-9.54-.057a3.1,3.1,0,0,1,2.852-2.786c2.786-.488,7.455-2.446,9.156-6.13C1497.712,1080.216,1503.144,1085.116,1503.144,1085.116Z" transform="translate(-735.112 -504.347)" fill="#093830"/>
    <path id="Path_977" data-name="Path 977" d="M1492.64,870.18a387.394,387.394,0,0,0,3.806,53.57c4.164,29.521,2.751,42.056,2.751,42.056a28.692,28.692,0,0,0,4.011,1.02,18.224,18.224,0,0,0,5.956-.689s5.951-29.534,4.246-44.314,8.153-50.706,8.153-50.706Z" transform="translate(-740.025 -384.545)" fill="#0d5e52"/>
    <path id="Path_978" data-name="Path 978" d="M1521.83,723.937l-4.774,4.19-7.8-.344c0-.628.161-3.239.292-5.607l.026-.414c.113-2.014.214-3.745.214-3.745l6.653-4.133,2.481-1.543c0,.044.1,2.206.118,2.52A18.207,18.207,0,0,0,1521.83,723.937Z" transform="translate(-749.398 -295.522)" fill="#fff" stroke="#000" stroke-miterlimit="10" stroke-width="1"/>
    <path id="Path_979" data-name="Path 979" d="M1489,795.819c.109,12.692.955,42.383,1.578,42.984,6.614,6.383,35.69-1.744,37.229-8.781s-5.855-90.137-17.147-93.455c-2.346-.689-14.872,3.362-14.872,3.362a79.792,79.792,0,0,0-3.252,11.685c-.475,2.429-2.036,19.737-2.943,31.3-.24,3.087-.436,5.76-.554,7.634C1489,791.329,1489,793.216,1489,795.819Z" transform="translate(-737.972 -309.142)" fill="#289c8e"/>
    <path id="Path_980" data-name="Path 980" d="M1500.9,700.043s12.038,1.121,12.644-6.387,2.524-12.421-5.136-13.455-9.383,1.718-10.185,4.177S1497.787,699.559,1500.9,700.043Z" transform="translate(-742.97 -277.269)" fill="#fff" stroke="#000" stroke-miterlimit="10" stroke-width="1"/>
    <path id="Path_981" data-name="Path 981" d="M1497.1,678.2s2.468,8.07,4.094,7.351,3.109-1.308,3.388,1.221-1.474,5.895,3.863,5.232,9.989-15.792,8-18.041C1510.728,667.446,1489.181,670.476,1497.1,678.2Z" transform="translate(-741.567 -271.869)" fill="#093830"/>
    <path id="Path_982" data-name="Path 982" d="M1507.661,732.5c.148-.065,8.593-3.85,9.592-3.527s2.219,3.344,2.219,3.344L1504.6,735.68A7.319,7.319,0,0,1,1507.661,732.5Z" transform="translate(-746.77 -304.893)" fill="#d0eeeb"/>
    <path id="Path_983" data-name="Path 983" d="M1489,822.543c22.628-16.363,23.247-38.673,23.247-38.673-10.765,6.073-19.341,14.741-22.672,25.771-.24,3.087-.436,5.76-.554,7.634C1489,818.052,1489,819.94,1489,822.543Z" transform="translate(-737.972 -335.865)" fill="#117c6f"/>
    <rect id="Rectangle_367" data-name="Rectangle 367" width="3.767" height="167.343" transform="translate(710.852 419.308)" fill="#093830"/>
    <path id="Path_984" data-name="Path 984" d="M1425.174,731.7h12.068v16.031a5.951,5.951,0,0,1-5.951,5.951h-.17a5.951,5.951,0,0,1-5.951-5.951V731.7Z" transform="translate(-701.971 -306.441)" fill="#ecf1f9"/>
    <path id="Path_985" data-name="Path 985" d="M1427.385,759.79h10.132v3.641a5,5,0,0,1-5,5h-.144a5,5,0,0,1-5-5V759.79Z" transform="translate(-703.218 -322.284)" fill="#117c6f"/>
    <rect id="Rectangle_368" data-name="Rectangle 368" width="26.997" height="3" transform="translate(710.852 419.308)" fill="#093830"/>
    <rect id="Rectangle_369" data-name="Rectangle 369" width="2.08" height="3.623" transform="translate(728.326 422.307)" fill="#fff"/>
    <path id="Path_986" data-name="Path 986" d="M1400.3,839.265a1.745,1.745,0,0,0-.711-.641,13.158,13.158,0,0,1-1.644-1.984c-.436-1.033-1.029-.436-.872.532.039.209.323.667.392.872a17.157,17.157,0,0,0-5.973.85s-2.145.519-.174,1.783c1.308.846,2.093.571,3.968,1.744s4.137,1.36,5.45.4l1.792-.436.126-3.143Z" transform="translate(-682.411 -365.323)" fill="#fff" stroke="#000" stroke-miterlimit="10" stroke-width="1"/>
    <path id="Path_987" data-name="Path 987" d="M1309.52,330.9c-4.312-15.914-31.165-10.939-31.165-10.939s-18.238,27.847-23.544,28.514,10.939-26.857,10.939-26.857c-10.276-.994-36.471,11.606-36.471,11.606s1.661,32.49-3.645,31.827,0-28.845,0-28.845c-9.945,2.982-19.227,14.588-19.227,14.588-11.606,18.9,13.259,32.822,13.259,32.822s.331,11.275-6.631,24.2h0a38.458,38.458,0,0,0-3.165,6.448h2.708q.331-1.09.737-2.106h0v-.031c.188-.436.436-1.016.785-1.744h0c.828-1.622,1.386-2.817,1.744-3.684h0c2.485-5.088,6.06-11.719,8.445-13.115a5.124,5.124,0,0,1-.58-1.243c.183.4.375.811.58,1.243,4.639,9.949,27.847,11.606,40.778,8.955s7.294-6.3.331-12.208-21.551-4.36-25.859-6.679,1.988-4.643,10.608-3.976,12.932,9.282,26.857,10.608,24.533-24.852,24.533-24.852c-9.614,2.982-26.857-2.324-27.52-5.637s24.852-2.982,28.845-3.981S1313.827,346.789,1309.52,330.9Z" transform="translate(-576.847 -73.8)" fill="#093830"/>
    <path id="Path_988" data-name="Path 988" d="M675.93,838.3c-13.245-19.62,17.374-44.135,17.374-44.135s47.384,6.339,53.086,1.2-39.453-13.337-39.453-13.337c8.572-12.1,46.856-28.728,46.856-28.728s33.741,32.311,38.005,25.924-31.339-27.084-31.339-27.084c12.6-8,33.907-7.172,33.907-7.172,31.426,5.136,23.208,45.23,23.208,45.23s11.938,10.948,32.521,15.521h0a55.151,55.151,0,0,1,9.98,2.616l-2.546,2.947q-1.5-.667-2.978-1.177h-.044c-.628-.192-1.526-.462-2.616-.78h0c-2.542-.623-4.36-1.138-5.642-1.565h0c-7.848-2.084-18.429-4.43-22.179-3.144a7.582,7.582,0,0,0-.807-1.8l.807,1.8C830.52,819,810.526,845.774,795.5,857.332s-13.69,2.006-13.586-11.118,15.5-27.507,17-34.369-6.91-2.18-14.283,7.791-2.058,22.768-13.69,39.143-50.056,3.3-50.056,3.3c12.269-7.643,22.7-31.357,19.716-35.189s-26.6,24.215-31.391,27.6S689.172,857.925,675.93,838.3Z" transform="translate(-277.52 -313.911)" fill="#093830"/>
    <path id="Path_989" data-name="Path 989" d="M548.324,805.658s12.6-14.178,12.905-20.561-2.96-8.676-2.96-8.676l-11.31,1.875-7.12,5.127,2.8,18.312,5.7,6.217Z" transform="translate(-202.638 -331.663)" fill="#093830"/>
    <path id="Path_990" data-name="Path 990" d="M749.342,310.361c6.453-23.644,46.359-16.171,46.359-16.171s27.032,41.445,34.906,42.448-16.184-39.95-16.184-39.95c15.26-1.448,54.172,17.352,54.172,17.352s-2.555,48.291,5.332,47.323.083-42.875.083-42.875c14.776,4.465,28.54,21.739,28.54,21.739,17.178,28.126-19.82,48.731-19.82,48.731s-.528,16.755,9.784,36h0a56.881,56.881,0,0,1,4.687,9.592h-4.029c-.327-1.081-.689-2.128-1.09-3.13h0a.3.3,0,0,1,0-.044c-.275-.623-.671-1.513-1.164-2.616h0c-1.225-2.411-2.054-4.194-2.577-5.48-3.675-7.573-8.973-17.44-12.513-19.519a7.887,7.887,0,0,0,.872-1.844q-.436.872-.872,1.844c-6.954,14.763-41.467,17.161-60.651,13.18s-10.821-9.383-.458-18.163,32.045-6.413,38.459-9.853-2.943-6.9-15.757-5.943-19.249,13.76-39.95,15.7-36.4-37.029-36.4-37.029C775.358,366.1,801,358.268,802,353.358s-36.959-4.513-42.88-6.017S742.881,334.022,749.342,310.361Z" transform="translate(-319.64 -59.05)" fill="#093830"/>
    <path id="Path_991" data-name="Path 991" d="M681.929,586.714c1.853-18.046,31.893-17.409,31.893-17.409s24.743,27,30.62,26.779S727.8,568.864,727.8,568.864c10.983-2.9,41.659,6.1,41.659,6.1s3.968,35.573,9.592,33.911-5.119-31.317-5.119-31.317c11.336,1.474,23.469,12.426,23.469,12.426,15.953,18.46-8.576,37.992-8.576,37.992s1.644,12.3,11.5,25.1h0a41.963,41.963,0,0,1,4.587,6.435l-2.947.48c-.371-.75-.759-1.469-1.173-2.154h0v-.031c-.275-.436-.671-1.02-1.16-1.744h0c-1.186-1.613-2.01-2.817-2.546-3.693h0c-3.6-5.084-8.659-11.654-11.5-12.74a5.667,5.667,0,0,0,.41-1.452l-.41,1.452c-3.274,11.624-28.178,17.544-42.688,16.96s-9.038-5.546-2.529-13.211,22.624-8.559,26.892-11.842-2.982-4.687-12.208-2.437-12.391,12.373-27.276,16.289-31.051-22.646-31.051-22.646c10.97,1.535,28.745-7.285,28.876-11s-27.524,1.173-32.024.8S680.076,604.759,681.929,586.714Z" transform="translate(-282.638 -214.275)" fill="#093830"/>
    <path id="Path_992" data-name="Path 992" d="M1162.027,574.953c-17.322-13.7-42.269,13.08-42.269,13.08s2.564,44.515-2.616,49.455-9.627-37.626-9.627-37.626c-11.855,7.12-30.014,41.554-30.014,41.554s27.681,33.659,21.442,37.173-22.99-31.051-22.99-31.051c-8.327,11.14-9.073,31.03-9.073,31.03,2.568,29.591,40.434,24.764,40.434,24.764s9.343,11.872,12.151,31.339h0a51.607,51.607,0,0,0,1.744,9.465l2.917-2.18q-.51-1.439-.872-2.851h0a.124.124,0,0,0,0-.039c-.135-.6-.323-1.456-.541-2.5h0c-.4-2.407-.75-4.142-1.06-5.354h0c-1.386-7.455-2.821-17.44-1.365-20.845a7.152,7.152,0,0,1-1.613-.872l1.613.872c12.927,7.006,39.239-9.705,51.037-22.863s2.834-12.6-9.378-13.42-26.674,12.483-33.166,13.42-1.556-6.583,8.253-12.74,21.316-.31,37.365-9.98,6.592-46.324,6.592-46.324c-7.97,10.9-30.759,18.9-34.116,15.866s24.416-23.029,27.9-27.271S1179.353,588.648,1162.027,574.953Z" transform="translate(-499.893 -215.834)" fill="#dfebfa"/>
    <path id="Path_993" data-name="Path 993" d="M538.807,833.483a6.437,6.437,0,0,0-11.6-1.539,5.846,5.846,0,0,0-.872,2.925c-.157,6.148,11.972,29.957,13.581,32.063,2.934,3.832,20.627,13.054,20.627,13.054l3.758-.549a27.857,27.857,0,0,1-4.325-3.531c-4.547-4.539-11.174-11.92-12.387-12.94C545.513,861.225,541.907,843.441,538.807,833.483Z" transform="translate(-195.022 -361.28)" fill="#e98c94"/>
    <path id="Path_994" data-name="Path 994" d="M551.559,770.214c.1-.4-8.585,3.924-9.025,4.412-4.072,4.513-2.908,10.407-.58,10.464,1.5.035,1.2,2.52,1.2,2.52l16.646-7.041S557.785,768.884,551.559,770.214Z" transform="translate(-202.638 -328.103)" fill="#093830"/>
    <path id="Path_995" data-name="Path 995" d="M471.687,976.427l-3.606-.532a42.583,42.583,0,0,1-13.913-27.581,32.262,32.262,0,0,1-.087-5.55.963.963,0,0,0-.122-.615h0c-.388-.593-1.356-2.084-2.66-4.2s-3.488-6.03-5.916-10.464c-4.36-7.97-9.448-17.5-11.192-20.535-5.559-9.675-2.878-16.18-2.878-16.18s15.5-1.53,19.746-5.232l1.53,2.359s3.357,14.867,3.2,14.933c.166.506.331,1.02.5,1.548a258.109,258.109,0,0,1,7.364,26.731c.933,4.687,1.43,8.768,1.16,11.549a20.635,20.635,0,0,0,.275,4.229C466.585,957.549,471.687,976.427,471.687,976.427Z" transform="translate(-141.064 -393.208)" fill="#117c6f"/>
    <path id="Path_996" data-name="Path 996" d="M522.528,1093.632H507.5a8.152,8.152,0,0,1,.436-4.029c.754-1.666,1.827-1.744.14-4.334.955.981,4.024,1.391,6.2,1.1.266.436,1.718,3.327,2.616,3.963C517.85,1091.038,522.228,1090.785,522.528,1093.632Z" transform="translate(-184.355 -505.857)" fill="#093830"/>
    <path id="Path_997" data-name="Path 997" d="M416.44,887.825l.052-2.812c-5.6.706-19.306-6.692-19.306-6.692s-5.86,3.9-6.662,15.024c-.392,5.432-2.869,28.4-3.143,35.259-.1,2.485-.131,4.26-.144,4.97h0a1,1,0,0,1-.24.58,32.233,32.233,0,0,0-3.052,4.652c-8.545,15.9-4.077,37.5-4.077,37.5l1.984-.5s7.224-22.4,11.946-32.08a20.256,20.256,0,0,1,2.141-3.662c1.775-2.154,3.645-5.816,5.493-10.224a267.474,267.474,0,0,0,9.287-27.838C410.912,902.029,416.44,887.825,416.44,887.825Z" transform="translate(-111.755 -389.136)" fill="#117c6f"/>
    <path id="Path_998" data-name="Path 998" d="M533.818,829.193c-9.156-2.1-3.3-14.968-2.777-14.741,1.269-.257,4.055-2.485,6.54-6.832l.336.292,5.62,4.927s-1.308,1.918-2.389,3.8c-.872,1.469-1.583,2.917-1.469,3.414C540.14,820.429,536.251,829.751,533.818,829.193Z" transform="translate(-196.364 -349.26)" fill="#fff" stroke="#000" stroke-miterlimit="10" stroke-width="1"/>
    <path id="Path_999" data-name="Path 999" d="M547.375,860.64l4.731,15.962a9.623,9.623,0,0,0,2.019,3.623l7.255,8.135-2.568,6.1-10.076-6.348a11.358,11.358,0,0,1-3.819-3.981l-8.476-14.8" transform="translate(-200.721 -379.164)" fill="#117c6f"/>
    <path id="Path_1000" data-name="Path 1000" d="M543.951,835.18a46,46,0,0,1,2.472,5.93c.872,2.751,3,11.5,3,11.5s-4.43,5.053-10.595,4.761c0,0-3.314-5.188-2.145-9.875S543.951,835.18,543.951,835.18Z" transform="translate(-200.719 -364.804)" fill="#117c6f"/>
    <path id="Path_1001" data-name="Path 1001" d="M555.18,802.689s-8.489-4.722-5.463-9.962,3.959-9.378,9.509-6.588,5.437,5.4,4.853,7.412S557.464,803.783,555.18,802.689Z" transform="translate(-207.841 -336.638)" fill="#fff" stroke="#000" stroke-miterlimit="10" stroke-width="1"/>
    <path id="Path_1002" data-name="Path 1002" d="M564.348,789.552c-.388-2.324-1.574-2.546-2.4-2.394A6.785,6.785,0,0,0,553.7,784a11.537,11.537,0,0,1-6.7,4.02s.985,1.831,5.04,2.965a6.918,6.918,0,0,0,4.007-.318,22.67,22.67,0,0,1-5.759,2.18c5.345.488,10.433-4.4,10.961-4.922a7.744,7.744,0,0,1,.436,3.488c-.353,1.574-1.744,4.43-.9,4.8C560.782,796.214,564.928,793.044,564.348,789.552Z" transform="translate(-206.677 -335.718)" fill="#093830"/>
    <path id="Path_1003" data-name="Path 1003" d="M389.295,1093.491H374.266a8.209,8.209,0,0,1,.436-4.029c.75-1.666,1.927-2.424,1.648-4.443a5.406,5.406,0,0,0,4.683,1.792,16.067,16.067,0,0,0,2.616,3.379C384.612,1090.9,388.99,1090.644,389.295,1093.491Z" transform="translate(-109.208 -505.716)" fill="#093830"/>
    <path id="Path_1004" data-name="Path 1004" d="M458.313,845.826a36.805,36.805,0,0,1-7.412,1.343c-3.954.436-8.035.728-10.172,1.578a13.676,13.676,0,0,0-2.847,1.557h0l-.087.061a9.432,9.432,0,0,0-1.177,1.02,6.378,6.378,0,0,0-1.378,2.045c-.785,1.936.253,7.3.92,10.237a2.668,2.668,0,0,1-1.365,2.956q-2.258,1.168-4.43,2.154l-.231.1c0-.3.022-.593.022-.872a27.426,27.426,0,0,0-.257-3.706,15.531,15.531,0,0,1-2.956,5.947c-20.165,8.092-34.256,4.574-34.007.545.8-14,10.233-25.9,10.233-25.9,17.605-20.466,53.191-25.854,53.191-25.854s1.7-.2,3.763,2.267c2.96,3.562,3.109,4.491,3.109,4.491S464,843.838,458.313,845.826Z" transform="translate(-119.781 -355.696)" fill="#289c8e"/>
    <path id="Path_1005" data-name="Path 1005" d="M512.616,856.035c-3.95.436-8.031.728-10.167,1.578a41.676,41.676,0,0,1,5.284-22.863S511.753,851.1,512.616,856.035Z" transform="translate(-181.509 -364.562)" fill="#117c6f"/>
    <path id="Path_1006" data-name="Path 1006" d="M538.39,816.544s1.552-1.962,2.616-1.9c0,0,4.238,5.93,4.273,8.654C545.261,823.311,539.964,816.279,538.39,816.544Z" transform="translate(-201.821 -353.223)" fill="#d0eeeb"/>
    <path id="Path_1007" data-name="Path 1007" d="M615.845,947.086s-2.254.039-2.738-.031a14.209,14.209,0,0,0-1.744-.3,7.335,7.335,0,0,0-1.805.3,1.38,1.38,0,0,1-.266.026h-3.75a2.259,2.259,0,0,1-.789-.837c-.174-.288-.2-.968-.6-1.19-2.263-1.264,3.758-.549,3.758-.549s3.78-.07,4.129.192C612.663,945.168,616.007,946.907,615.845,947.086Z" transform="translate(-238.624 -426.353)" fill="#ed985f"/>
    <path id="Path_1008" data-name="Path 1008" d="M607.922,948.679a17.242,17.242,0,0,1,2.917,1.09l.658.436s.379-.436-.218-.9a2.882,2.882,0,0,1-1.221-1.814C610.028,946.656,607.438,947.366,607.922,948.679Z" transform="translate(-241.003 -427.946)" fill="#ed985f"/>
    <path id="Path_1009" data-name="Path 1009" d="M677.124,1004.1h0a9.784,9.784,0,0,1-9.784-9.784V932.54H686.9v61.776a9.784,9.784,0,0,1-9.779,9.784Z" transform="translate(-274.549 -419.716)" fill="#ecf1f9"/>
    <path id="Path_1010" data-name="Path 1010" d="M680.378,1052.338h0a7.268,7.268,0,0,1-7.268-7.268V1023.1h14.532v21.97A7.264,7.264,0,0,1,680.378,1052.338Z" transform="translate(-277.804 -470.793)" fill="#0d5e52"/>
    <path id="Path_1011" data-name="Path 1011" d="M734.33,932.54h19.563v61.911a9.644,9.644,0,0,1-9.644,9.644h-.275a9.644,9.644,0,0,1-9.644-9.644V932.54Z" transform="translate(-312.332 -419.716)" fill="#ecf1f9"/>
    <path id="Path_1012" data-name="Path 1012" d="M740.09,1009.11h14.536v28.169a7.168,7.168,0,0,1-7.163,7.168h-.2a7.163,7.163,0,0,1-7.163-7.163v-28.169Z" transform="translate(-315.581 -462.902)" fill="#0d5e52"/>
    <path id="Path_1013" data-name="Path 1013" d="M581.536,902.068h0a9.779,9.779,0,0,1-5.206-12.814l24.019-56.914,18.024,7.608-24.019,56.91A9.784,9.784,0,0,1,581.536,902.068Z" transform="translate(-222.783 -363.203)" fill="#ecf1f9"/>
    <path id="Path_1014" data-name="Path 1014" d="M586.436,922.023l-1.382-.58a6.54,6.54,0,0,1-3.488-8.541l17.344-41.062,15.617.375-19.541,46.346a6.54,6.54,0,0,1-8.55,3.462Z" transform="translate(-225.887 -385.481)" fill="#0d5e52"/>
    <path id="Path_1015" data-name="Path 1015" d="M568.415,949.942s2.616,6.732,8.258,8.75c1.208.436,2.664,3.88,2.891,4.39s-1.19-.227-1.744-1.1-.955-1.208-1.12-1.02a6.676,6.676,0,0,0,1.042,3.893c.942,1.321,1.513,2.494.833,2.42s-4.722-1.059-5.555-3.514-5.589-9.531-7.5-12.055S568.415,949.942,568.415,949.942Z" transform="translate(-216.869 -429.471)" fill="#fff" stroke="#000" stroke-miterlimit="10" stroke-width="1"/>
    <path id="Path_1016" data-name="Path 1016" d="M525.193,840.076s1.016-16.568-11.685-12.578,1.984,32.569,1.984,32.569,7.451-.366,10.093-6.871Z" transform="translate(-184.87 -360.122)" fill="#289c8e"/>
    <rect id="Rectangle_370" data-name="Rectangle 370" width="88.777" height="2.747" transform="translate(360.898 575.943)" fill="#d4e4f8"/>
    <rect id="Rectangle_371" data-name="Rectangle 371" width="4.155" height="8.833" transform="translate(360.898 578.018)" fill="#d4e4f8"/>
    <rect id="Rectangle_372" data-name="Rectangle 372" width="4.735" height="10.909" transform="translate(444.94 575.943)" fill="#d4e4f8"/>
    <path id="Path_1017" data-name="Path 1017" d="M915.387,410h138.454a29.647,29.647,0,0,1,29.647,29.647V616.582a29.647,29.647,0,0,1-29.647,29.648H915.387a29.648,29.648,0,0,1-29.647-29.647V439.647A29.648,29.648,0,0,1,915.387,410Z" transform="translate(-397.729 -125)" fill="#ecf1f9"/>
    <rect id="Rectangle_373" data-name="Rectangle 373" width="41.921" height="21.433" transform="translate(565.923 269.488)" fill="#ecf1f9"/>
    <rect id="Rectangle_374" data-name="Rectangle 374" width="26.042" height="36.841" rx="13.021" transform="translate(573.863 505.177)" fill="#fff"/>
    <path id="Path_1018" data-name="Path 1018" d="M1085.455,440.123v190.5a16.533,16.533,0,0,1-16.533,16.533H1003.96a3.279,3.279,0,0,0-3.274,3.279v12.334a7.107,7.107,0,0,1-7.1,7.107h-.767a7.1,7.1,0,0,1-7.1-7.107v-11.8a3.815,3.815,0,0,0-3.815-3.815H917.524A16.533,16.533,0,0,1,901,630.621v-190.5a16.528,16.528,0,0,1,16.533-16.533h151.4A16.533,16.533,0,0,1,1085.455,440.123Z" transform="translate(-406.335 -132.665)" fill="#117c6f"/>
    <path id="Path_1019" data-name="Path 1019" d="M1085.455,461.51v190.5a16.533,16.533,0,0,1-16.533,16.533H1003.96a3.279,3.279,0,0,0-3.274,3.279v12.334a7.107,7.107,0,0,1-7.1,7.107h-.767a7.1,7.1,0,0,1-7.1-7.107v-11.8a3.815,3.815,0,0,0-3.815-3.815H917.524A16.533,16.533,0,0,1,901,652.008V627.837S1029.182,574.476,1085.455,461.51Z" transform="translate(-406.335 -154.052)" fill="#093830"/>
    <path id="Path_1020" data-name="Path 1020" d="M1037.62,655.335a59.081,59.081,0,1,1,41.781-17.3A59.08,59.08,0,0,1,1037.62,655.335Zm0-112.735a53.627,53.627,0,1,0,37.931,15.7A53.627,53.627,0,0,0,1037.62,542.6Z" transform="translate(-450.067 -196.722)" fill="#ecf1f9"/>
    <path id="Path_1021" data-name="Path 1021" d="M1102.845,613.673h-28.527V585.15h-19.275v28.523H1026.52v19.275h28.523v28.527h19.275V632.948h28.527Z" transform="translate(-477.13 -223.786)" fill="#ecf1f9"/>
    <rect id="Rectangle_375" data-name="Rectangle 375" width="688.947" height="2.106" rx="1.053" transform="translate(187.12 586.633)" fill="#093830"/>
    <path id="Path_1022" data-name="Path 1022" d="M865.59,1098.174h11.039a25.966,25.966,0,0,0-.872-3.963,11.738,11.738,0,0,0-.623-1.591c-1.073-2.141-7.9-.781-7.9-.781a5.266,5.266,0,0,0-1.125,2.616,21.668,21.668,0,0,0-.523,3.719Z" transform="translate(-386.364 -509.322)" fill="#2c2c2c"/>
    <path id="Path_1023" data-name="Path 1023" d="M910.48,720.09s8.8,1.543,10.786,6.74,13.228,89.078,13.228,89.078-5.563,4.421-17.51,2.825S910.48,720.09,910.48,720.09Z" transform="translate(-410.985 -299.893)" fill="#289c8e"/>
    <path id="Path_1024" data-name="Path 1024" d="M942.12,1088.884c.031,1.5.218,2.925.763,3.488h21.856c-.275-.789-1.064-1.975-3.3-2.341-2.546-.436-6.54-1.639-8.838-4.09a6.58,6.58,0,0,1-1.709-3.1c-1.029-4.574-8.5,1.4-8.5,1.4A37.058,37.058,0,0,0,942.12,1088.884Z" transform="translate(-429.527 -503.515)" fill="#2c2c2c"/>
    <path id="Path_1025" data-name="Path 1025" d="M918.528,960.69c-2.442.776-7.107,3.157-10.067,2.036-1.918-.719-12.644-31.688-13.315-45.23a34.429,34.429,0,0,0-.549-4.033c-.632-3.488-1.744-8.284-3.017-13.6-3.436-14.2-8.061-31.967-7.961-37.635.157-8.811,26.269-1.849,26.269-1.849a94.775,94.775,0,0,1,2.154,17.7c.706,20.779,2.655,55.872,7.957,80.249a2.093,2.093,0,0,1-1.469,2.363Z" transform="translate(-396.531 -377.545)" fill="#0d5e52"/>
    <path id="Path_1026" data-name="Path 1026" d="M884.237,863.894l-13.8,100.038s-6.065,1.465-10.778.3c0,0-4.042-53.191-3.706-66.07s-2.9-34.443.741-36.8S884.237,863.894,884.237,863.894Z" transform="translate(-380.36 -379.209)" fill="#0d5e52"/>
    <path id="Path_1027" data-name="Path 1027" d="M855,722.906s14.505-9.378,24.908-4.582c1.657.763,3.549,2.9,4.9,4.39,3.758,4.142,11.109,69.972,11.109,69.972s-20.867,7.063-40.922-2.4Z" transform="translate(-380.391 -298.126)" fill="#ecf1f9"/>
    <path id="Path_1028" data-name="Path 1028" d="M914,719.55s14.689,6.017,16.677,10.643,8.454,33.018,8.454,36.349-11.257.746-13.08-4.626c-1.5-4.46-6.579-18.159-9.256-26.827Z" transform="translate(-413.667 -299.588)" fill="#289c8e"/>
    <path id="Path_1029" data-name="Path 1029" d="M892.3,713.089a16.5,16.5,0,0,1-11.362-2.311,32.666,32.666,0,0,0,2.42-8.554.815.815,0,0,1,.035-.292,8.917,8.917,0,0,0,.039-1.962h8.284s2.267,1.038,2.267,1.744v1.1q.026,1.434.1,2.5a22.74,22.74,0,0,0,.436,3.423S895.528,712.457,892.3,713.089Z" transform="translate(-395.021 -288.545)" fill="#fff" stroke="#000" stroke-miterlimit="10" stroke-width="1"/>
    <path id="Path_1030" data-name="Path 1030" d="M879.73,677.173c1.12,6.038,8.912,5.838,12.282,5.459.946-.1,1.543-.227,1.543-.227,1.068-.283,1.661-1.966,1.94-4.172.549-4.36-.144-10.765-.872-12.4-1.112-2.463-3.2-5.132-11.048-3.209S878.291,669.434,879.73,677.173Z" transform="translate(-393.45 -267.108)" fill="#fff" stroke="#000" stroke-miterlimit="10" stroke-width="1"/>
    <path id="Path_1031" data-name="Path 1031" d="M888.175,656.034a18.057,18.057,0,0,0-5.411-4.417c-4.438-2.4-10.119.078-10.141.087-6.409,2.817-8.083,7.721-4.687,15.36,3.6,8.079,7.015,7.168,7.015,7.168s-.724-.436-.658-2.969V670.9a1.7,1.7,0,0,0-.532-1.378c-.8-.706-1.186-2.856-.519-3.457.807-.719,1.936.157,2.3.833a.985.985,0,0,0,1.4.31c2-1.26.7-3.784,2.616-5.328s5.773-.249,8.633-1.478C891.942,659,888.982,657.155,888.175,656.034Z" transform="translate(-386.718 -260.684)" fill="#0d5e52"/>
    <path id="Path_1032" data-name="Path 1032" d="M877.354,821.791q-1.9.484-3.758.8c-1.1.187-2.18.323-3.287.436-6.208.541-12.443-.336-19.733-2.424q-2.459-.706-5.1-1.6c-.187-.065.48-19.336,1.247-39.239.078-2.049.161-4.111.24-6.156l.1-2.59c.7-17.584,1.386-33.458,1.535-34.317.331-1.931.645-3.579.985-5.01.99-4.168,2.224-6.453,4.914-8.415.262-.2,2.411-1.282,4.308-2.228,1.57-.78,2.965-1.461,2.965-1.461h0c.623.305,1.373,1.744,2.18,3.75a136.136,136.136,0,0,1,4.085,13.62h0c.7,2.738,1.2,4.87,1.339,5.48.244,1.033.562,3.052.942,5.742.51,3.689,1.12,8.694,1.744,14.388.065.584.131,1.177.2,1.775.078.68.153,1.369.231,2.067.026.222.048.436.074.671.249,2.25.5,4.569.746,6.932.209,1.949,3.165,3.362,3.37,5.345.118,1.164.362,11.916.68,15.347C877.6,797.171,877.441,820.636,877.354,821.791Z" transform="translate(-375.003 -299.611)" fill="#289c8e"/>
    <path id="Path_1033" data-name="Path 1033" d="M858.892,775.11c0,.039-.5,17.78,12.84,19.934s4.482,2.725,4.482,2.725-25.109-1.064-25.523-1.744S858.892,775.11,858.892,775.11Z" transform="translate(-377.953 -330.924)" fill="#0d5e52"/>
    <path id="Path_1034" data-name="Path 1034" d="M864.935,833.7s-.248.179-.732.488h-.022a62.6,62.6,0,0,1-16.851,7.229q-1.386.379-2.864.706c.078-2.049.161-4.111.24-6.156a25.925,25.925,0,0,1-3.3-.436l.1-.811c1.12-.458,2.232-.9,3.3-1.308.872-.34,1.718-.667,2.52-.968,3.61-1.373,6.291-2.3,6.291-2.3l10.695,3.388Z" transform="translate(-372.72 -361.962)" fill="#0d5e52"/>
    <path id="Path_1035" data-name="Path 1035" d="M857.044,771.061s-1.378.34-3.566.785h-.022a87.957,87.957,0,0,1-16.873,1.888c-.894,0-1.775-.048-2.616-.113a25.916,25.916,0,0,1-3.3-.436,10.3,10.3,0,0,1-5.284-2.494c-9.012-9.182,4.918-42.126,7.848-45.343,3.418-3.745,9.657-5.057,13.106-5.507l.436-.057c1.212-.144,1.992-.174,2.032-.174h0s-.27.872-.724,2.341c-.174.571-.379,1.234-.6,1.971-2.119,6.932-6.2,20.557-8,28.239-.658,2.812-1.011,4.826-.872,5.428.7,2.616,7.983,3.972,12.6,4.569,1.927.248,3.388.366,3.715.392h.065l.27,1.094.637,2.616.628,2.577Z" transform="translate(-361.995 -299.622)" fill="#289c8e"/>
    <path id="Path_1036" data-name="Path 1036" d="M919.491,822.256l-30.951-1.3,6.278-38.572,30.951,1.3Z" transform="translate(-399.308 -335.025)" fill="#0d5e52"/>
    <path id="Path_1037" data-name="Path 1037" d="M894.889,818.018s6.025-.436,6.331.985c.7,3.274-5.18,5.96-7.089,5.777S893.5,817.8,894.889,818.018Z" transform="translate(-401.916 -355.09)" fill="#fff" stroke="#000" stroke-miterlimit="10" stroke-width="1"/>
    <path id="Path_1038" data-name="Path 1038" d="M961.465,802.07s-5.764-1.8-6.383-.506c-1.443,3.021,3.658,7,5.555,7.264S962.864,802.179,961.465,802.07Z" transform="translate(-436.695 -345.581)" fill="#fff" stroke="#000" stroke-miterlimit="10" stroke-width="1"/>
    <path id="Path_1039" data-name="Path 1039" d="M879,715.16s-2.86.5-4.129,2.32c0,0,9.8,17.161,9.758,17S881.423,717.27,879,715.16Z" transform="translate(-391.598 -297.112)" fill="#d0eeeb"/>
    <path id="Path_1040" data-name="Path 1040" d="M911.41,715.69a7.234,7.234,0,0,1,2.795,2.86l1.125,14.362s-2.4-10.538-3.627-15.3A8.143,8.143,0,0,1,911.41,715.69Z" transform="translate(-412.207 -297.411)" fill="#d0eeeb"/>
    <path id="Path_1041" data-name="Path 1041" d="M926.47,782.133a1.4,1.4,0,0,1,1.652-.946c1.408.126,9.326.514,9.326.514s1.526-.026,1.386.951Z" transform="translate(-420.701 -334.346)" fill="#093830"/>
    <path id="Path_1042" data-name="Path 1042" d="M514.1,867.943l7.46,21.8a8.378,8.378,0,0,0,1.7,2.882L539.1,910.19s2.18-4.007,6.187-4.674l-11.7-17.44a12.066,12.066,0,0,1-1.1-2.036c-1.334-3.178-4.569-12.156-2.79-21.111" transform="translate(-188.121 -381.584)" fill="#289c8e"/>
    <path id="Path_1043" data-name="Path 1043" d="M530.648,780.682s-7.612,9.291-2.333,16.489,2.572-2.18,2.572-2.18,6.876,15.094-.466,17.135,2.032-19.72-11.375-18.36c-22.183,2.245,4.36-28.9,17.924-24.028s5.611,16.964,3.235,18.373,2.812-4.709,2.812-4.709l-.414-3.052-1.308-3.078-2.812-1.064L533.294,779l-2.86,2.8-6.54,8.82" transform="translate(-186.099 -327.603)" fill="#093830"/>
    <path id="Path_1044" data-name="Path 1044" d="M1111.64,872.081v17.671A11.249,11.249,0,0,0,1122.884,901h120.373a11.244,11.244,0,0,0,11.244-11.249V782.11" transform="translate(-525.138 -334.872)" fill="none" stroke="#fff" stroke-miterlimit="10" stroke-width="10"/>
    <path id="Path_1045" data-name="Path 1045" d="M1464.7,755.54s22.04,9.156-14.553,36.187c-5.855,4.329-34.073,6.422-34.073,6.422s-1.025-3.257.663-4.8c0,0,22.288-9.662,24.551-9.413,2.005.214,11.131-20.056,14.959-24.167A13.12,13.12,0,0,1,1464.7,755.54Z" transform="translate(-696.666 -319.887)" fill="#289c8e"/>
    <path id="Path_1046" data-name="Path 1046" d="M1111.64,872.081v17.671A11.249,11.249,0,0,0,1122.884,901h120.373a11.244,11.244,0,0,0,11.244-11.249V782.11" transform="translate(-525.138 -334.872)" fill="none" stroke="#117c6f" stroke-miterlimit="10" stroke-width="3"/>
  </g>
</svg>
